<?xml version="1.0" encoding="iso-8859-1"?>
<!-- Generator: Adobe Illustrator 19.0.0, SVG Export Plug-In . SVG Version: 6.00 Build 0)  -->
<svg version="1.1" id="Layer_1" xmlns="http://www.w3.org/2000/svg" xmlns:xlink="http://www.w3.org/1999/xlink" x="0px" y="0px"
	 viewBox="0 0 512 512" style="enable-background:new 0 0 512 512;" xml:space="preserve">
<rect y="61.217" style="fill:#9BC9FF;" width="512" height="389.565"/>
<rect y="61.217" style="fill:#BDDBFF;" width="256" height="389.565"/>
<polygon style="fill:#57A4FF;" points="512,150.261 512,61.217 0,61.217 0,150.261 55.652,150.261 55.652,183.652 100.174,183.652 
	100.174,217.043 144.696,217.043 144.696,250.435 189.217,250.435 189.217,283.826 233.739,283.826 233.739,317.217 
	278.261,317.217 278.261,283.826 322.783,283.826 322.783,250.435 367.304,250.435 367.304,217.043 411.826,217.043 
	411.826,183.652 456.348,183.652 456.348,150.261 "/>
<polygon style="fill:#2488FF;" points="256,61.217 256,317.217 278.261,317.217 278.261,283.826 322.783,283.826 322.783,250.435 
	367.304,250.435 367.304,217.043 411.826,217.043 411.826,183.652 456.348,183.652 456.348,150.261 512,150.261 512,61.217 "/>
<path d="M0,61.217v389.565h512V61.217H0z M478.609,116.87h-22.261v33.391h22.261v267.13H33.391v-267.13h22.261V116.87H33.391V94.609
	h445.217V116.87z"/>
<rect x="233.739" y="283.826" width="44.522" height="33.391"/>
<rect x="278.261" y="250.435" width="44.522" height="33.391"/>
<rect x="189.217" y="250.435" width="44.522" height="33.391"/>
<rect x="144.696" y="217.043" width="44.522" height="33.391"/>
<rect x="322.783" y="217.043" width="44.522" height="33.391"/>
<rect x="100.174" y="183.652" width="44.522" height="33.391"/>
<rect x="367.304" y="183.652" width="44.522" height="33.391"/>
<rect x="55.652" y="150.261" width="44.522" height="33.391"/>
<rect x="411.826" y="150.261" width="44.522" height="33.391"/>
<g>
</g>
<g>
</g>
<g>
</g>
<g>
</g>
<g>
</g>
<g>
</g>
<g>
</g>
<g>
</g>
<g>
</g>
<g>
</g>
<g>
</g>
<g>
</g>
<g>
</g>
<g>
</g>
<g>
</g>
</svg>
