<?xml version="1.0" encoding="iso-8859-1"?>
<!-- Generator: Adobe Illustrator 19.0.0, SVG Export Plug-In . SVG Version: 6.00 Build 0)  -->
<svg version="1.1" id="Layer_1" xmlns="http://www.w3.org/2000/svg" xmlns:xlink="http://www.w3.org/1999/xlink" x="0px" y="0px"
	 viewBox="0 0 512 512" style="enable-background:new 0 0 512 512;" xml:space="preserve">
<polygon style="fill:#004FAC;" points="478.609,261.565 478.609,239.304 512,239.304 512,128 478.609,128 478.609,94.609 
	445.217,94.609 445.217,61.217 378.435,61.217 378.435,27.826 133.565,27.826 133.565,61.217 66.783,61.217 66.783,94.609 
	33.391,94.609 33.391,128 0,128 0,239.304 33.391,239.304 33.391,261.565 33.391,272.696 33.391,339.478 0,339.478 0,450.783 
	33.391,450.783 33.391,484.174 478.609,484.174 478.609,450.783 512,450.783 512,339.478 478.609,339.478 478.609,272.696 "/>
<polygon style="fill:#FFFFFF;" points="66.783,61.217 66.783,94.609 33.391,94.609 33.391,128 0,128 0,161.391 66.783,161.391 
	66.783,128 100.174,128 100.174,61.217 "/>
<rect y="128" width="33.391" height="111.304"/>
<rect x="133.565" y="161.391" width="33.391" height="77.913"/>
<rect x="345.043" y="161.391" width="33.391" height="77.913"/>
<rect x="478.609" y="128" width="33.391" height="111.304"/>
<rect x="33.391" y="94.609" width="33.391" height="33.391"/>
<rect x="445.217" y="94.609" width="33.391" height="33.391"/>
<rect x="66.783" y="61.217" width="66.783" height="33.391"/>
<rect x="378.435" y="61.217" width="66.783" height="33.391"/>
<rect x="166.957" y="128" width="178.087" height="33.391"/>
<rect x="133.565" y="27.826" width="244.87" height="33.391"/>
<polygon points="66.783,272.696 133.565,272.696 133.565,239.304 33.391,239.304 33.391,339.478 66.783,339.478 "/>
<polygon points="478.609,239.304 378.435,239.304 378.435,272.696 445.217,272.696 445.217,339.478 478.609,339.478 "/>
<rect y="339.478" width="33.391" height="111.304"/>
<rect x="478.609" y="339.478" width="33.391" height="111.304"/>
<rect x="33.391" y="450.783" width="445.217" height="33.391"/>
<rect x="200.348" y="194.783" style="fill:#9BC9FF;" width="111.304" height="44.522"/>
<g>
	<rect x="133.565" y="294.957" style="fill:#FFDA44;" width="44.522" height="44.522"/>
	<rect x="233.739" y="294.957" style="fill:#FFDA44;" width="44.522" height="44.522"/>
	<rect x="333.913" y="294.957" style="fill:#FFDA44;" width="44.522" height="44.522"/>
	<rect x="133.565" y="372.87" style="fill:#FFDA44;" width="44.522" height="44.522"/>
	<rect x="233.739" y="372.87" style="fill:#FFDA44;" width="44.522" height="44.522"/>
	<rect x="333.913" y="372.87" style="fill:#FFDA44;" width="44.522" height="44.522"/>
</g>
<g>
</g>
<g>
</g>
<g>
</g>
<g>
</g>
<g>
</g>
<g>
</g>
<g>
</g>
<g>
</g>
<g>
</g>
<g>
</g>
<g>
</g>
<g>
</g>
<g>
</g>
<g>
</g>
<g>
</g>
</svg>
