<?xml version="1.0" encoding="utf-8"?>
<!-- Generator: Adobe Illustrator 19.0.0, SVG Export Plug-In . SVG Version: 6.00 Build 0)  -->
<svg version="1.1" id="Layer_1" xmlns="http://www.w3.org/2000/svg" xmlns:xlink="http://www.w3.org/1999/xlink" x="0px" y="0px"
	 width="1400px" height="1000px" viewBox="0 0 1400 1000" enable-background="new 0 0 1400 1000" xml:space="preserve">
<g id="XMLID_52_">
	<defs>
		<rect id="XMLID_51_" x="-0.7" width="1400.7" height="1000"/>
	</defs>
	<clipPath id="XMLID_54_">
		<use xlink:href="#XMLID_51_"  overflow="visible"/>
	</clipPath>
	<g id="XMLID_50_" clip-path="url(#XMLID_54_)">
		<path id="XMLID_55_" fill="#AEE2FA" d="M844,272.1c186.8-14.2,371.6-27.7,556-38.2v-37.8c-114-4.5-228.2-9.5-343-13.8
			c-353.5-13.5-705.3-3.5-1057.7-13.6v178.6c100.2-10.8,198.8-20.6,301.7-30C485,300.8,661,286.5,844,272.1z"/>
		<path id="XMLID_56_" fill="#97DAF8" d="M844,272.1c-183,14.4-359,28.7-543,45.2c-102.9,9.4-201.5,19.2-301.7,30v43.2
			c53.5-0.2,107.1,0,160.7,0.8c224,2.9,448,9.3,672,10.1c189.3,0.5,378.7-0.1,568-0.2V233.8C1215.6,244.4,1030.8,257.9,844,272.1z"
			/>
		<path id="XMLID_57_" fill="#BAE5F4" d="M832,401.4c-224-0.7-448-7.2-672-10.1c-53.6-0.8-107.2-1-160.7-0.8v169.3H1400V401.2
			C1210.7,401.3,1021.3,401.9,832,401.4z"/>
		<path id="XMLID_58_" fill="#97DAF8" d="M1400,196.1V-22.2H-0.7v190.9c352.5,10.1,704.2,0.1,1057.7,13.6
			C1171.8,186.6,1286,191.5,1400,196.1z"/>
		<g id="XMLID_49_">
			<path id="XMLID_15_" fill="#FCB970" d="M822,650c-28.5,23.4-59.3,38.8-92.5,50.1c-58.9,1.9-117.7,2.6-174.5,1.6
				c-22.6-0.4-44.5-0.9-65.7-1.5C156.2,690.8,0,658.3,0,658.3v-125c370-140,420-180,478.3-188.3c2.8-0.4,5.7-0.5,8.9-0.3
				c-8.1,5.5-15.9,11.5-23.2,18.3c-28,24-73,70-32,104c6,5,13,8,21,10c94,23,184,30,279,44c19.4,2.7,38.5,6.9,56,14.1
				c0,0,0.1,0,0.1,0.1c21.2,8.8,40.1,22.1,54.9,42.9C861,605,844,632,822,650z"/>
			<path id="XMLID_20_" fill="#D68549" d="M1400,640c0,0-126.4,18.5-300.9,35.3c-110.5,10.6-240.3,20.6-369.6,24.8
				c33.2-11.3,63.9-26.6,92.5-50.1c22-18,39-45,21-72c-1.5-2.1-3-4.1-4.6-6.1c-0.3-0.4-0.7-0.9-1-1.3c-0.1-0.1-0.2-0.2-0.2-0.3
				c-0.4-0.5-0.8-1-1.3-1.5c-0.1-0.1-0.1-0.1-0.2-0.2c-0.5-0.6-1-1.1-1.4-1.6c-0.4-0.5-0.9-0.9-1.3-1.4c-1.7-1.8-3.3-3.5-5.1-5.1
				c-1-0.9-2-1.8-3-2.7c-0.1-0.1-0.3-0.2-0.4-0.3c-0.5-0.4-1-0.9-1.5-1.3c-1.1-1-2.3-1.9-3.5-2.8c-0.5-0.4-1.1-0.9-1.7-1.3
				c-0.5-0.4-1.1-0.8-1.7-1.2c-4-2.9-8.1-5.6-12.3-8c-0.6-0.3-1.1-0.6-1.7-1c-0.5-0.2-0.9-0.5-1.3-0.7c-0.7-0.4-1.4-0.7-2.1-1.1
				c-0.6-0.3-1.2-0.6-1.8-0.9c-0.5-0.3-1-0.5-1.5-0.8c-1.4-0.7-2.7-1.3-4.1-1.9c-1.1-0.5-2.2-1-3.3-1.4
				c-17.5-7.3-36.6-11.4-56.1-14.1c-95-14-185-21-279-44c-8-2-15-5-21-10c-41-34,4-80,32-104c7.3-6.8,15.1-12.8,23.2-18.3
				c64,3.6,211.7,118.8,391.1,155.3c188.3,38.3,235-11.7,351.7,33.3S1400,640,1400,640z"/>
			<path id="XMLID_22_" fill="#E89951" d="M843,578c-1.5-2.1-3-4.1-4.6-6.1c-0.3-0.4-0.7-0.9-1-1.3c-0.1-0.1-0.2-0.2-0.2-0.3
				c-0.4-0.5-0.8-1-1.3-1.5c-0.1-0.1-0.1-0.1-0.2-0.2c-0.5-0.6-1-1.1-1.4-1.6c-0.4-0.5-0.9-0.9-1.3-1.4c-1.7-1.8-3.3-3.5-5.1-5.1
				c-1-0.9-2-1.8-3-2.7c-0.1-0.1-0.3-0.2-0.4-0.3c-0.5-0.4-1-0.9-1.5-1.3c-1.1-1-2.3-1.9-3.5-2.8c-0.5-0.4-1.1-0.9-1.7-1.3
				c-0.5-0.4-1.1-0.8-1.7-1.2c-4-2.9-8.1-5.6-12.3-8c-0.6-0.3-1.1-0.7-1.7-1c-0.5-0.3-0.9-0.5-1.3-0.7c-0.7-0.4-1.4-0.7-2.1-1.1
				c-0.6-0.3-1.2-0.6-1.8-0.9c-0.5-0.3-1-0.5-1.5-0.8c-1.4-0.7-2.7-1.3-4.1-1.9c-1.1-0.5-2.2-1-3.3-1.4
				c96.1,36.3,217.8,93.5,311,140.2c-110.5,10.6-240.3,20.6-369.6,24.8c33.2-11.3,63.9-26.6,92.5-50.1C844,632,861,605,843,578z"/>
			<path id="XMLID_8_" fill="#FCB970" d="M1384,733c9-64-65-80-108-112c-12-9-10-25-2-35c13.9-18.8,31-34.2,49.8-46.9
				c-6.7-0.7-13.5-1-20.4-0.7c-55.5,2.2-511.7,175-690,181.7c-142.9,5.3,339.3,135.9,580.2,179c35.4-14.9,69.8-33.5,102.5-58
				C1335,812,1378,781,1384,733z"/>
			<path id="XMLID_9_" fill="#E89951" d="M1426.7,583.3c-14.6-11.7-55.7-39.1-102.9-44.3c-18.8,12.7-35.9,28.1-49.8,46.9
				c-8,10-10,26,2,35c43,32,117,48,108,112c-6,48-49,79-88,108c-32.7,24.5-67.1,43.1-102.5,58c59.7,10.7,104.6,16,121.5,12.7
				c85-16.7,106.7-21.7,111.7-30C1431.7,873.3,1426.7,583.3,1426.7,583.3z"/>
			<path id="XMLID_7_" fill="#E9A25A" d="M105,783c4,18,20,28,35,32c155,44,312,18,468,19c95,0,189-4,284-10
				c105-5.7,209.7-10.8,314.3-15c-53.7-11.1-115.1-24.7-179.6-40.7c-176.2-43.7-433.9-140.8-608.5-162.4
				C312.1,637.2,202.1,667.5,118,747C109,756,103,769,105,783z"/>
			<path id="XMLID_10_" fill="#FFD78D" d="M892,824c-95,6-189,10-284,10c-156-1-313,25-468-19c-15-4-31-14-35-32c-2-14,4-27,13-36
				c84.1-79.5,194.1-109.8,300.2-141.1c-25.2-3.1-48.6-4.7-69.9-4.2C180,605,0,625,0,625s-1.7,373.3,0,375c1.7,1.7,1400,0,1400,0
				V845c0,0-79.5-12.3-193.7-36C1101.7,813.2,997,818.3,892,824z"/>
			<g id="XMLID_1_">
				<path id="XMLID_6_" fill="#FCB970" d="M802,860c-99,3-197,10-297,23c-171.6,21.9-334.2,36.6-505,75.2v41.8c0,0,1400,13.3,1400,0
					c0-6.9,0-64.2,0-117.9c-51.7-5.9-103-10.7-155-15.1C1097,855,950,857,802,860z"/>
				<path id="XMLID_11_" fill="#FEC980" d="M0,912.6v45.6c170.8-38.6,333.4-53.3,505-75.2c100-13,198-20,297-23c148-3,295-5,443,7
					c52,4.4,103.3,9.2,155,15.1c0-50.1,0-97.1,0-97.1C888.3,790,0,912.6,0,912.6z"/>
				<g id="XMLID_33_">
					<defs>
						<path id="XMLID_32_" d="M0,912.6v45.6c170.8-38.6,333.4-53.3,505-75.2c100-13,198-20,297-23c148-3,295-5,443,7
							c52,4.4,103.3,9.2,155,15.1c0-50.1,0-97.1,0-97.1C888.3,790,0,912.6,0,912.6z"/>
					</defs>
					<clipPath id="XMLID_59_">
						<use xlink:href="#XMLID_32_"  overflow="visible"/>
					</clipPath>
					<g id="XMLID_12_" clip-path="url(#XMLID_59_)">
						<g id="XMLID_13_">
							<path id="XMLID_31_" fill="#FDBD6D" d="M94.1,876.8c-6.8,3.1-13.4,5.1-20.1,7.6c-7.3,2.8-15.3,6.3-22.7,10.1
								c-13.8,7.1-27.9,16.7-34.6,27.2c-5.2,8.1-3.6,13.4-4.2,19.7c-0.6,6-7.3,12.5-17.9,17.4c-12.8,6-28.8,11.2-38.4,22.3
								c-4.4,5-5.3,9.2-5.3,12.8c0,3.1,1.5,5.8,0,9.5c-3.2,7.8-21.3,17.8-30.7,23.1c-15.5,8.7-31.1,16-46.6,24.1
								c-19.8,10.2-38.7,21.9-57.5,34.5c-10.5,7.1-21,14.2-31.4,21.5c-10.8,7.5-21.9,15.2-30.6,23.8c-3.9,3.9-3.7,7.8,2.4,5.4
								c19.4-7.5,39.5-22.9,57.3-35.3c16.9-11.7,35.1-23.9,52.2-33.7c28.5-16.2,61.2-29.9,87-51c12.8-10.4,17.4-19.5,16.6-27.1
								c-0.2-1.8-1.9-5.2,0.3-7.7c2.7-3.1,10.4-6,14.1-7.6c13.9-6.2,27-12.4,37.6-23.6c8.3-8.8,8.6-15.6,8.3-21.7
								c-0.4-6.9,1.8-13.5,15.2-22.2c8.1-5.3,16.6-9.3,24.9-13.6c8-4.1,16-8.6,23.9-13.1C96.2,878.1,96.8,875.6,94.1,876.8
								L94.1,876.8z"/>
							<path id="XMLID_30_" fill="#FDBD6D" d="M203.7,867.7c-1.1,0.5-2.5,0.9-3.9,1.5l0,0c-5.4,2.3-10.9,4.1-16.4,6.2
								c-7.5,2.9-15.7,6.5-23.3,10.4c-14.2,7.3-28.3,17.1-34.7,28.1c-4.8,8.1-3,13.4-3.4,19.7c0,0.7-0.2,1.3-0.4,2
								c-1.2,3.1-3.7,6.2-7.3,9.1c-3,2.4-6.7,4.6-10.9,6.6c-10.9,5.2-24,9.9-33.4,18c-2,1.7-3.8,3.5-5.4,5.5
								c-4.1,5.1-4.8,9.2-4.4,12.7c0.2,1.8,1,3.4,1.2,5.2c0.1,1.2-0.1,2.5-0.5,3.9c-0.1,0.5-0.3,0.9-0.6,1.3c-0.3,0.5-0.6,1-1.2,1.7
								c-2.3,2.4-5.6,5.3-9.3,7.9c-4,2.8-8.3,5.5-12.4,7.9c-2.9,1.7-5.6,3.3-7.9,4.6c-2.4,1.4-4.8,2.8-7.1,4.2
								c-7.4,4.5-13.8,8.4-20.5,12.3c-0.7,0.4-1.3,0.7-2,1.2c-0.5,0.3-1.1,0.5-1.6,0.8c-0.3,0.2-0.5,0.3-0.8,0.5
								c-0.6,0.4-1.3,0.8-1.9,1.1c-0.8,0.3-1.6,1.1-2.4,1.3c-0.7,0.4-1.4,0.8-2.1,1.3c-0.7,0.2-1.6,0.9-2.5,1.3
								c-0.7,0.3-1.6,0.9-2.4,1.3c-1.6,0.9-3.2,1.8-4.9,2.7c-18.3,10.3-36.3,21.2-54.1,33c-1.6,1.1-3.3,2.2-4.9,3.3
								c-9.2,6.2-18.2,12.5-27.2,18.9c-0.6,0.4-1.1,0.8-1.7,1.2c-9.5,6.7-19.2,13.6-27.4,21c-0.8,0.8-1.7,1.5-2.4,2.3
								c-3.9,3.9-3.3,7.8,2.8,5.5c9.7-3.8,19.5-9.5,29.1-15.9c9.3-6.2,18.4-12.9,27.1-19.1c0.7-0.5,1.4-1,2.1-1.5
								c17.2-12,35.9-24.2,53.3-34.4c16.4-9.5,34.6-18.6,50.4-28.6c4.8-3,9.4-6.1,13.9-9.2c1.7-1.2,3.4-2.5,5.1-3.7
								c1-0.7,2-1.5,2.9-2.2c0.3-0.2,0.6-0.5,0.9-0.7c0.5-0.5,1.2-0.8,1.8-1.3c0.7-0.6,1.4-1.1,2.1-1.7c0.4-0.3,0.8-0.5,1.2-0.9
								c0.3-0.2,0.5-0.4,0.8-0.6c0.6-0.5,1.1-0.8,1.7-1.3c0.6-0.6,1.1-0.9,1.7-1.3c0.3-0.2,0.6-0.5,0.9-0.8c0.5-0.5,0.9-0.7,1.5-1.3
								c0.8-0.7,1.3-1.1,2.1-1.9c1.4-1.3,2.6-2.5,3.7-3.7c4.4-4.7,7.2-9.2,8.5-13.3c0.6-2,0.9-3.8,0.9-5.6c0-1.7-1.3-5.1,1-7.6
								c2.9-3.1,10.2-6.1,13.8-8c6-3.2,11.1-6.1,15.9-9.3c0.9-0.6,1.8-1.2,2.6-1.8c0.4-0.2,0.7-0.4,1-0.6c0.3-0.2,0.8-0.5,1.1-0.7
								c1.4-1.1,2.9-2.2,4.4-3.3c3.5-2.7,6.9-5.5,10.2-8.7c2-2,3.6-3.8,4.9-5.6c4.4-6.1,5.3-11.4,5.6-16.3
								c0.4-5.2,1.8-10.2,6.9-16.1c1.9-2.2,4.4-4.5,7.7-7c2-1.5,4.1-3,6.3-4.5c1.7-1.1,3.4-2.2,5.2-3.2c2.4-1.4,4.9-2.7,7.4-4
								c1.9-1,3.9-2,5.8-3c8.4-4.3,16.7-9,25-13.8C205.2,869.2,206,866.8,203.7,867.7z"/>
							<path id="XMLID_29_" fill="#FDBD6D" d="M313.2,858.6c-0.9,0.3-2.3,0.6-3.7,1.2l0,0c-5.5,2.3-11.1,4.3-16.8,6.5
								c-7.7,3-16.1,6.7-23.9,10.8c-14.5,7.5-28.6,17.6-34.7,28.9c-4.3,8.1-2.4,13.3-2.6,19.7c0,0.7-0.2,1.3-0.5,2
								c-1.4,3.1-4.1,6.3-7.8,9.2c-3.1,2.4-6.9,4.7-11.2,6.7c-11.3,5.4-24.6,10.5-34,19c-2,1.8-3.7,3.7-5.2,5.7
								c-3.9,5.1-4.3,9.2-3.6,12.7c0.4,1.7,1.4,3.3,1.7,5c0.2,1.2-0.2,2.4-0.3,3.8c-0.1,0.6-0.2,0.9-0.5,1.2
								c-0.3,0.4-0.3,0.8-1.1,1.5c-2.4,2.3-6,5.3-9.7,7.9c-4.1,2.8-8.6,5.6-12.7,8.1c-2.9,1.8-5.7,3.4-8,4.9c-2.4,1.5-4.8,3-7,4.6
								c-7.3,5-12.6,9-18.3,12.9c-0.6,0.4-1.1,0.8-1.7,1.2c-0.3,0.4-1.1,0.3-1.5,0.8c-0.2,0.2-0.4,0.3-0.7,0.5
								c-0.6,0.4-1.1,1-1.7,1.2c-0.8,0.2-1.5,1.3-2.2,1.3c-0.7,0.5-1.3,0.9-2,1.4c-0.6,0.1-1.6,0.9-2.4,1.4
								c-0.5,0.1-1.6,0.9-2.4,1.4c-1.7,1-3.2,1.9-4.9,2.9c-18.5,11-37.2,22-55.4,34.1c-1.7,1.1-3.4,2.2-5,3.4
								c-9.4,6.4-18.6,13-27.8,19.6c-0.6,0.4-1.1,0.8-1.7,1.2c-9.7,6.9-19.6,14-28.1,21.5c-0.9,0.8-1.7,1.6-2.5,2.4
								c-3.8,4-2.9,7.9,3.2,5.5c10-3.9,19.9-9.9,29.6-16.4c9.4-6.4,18.7-13.3,27.6-19.7c0.7-0.5,1.4-1,2.1-1.5
								c17.5-12.3,36.6-24.6,54.5-35.1c16.4-9.7,34.9-19.4,49.5-29.7c4.5-3.2,8.5-6.2,12.4-9.4c1.5-1.2,3-2.4,4.4-3.7
								c0.9-0.7,1.7-1.5,2.5-2.2c0.3-0.2,0.5-0.5,0.8-0.7c0.4-0.6,1.1-0.7,1.6-1.2c0.6-0.6,1.3-1.1,1.8-1.7c0.3-0.4,0.7-0.4,1.1-0.8
								c0.2-0.2,0.5-0.4,0.7-0.7c0.5-0.5,1-0.6,1.6-1.2c0.6-0.7,1-0.8,1.5-1.2c0.3-0.2,0.6-0.6,0.9-0.8c0.5-0.5,0.7-0.6,1.4-1.2
								c0.9-0.9,1.1-1,2-1.9c1.4-1.2,2.6-2.5,3.8-3.7c4.4-4.6,7.4-9,9-13c0.8-1.9,1.1-3.7,1.4-5.5c0.3-1.8-0.7-5,1.6-7.5
								c3-3.2,10.1-6.2,13.5-8.3c5.7-3.6,9.9-6.8,13.7-9.8c0.7-0.6,1.4-1.1,2.1-1.8c0.5-0.1,0.6-0.4,0.9-0.6c0.1-0.2,0.7-0.6,1-0.6
								c1.4-1.2,2.8-2.3,4.4-3.6c3.6-2.8,7.3-5.7,10.7-9c2.1-2,3.9-3.8,5.3-5.6c4.8-6,6.4-11.4,7.4-16.5c1-5.4,2.8-10.7,7.2-16.7
								c1.7-2.3,3.8-4.7,6.7-7.3c1.8-1.6,3.6-3.2,5.8-4.9c1.6-1.2,3.3-2.3,5.2-3.6c2.4-1.5,5.1-3,7.6-4.4c2-1.1,4-2.2,6-3.2
								c8.7-4.6,17.5-9.4,26-14.5C314.3,860.3,315.2,858,313.2,858.6z"/>
							<path id="XMLID_28_" fill="#FDBD6D" d="M422.8,849.6c-0.7,0.2-2,0.2-3.6,0.9l0,0c-5.6,2.4-11.3,4.5-17.2,6.8
								c-7.9,3.1-16.5,7-24.4,11.1c-14.9,7.8-29,18-34.7,29.7c-3.9,8.1-1.8,13.3-1.8,19.7c0,0.7-0.2,1.3-0.5,2.1
								c-1.6,3.2-4.5,6.4-8.3,9.2c-3.2,2.4-7.1,4.7-11.5,6.9c-11.7,5.7-25.3,11.1-34.5,20c-2,1.9-3.7,3.9-5.1,5.9
								c-3.6,5.1-3.8,9.2-2.7,12.6c0.5,1.6,1.8,3.2,2.2,4.8c0.3,1.2-0.1,2.3-0.2,3.6c0,0.7-0.2,0.8-0.4,1.2c-0.4,0.3,0,0.6-1,1.4
								c-2.6,2.2-6.3,5.3-10.1,7.8c-4.2,2.8-8.8,5.7-13.1,8.3c-3,1.8-5.8,3.6-8.1,5.1c-2.4,1.6-4.8,3.2-7,4.9
								c-7.2,5.4-11.4,9.5-16.1,13.6c-0.5,0.4-0.9,0.8-1.4,1.2c-0.2,0.5-1.1,0.2-1.3,0.7c-0.2,0.2-0.4,0.3-0.6,0.5
								c-0.5,0.4-0.9,1.1-1.5,1.2c-0.8,0.1-1.4,1.5-2,1.3c-0.6,0.5-1.3,1-1.9,1.5c-0.5-0.1-1.5,0.9-2.3,1.4c-0.4-0.1-1.6,1-2.3,1.5
								c-1.7,1.1-3.2,2-5,3.1c-18.7,11.6-38.1,22.7-56.8,35.1c-1.7,1.1-3.5,2.3-5.2,3.5c-9.7,6.6-19,13.4-28.4,20.2
								c-0.6,0.4-1.1,0.8-1.7,1.3c-9.9,7.2-20,14.4-28.9,22.1c-0.9,0.8-1.8,1.6-2.5,2.4c-3.7,4.1-2.6,8,3.6,5.6
								c10.3-4,20.3-10.2,30.1-17c9.6-6.6,18.9-13.7,28-20.2c0.7-0.5,1.4-1,2.2-1.5c17.9-12.6,37.4-24.9,55.6-35.8
								c16.4-9.8,35.2-20.1,48.5-30.8c4.1-3.3,7.6-6.4,10.9-9.5c1.3-1.2,2.5-2.4,3.8-3.6c0.7-0.7,1.4-1.4,2.2-2.2
								c0.2-0.2,0.5-0.5,0.7-0.7c0.2-0.6,1-0.6,1.5-1.1c0.5-0.6,1.1-1.1,1.6-1.7c0.3-0.4,0.6-0.3,1-0.7c0.2-0.2,0.4-0.5,0.6-0.7
								c0.4-0.6,0.9-0.4,1.5-1.1c0.7-0.8,0.9-0.7,1.4-1.1c0.2-0.2,0.6-0.6,0.8-0.8c0.5-0.5,0.5-0.4,1.3-1.2c1-1,0.9-0.9,2-1.9
								c1.4-1.2,2.6-2.5,3.8-3.7c4.4-4.5,7.7-8.8,9.6-12.7c0.9-1.8,1.4-3.6,1.9-5.4c0.5-1.8-0.1-4.9,2.3-7.4
								c3.1-3.2,10-6.3,13.2-8.7c5.4-4.1,8.7-7.4,11.5-10.3c0.5-0.6,1-1.1,1.6-1.7c0.6,0,0.5-0.4,0.8-0.5c0-0.2,0.7-0.6,0.9-0.5
								c1.3-1.3,2.7-2.5,4.4-3.8c3.7-2.9,7.6-5.9,11.3-9.2c2.2-2,4.1-3.8,5.7-5.6c5.2-6,7.6-11.5,9.2-16.7
								c1.7-5.6,3.8-11.1,7.6-17.3c1.5-2.4,3.2-4.8,5.7-7.5c1.6-1.7,3.2-3.4,5.2-5.2c1.5-1.3,3.2-2.5,5.2-3.9
								c2.4-1.6,5.2-3.2,7.9-4.7c2.1-1.2,4.1-2.3,6.2-3.4c9-4.9,18.2-9.9,27-15.2C423.3,851.5,424.3,849.2,422.8,849.6z"/>
							<path id="XMLID_27_" fill="#FDBD6D" d="M532.3,840.5c-0.5,0-1.8-0.1-3.4,0.7l0,0c-5.6,2.5-11.5,4.7-17.6,7.1
								c-8.1,3.3-16.9,7.2-25,11.4c-15.3,8-29.4,18.4-34.8,30.6c-3.6,8.1-1.2,13.2-1.1,19.7c0,0.7-0.1,1.3-0.6,2.1
								c-1.8,3.2-4.8,6.4-8.7,9.3c-3.3,2.5-7.4,4.8-11.8,7c-12,5.9-25.9,11.7-35.1,21c-2,2-3.6,4-5,6.1c-3.4,5.2-3.4,9.3-1.8,12.5
								c0.7,1.5,2.2,3,2.7,4.5c0.3,1.1,0.2,2.2,0,3.5c0.2,0.8-0.2,0.8-0.4,1.1c-0.4,0.2,0.2,0.3-0.9,1.2c-2.6,2-6.7,5.3-10.5,7.8
								c-4.4,2.9-9,5.8-13.4,8.5c-3,1.9-5.9,3.7-8.3,5.4c-2.5,1.7-4.9,3.4-7,5.2c-7.1,5.9-10.1,10.1-13.9,14.3
								c-0.4,0.4-0.8,0.8-1.1,1.3c-0.1,0.5-1,0.1-1.2,0.6c-0.2,0.2-0.3,0.4-0.5,0.5c-0.4,0.4-0.7,1.2-1.3,1.2
								c-0.7,0-1.3,1.7-1.8,1.2c-0.6,0.5-1.2,1.1-1.8,1.6c-0.4-0.3-1.4,0.9-2.2,1.4c-0.2-0.2-1.5,1-2.3,1.5c-1.7,1.2-3.2,2.1-5,3.3
								c-18.9,12.3-39,23.5-58.1,36.2c-1.8,1.2-3.5,2.4-5.3,3.6c-9.9,6.8-19.5,13.8-29.1,20.9c-0.6,0.4-1.2,0.9-1.8,1.3
								c-10.1,7.4-20.4,14.8-29.6,22.6c-1,0.8-1.8,1.7-2.6,2.5c-3.6,4.1-2.2,8.1,4,5.6c10.6-4.1,20.7-10.6,30.6-17.5
								c9.7-6.8,19.2-14.1,28.5-20.8c0.7-0.5,1.5-1.1,2.2-1.6c18.2-12.9,38.2-25.2,56.8-36.5c16.4-10,35.5-20.8,47.6-31.9
								c3.7-3.4,6.7-6.5,9.4-9.6c1.1-1.2,2.1-2.4,3.1-3.6c0.6-0.7,1.2-1.4,1.8-2.1c0.2-0.2,0.4-0.5,0.6-0.7c0.1-0.7,0.9-0.5,1.3-1.1
								c0.4-0.6,1-1.1,1.4-1.7c0.3-0.4,0.5-0.2,1-0.6c0.2-0.1,0.4-0.5,0.6-0.7c0.3-0.6,0.8-0.2,1.3-0.9c0.7-0.9,0.7-0.6,1.2-0.9
								c0.2-0.2,0.6-0.7,0.8-0.8c0.4-0.5,0.3-0.2,1.3-1.1c1.1-1.1,0.8-0.7,2-1.8c1.4-1.2,2.7-2.5,3.9-3.7c4.4-4.3,8-8.6,10.1-12.4
								c1-1.8,1.7-3.5,2.4-5.2c0.7-1.8,0.5-4.8,3-7.2c3.3-3.2,9.8-6.4,12.8-9.1c5.2-4.5,7.5-8,9.4-10.8c0.3-0.5,0.7-1,1.1-1.7
								c0.6,0,0.5-0.3,0.7-0.5c-0.1-0.1,0.7-0.6,0.9-0.5c1.2-1.4,2.6-2.6,4.4-4.1c3.8-3.1,7.9-6.1,11.8-9.4c2.3-2,4.4-3.8,6.2-5.6
								c5.6-5.9,8.8-11.5,11-16.9c2.3-5.7,4.8-11.6,8-17.9c1.2-2.5,2.6-5,4.7-7.8c1.3-1.8,2.7-3.6,4.6-5.5c1.5-1.4,3.1-2.7,5.2-4.2
								c2.5-1.8,5.3-3.5,8.1-5.1c2.1-1.2,4.3-2.4,6.5-3.6c9.3-5.1,18.9-10.3,28-15.9C532.3,842.6,533.5,840.5,532.3,840.5z"/>
							<path id="XMLID_26_" fill="#FDBD6D" d="M641.8,831.6c-0.2-0.2-1.5-0.4-3.2,0.4l0,0c-5.7,2.6-11.7,4.9-18,7.4
								c-8.3,3.4-17.3,7.4-25.6,11.8c-15.6,8.2-29.8,18.8-34.8,31.4c-3.2,8-0.6,13.2-0.3,19.7c0,0.8-0.1,1.3-0.6,2.2
								c-2,3.3-5.2,6.5-9.2,9.4c-3.5,2.5-7.6,4.9-12.1,7.1c-12.4,6.2-26.5,12.3-35.6,22c-2,2.1-3.6,4.2-4.8,6.4
								c-3.1,5.2-2.9,9.3-1,12.4c0.9,1.4,2.6,2.9,3.2,4.3c0.4,1.1,0,2.2,0.2,3.4c0.1,0.9-0.1,0.8-0.3,1.1c-0.4,0.2,0.5,0.1-0.8,1.1
								c-2.7,1.9-7,5.4-10.9,7.8c-4.5,2.9-9.3,5.9-13.8,8.7c-3,1.9-6,3.9-8.4,5.6c-2.5,1.8-4.9,3.6-7,5.5c-7,6.4-8.9,10.6-11.7,14.9
								c-0.3,0.4-0.6,0.9-0.9,1.3c0,0.6-1-0.1-1.1,0.6c-0.1,0.2-0.2,0.4-0.4,0.5c-0.4,0.4-0.5,1.3-1.1,1.3c-0.7-0.1-1.2,1.9-1.6,1.2
								c-0.5,0.6-1.1,1.1-1.7,1.7c-0.2-0.5-1.4,0.9-2.1,1.4c-0.1-0.4-1.5,1.1-2.3,1.6c-1.8,1.3-3.2,2.2-5.1,3.5
								c-19.1,12.9-39.9,24.3-59.5,37.3c-1.8,1.2-3.6,2.4-5.4,3.6c-10.2,6.9-19.9,14.2-29.7,21.6c-0.6,0.4-1.2,0.9-1.8,1.3
								c-10.3,7.7-20.8,15.2-30.4,23.2c-1,0.9-1.9,1.7-2.6,2.6c-3.6,4.2-1.8,8.1,4.4,5.7c10.8-4.2,21.1-10.9,31.2-18
								c9.8-7,19.4-14.5,28.9-21.4c0.7-0.5,1.5-1.1,2.2-1.6c18.5-13.2,39-25.5,57.9-37.2c16.4-10.1,35.8-21.5,46.6-33
								c3.3-3.5,5.7-6.7,7.9-9.7c0.8-1.2,1.7-2.3,2.5-3.5c0.5-0.7,0.9-1.4,1.4-2.1c0.2-0.2,0.3-0.5,0.5-0.7c-0.1-0.7,0.8-0.4,1.1-1
								c0.3-0.6,0.8-1.1,1.1-1.7c0.1-0.5,0.4-0.1,0.9-0.6c0.2-0.1,0.3-0.5,0.5-0.7c0.2-0.7,0.6,0,1.2-0.8c0.7-1,0.6-0.5,1.1-0.8
								c0.2-0.2,0.6-0.7,0.8-0.8c0.4-0.5,0.2-0.1,1.2-1c1.2-1.2,0.6-0.6,2-1.8c1.4-1.2,2.7-2.4,3.9-3.6c4.4-4.2,8.2-8.4,10.7-12.1
								c1.2-1.7,2-3.4,2.8-5.1c1-1.8,1.2-4.7,3.7-7.1c3.4-3.3,9.7-6.6,12.5-9.4c4.9-5,6.3-8.5,7.2-11.3c0.2-0.5,0.3-1,0.5-1.6
								c0.7,0.1,0.4-0.3,0.6-0.5c-0.3-0.1,0.6-0.6,0.8-0.4c1.2-1.5,2.5-2.8,4.4-4.4c3.9-3.2,8.2-6.4,12.4-9.7c2.5-2,4.7-3.8,6.6-5.6
								c6-5.8,9.9-11.5,12.7-17.1c3-5.9,5.8-12,8.4-18.6c1-2.6,2-5.2,3.6-8c1.1-1.9,2.2-3.8,4.1-5.9c1.4-1.5,3-2.9,5.1-4.5
								c2.5-1.9,5.5-3.7,8.3-5.4c2.2-1.3,4.4-2.6,6.7-3.8c9.7-5.4,19.7-10.7,29-16.6C641.3,833.9,642.6,831.6,641.8,831.6z"/>
							<path id="XMLID_25_" fill="#FDBD6D" d="M751.2,822.6c0.1-0.4-1.3-0.7-3.1,0.1l0,0c-5.7,2.6-11.9,5.1-18.4,7.7
								c-8.5,3.5-17.7,7.6-26.1,12.1c-16,8.5-30.3,19.2-34.9,32.2c-2.8,8,0.1,13.1,0.5,19.6c0.1,0.8-0.1,1.3-0.7,2.2
								c-2.2,3.3-5.6,6.6-9.7,9.5c-3.6,2.5-7.8,5-12.4,7.3c-12.7,6.4-27.1,12.9-36.2,22.9c-2,2.2-3.5,4.4-4.7,6.6
								c-2.9,5.2-2.4,9.3-0.1,12.4c1,1.3,3.1,2.7,3.7,4c0.5,1.1,0.1,2.1,0.4,3.2c0.2,1,0,0.7-0.2,1c-0.4,0.1,0.8-0.1-0.8,0.9
								c-2.8,1.9-7.4,5.4-11.3,7.8c-4.7,2.9-9.5,6-14.1,8.9c-3.1,2-6,4-8.6,5.9c-2.5,1.9-4.9,3.9-6.9,5.9
								c-6.8,6.9-7.7,11.2-9.5,15.6c-0.2,0.4-0.4,0.9-0.6,1.3c0.1,0.6-1-0.2-1,0.5c-0.1,0.2-0.1,0.4-0.3,0.6
								c-0.3,0.4-0.3,1.5-0.9,1.3c-0.6-0.2-1.1,2.1-1.4,1.2c-0.5,0.6-1,1.2-1.6,1.8c-0.1-0.7-1.3,0.9-2,1.5c0.1-0.5-1.5,1.1-2.2,1.7
								c-1.8,1.4-3.1,2.3-5.1,3.7c-19.4,13.6-40.7,25.1-60.9,38.3c-1.9,1.2-3.7,2.5-5.6,3.7c-10.4,7.1-20.3,14.7-30.3,22.2
								c-0.6,0.5-1.2,0.9-1.8,1.4c-10.5,7.9-21.2,15.6-31.1,23.7c-1.1,0.9-2,1.8-2.7,2.7c-3.5,4.3-1.4,8.2,4.8,5.8
								c11.1-4.4,21.5-11.2,31.7-18.6c10-7.2,19.7-14.9,29.3-22c0.8-0.6,1.5-1.1,2.3-1.6c18.9-13.5,39.8-25.8,59-37.9
								c16.4-10.2,36.1-22.3,45.7-34.1c3-3.6,4.8-6.8,6.4-9.8c0.6-1.2,1.2-2.3,1.8-3.5c0.3-0.7,0.7-1.4,1-2.1
								c0.1-0.2,0.2-0.5,0.3-0.7c-0.2-0.8,0.7-0.2,1-0.9c0.2-0.6,0.6-1.1,0.9-1.7c0.1-0.5,0.2,0,0.8-0.5c0.2-0.1,0.3-0.5,0.5-0.7
								c0.2-0.7,0.5,0.2,1.1-0.7c0.7-1.1,0.5-0.4,0.9-0.7c0.2-0.1,0.6-0.7,0.8-0.8c0.4-0.6,0,0.1,1.1-1c1.3-1.3,0.4-0.5,1.9-1.8
								c1.4-1.2,2.7-2.4,4-3.6c4.4-4.1,8.5-8.2,11.3-11.8c1.3-1.7,2.3-3.3,3.3-4.9c1.2-1.8,1.8-4.6,4.3-7c3.6-3.3,9.6-6.7,12.2-9.8
								c4.6-5.4,5.2-9.1,5.1-11.8c0-0.5-0.1-1,0-1.6c0.8,0.1,0.4-0.3,0.6-0.4c-0.4-0.1,0.6-0.7,0.7-0.3c1.1-1.6,2.4-3,4.3-4.6
								c4-3.4,8.5-6.6,12.9-9.9c2.6-2,5-3.8,7-5.6c6.4-5.7,11.1-11.5,14.5-17.3c3.6-6.1,6.8-12.5,8.7-19.2c0.8-2.7,1.4-5.4,2.6-8.2
								c0.9-2,1.8-4,3.5-6.2c1.3-1.6,2.9-3.1,5.1-4.9c2.5-2,5.6-4,8.5-5.8c2.3-1.4,4.6-2.7,6.9-4c10-5.6,20.4-11.1,30.1-17.3
								C750.3,825.2,751.7,822.9,751.2,822.6z"/>
							<path id="XMLID_24_" fill="#FDBD6D" d="M860.7,813.7c0.3-0.6-1.1-1-2.9-0.1l0,0c-5.8,2.7-12.2,5.3-18.8,8
								c-8.7,3.6-18.1,7.8-26.7,12.4c-16.4,8.7-30.7,19.6-34.9,33c-2.5,8,0.7,13,1.3,19.6c0.1,0.8-0.1,1.3-0.7,2.3
								c-2.4,3.3-6,6.7-10.1,9.5c-3.7,2.6-8.1,5-12.7,7.4c-13.1,6.7-27.8,13.5-36.7,23.9c-2,2.3-3.4,4.6-4.6,6.8
								c-2.6,5.3-2,9.4,0.7,12.3c1.2,1.3,3.5,2.6,4.2,3.8c0.6,1,0.2,1.9,0.5,3.1c0.3,1.1,0,0.7-0.1,0.9c-0.4,0,1-0.3-0.7,0.8
								c-2.9,1.8-7.7,5.4-11.7,7.8c-4.8,3-9.7,6.1-14.4,9.1c-3.1,2-6.1,4.1-8.7,6.1c-2.6,2-4.9,4.1-6.9,6.2
								c-6.7,7.4-6.4,11.8-7.3,16.2c-0.1,0.5-0.2,0.9-0.3,1.4c0.3,0.7-0.9-0.3-0.8,0.5c-0.1,0.2-0.1,0.4-0.2,0.6
								c-0.2,0.4-0.2,1.6-0.6,1.3c-0.6-0.3-1,2.3-1.2,1.2c-0.5,0.6-0.9,1.3-1.5,2c0-0.9-1.2,1-1.9,1.5c0.2-0.7-1.5,1.2-2.2,1.8
								c-1.8,1.5-3.1,2.4-5.2,3.9c-19.6,14.2-41.6,25.8-62.2,39.4c-1.9,1.3-3.8,2.5-5.7,3.8c-10.7,7.3-20.8,15.1-30.9,22.9
								c-0.6,0.5-1.2,0.9-1.9,1.4c-10.7,8.1-21.6,16-31.9,24.3c-1.1,0.9-2,1.8-2.7,2.7c-3.4,4.3-1.1,8.3,5.2,5.8
								c11.4-4.5,21.9-11.6,32.2-19.1c10.1-7.4,19.9-15.3,29.8-22.5c0.8-0.6,1.5-1.1,2.3-1.7c19.2-13.9,40.5-26.1,60.2-38.6
								c16.3-10.4,36.4-23,44.7-35.2c2.6-3.7,3.9-6.9,4.9-10c0.4-1.2,0.8-2.3,1.1-3.4c0.2-0.7,0.4-1.3,0.6-2
								c0.1-0.2,0.1-0.5,0.2-0.7c-0.4-0.9,0.7-0.1,0.8-0.8c0.1-0.5,0.6-1.1,0.7-1.7c0.1-0.5,0.1,0.1,0.7-0.4
								c0.1-0.1,0.3-0.6,0.4-0.7c0.1-0.8,0.4,0.4,0.9-0.6c0.7-1.2,0.4-0.3,0.8-0.5c0.1-0.1,0.6-0.8,0.7-0.9c0.3-0.6-0.2,0.3,1-0.9
								c1.4-1.4,0.2-0.4,1.9-1.8c1.4-1.2,2.7-2.4,4-3.6c4.4-3.9,8.7-8,11.8-11.5c1.4-1.6,2.6-3.3,3.8-4.8c1.5-1.9,2.4-4.5,5-6.9
								c3.7-3.3,9.5-6.8,11.9-10.1c4.4-5.9,4-9.7,2.9-12.4c-0.2-0.5-0.4-0.9-0.5-1.5c0.9,0.2,0.3-0.3,0.5-0.4
								c-0.5,0,0.5-0.7,0.6-0.2c1-1.6,2.3-3.1,4.3-4.9c4.1-3.5,8.8-6.8,13.4-10.1c2.7-2,5.2-3.8,7.4-5.6
								c6.8-5.6,12.3-11.5,16.3-17.5c4.3-6.3,7.8-12.9,9.1-19.8c0.5-2.8,0.8-5.5,1.6-8.5c0.6-2.1,1.3-4.2,3-6.6
								c1.2-1.8,2.8-3.3,5.1-5.2c2.5-2.1,5.7-4.2,8.7-6.1c2.3-1.5,4.7-2.9,7.1-4.2c10.3-5.9,21.2-11.5,31.1-18
								C859.2,816.5,860.8,814.2,860.7,813.7z"/>
							<path id="XMLID_23_" fill="#FDBD6D" d="M970.1,804.8c0.5-0.7-0.8-1.3-2.7-0.4l0,0c-5.8,2.8-12.4,5.5-19.2,8.4
								c-8.9,3.8-18.4,8-27.3,12.8c-16.7,8.9-31.2,20.1-34.9,33.9c-2.2,8,1.3,13,2.1,19.6c0.1,0.8,0,1.3-0.8,2.3
								c-2.6,3.4-6.4,6.8-10.6,9.6c-3.9,2.6-8.3,5.1-13,7.6c-13.5,7-28.4,14-37.3,24.9c-1.9,2.4-3.4,4.7-4.4,7
								c-2.4,5.3-1.5,9.4,1.6,12.2c1.3,1.2,3.9,2.4,4.7,3.6c0.7,1,0.3,1.8,0.7,2.9c0.4,1.2,0.1,0.7,0,0.9c-0.4-0.1,1.3-0.5-0.6,0.7
								c-2.9,1.7-8.1,5.4-12.1,7.8c-5,3-10,6.1-14.8,9.3c-3.2,2.1-6.2,4.3-8.8,6.4c-2.6,2.1-5,4.3-6.9,6.5
								c-6.6,7.8-5.2,12.3-5.2,16.9c0,0.5,0,0.9,0,1.4c0.4,0.8-0.7-0.5-0.7,0.4c0,0.2,0,0.4-0.1,0.6c-0.1,0.4,0,1.7-0.4,1.4
								c-0.6-0.4-0.9,2.5-1,1.1c-0.4,0.7-0.9,1.4-1.4,2.1c0.1-1.1-1.2,1-1.8,1.5c0.3-0.8-1.5,1.2-2.2,1.8c-1.9,1.6-3.1,2.5-5.2,4.1
								c-19.8,14.8-42.5,26.6-63.6,40.5c-2,1.3-3.9,2.6-5.8,3.9c-10.9,7.5-21.2,15.5-31.6,23.5c-0.6,0.5-1.3,1-1.9,1.5
								c-10.8,8.4-22.1,16.5-32.7,24.8c-1.2,0.9-2.1,1.9-2.8,2.8c-3.4,4.4-0.7,8.4,5.6,5.9c11.6-4.6,22.3-11.9,32.7-19.7
								c10.2-7.6,20.2-15.6,30.2-23.1c0.8-0.6,1.6-1.1,2.3-1.7c19.5-14.2,41.3-26.4,61.3-39.3c16.3-10.5,36.7-23.8,43.8-36.3
								c2.2-3.9,2.9-7.1,3.5-10.1c0.2-1.1,0.3-2.3,0.5-3.4c0.1-0.7,0.2-1.3,0.3-2c0-0.2,0.1-0.4,0.1-0.7c-0.5-0.9,0.6,0,0.7-0.7
								c0.1-0.5,0.4-1.1,0.4-1.7c0.1-0.6,0,0.2,0.6-0.3c0.1-0.1,0.2-0.6,0.3-0.7c0-0.8,0.2,0.6,0.8-0.4c0.7-1.3,0.3-0.2,0.6-0.4
								c0.1-0.1,0.6-0.8,0.7-0.9c0.3-0.6-0.4,0.4,0.9-0.8c1.5-1.5,0.1-0.2,1.9-1.7c1.4-1.2,2.7-2.4,4.1-3.6c4.3-3.8,9-7.8,12.4-11.2
								c1.6-1.6,2.9-3.2,4.3-4.7c1.8-1.9,3-4.4,5.7-6.8c3.9-3.4,9.3-6.9,11.6-10.5c4.1-6.3,2.9-10.3,0.7-12.9
								c-0.4-0.4-0.8-0.9-1-1.5c0.9,0.3,0.3-0.2,0.4-0.3c-0.7,0,0.5-0.7,0.5-0.1c0.9-1.7,2.2-3.3,4.3-5.1c4.2-3.6,9.1-7,14-10.3
								c2.8-2,5.5-3.8,7.9-5.6c7.2-5.5,13.4-11.6,18.1-17.7c4.9-6.5,8.8-13.4,9.5-20.4c0.3-2.9,0.1-5.7,0.6-8.7
								c0.4-2.2,0.8-4.4,2.4-6.9c1.2-1.9,2.7-3.5,5-5.5c2.5-2.2,5.8-4.5,8.9-6.4c2.4-1.5,4.9-3,7.3-4.4
								c10.7-6.2,21.9-11.9,32.1-18.7C968.1,807.8,969.8,805.5,970.1,804.8z"/>
							<path id="XMLID_21_" fill="#FDBD6D" d="M1079.4,795.9c0.7-0.9-0.6-1.7-2.6-0.7l0,0c-5.9,2.9-12.6,5.7-19.6,8.7
								c-9.1,3.9-18.8,8.3-27.8,13.1c-17.1,9.2-31.7,20.5-35,34.7c-1.8,8,1.9,12.9,2.9,19.6c0.1,0.8,0,1.3-0.8,2.4
								c-2.8,3.4-6.8,6.8-11,9.7c-4,2.7-8.5,5.2-13.3,7.7c-13.8,7.2-29,14.6-37.8,25.9c-1.9,2.5-3.3,4.9-4.3,7.2
								c-2.2,5.3-1.1,9.5,2.5,12.1c1.5,1.1,4.4,2.3,5.2,3.3c0.7,1,0.4,1.7,0.9,2.8c0.5,1.3,0.2,0.7,0,0.8c-0.5-0.2,1.6-0.6-0.5,0.5
								c-3,1.7-8.4,5.4-12.5,7.8c-5.1,3-10.2,6.2-15.1,9.5c-3.2,2.1-6.3,4.4-9,6.6c-2.6,2.2-5,4.5-6.8,6.8c-6.5,8.3-3.9,12.9-3,17.6
								c0.1,0.5,0.1,1,0.3,1.4c0.3,0.9-0.7-0.7-0.6,0.4c0,0.2,0.1,0.4,0,0.6c-0.1,0.4,0.2,1.8-0.2,1.4c-0.5-0.5-0.8,2.7-0.8,1.1
								c-0.4,0.7-0.8,1.4-1.3,2.2c0.2-1.3-1.1,1-1.7,1.5c0.5-1-1.5,1.3-2.1,1.9c-1.9,1.7-3.1,2.6-5.3,4.3
								c-20.1,15.4-43.4,27.4-64.9,41.5c-2,1.3-4,2.6-6,4c-11.2,7.7-21.6,15.9-32.2,24.2c-0.6,0.5-1.3,1-1.9,1.5
								c-11,8.6-22.5,16.9-33.4,25.4c-1.2,0.9-2.2,1.9-2.9,2.9c-3.3,4.4-0.3,8.4,6,5.9c11.9-4.7,22.7-12.3,33.2-20.2
								c10.4-7.8,20.4-16,30.7-23.7c0.8-0.6,1.6-1.2,2.4-1.8c19.9-14.5,42.1-26.7,62.4-40c16.3-10.7,37-24.5,42.8-37.4
								c1.8-4,2-7.2,2-10.2c0-1.1-0.1-2.2-0.2-3.3c0-0.6-0.1-1.3-0.1-2c0-0.2,0-0.4,0-0.7c-0.7-1,0.5,0.1,0.5-0.7
								c0-0.5,0.2-1.2,0.2-1.7c0-0.6-0.1,0.4,0.5-0.2c0.1-0.1,0.2-0.6,0.3-0.7c-0.1-0.8,0.1,0.8,0.7-0.3c0.7-1.4,0.2-0.1,0.5-0.3
								c0.1-0.1,0.6-0.9,0.7-0.9c0.3-0.6-0.6,0.6,0.8-0.8c1.6-1.6-0.1-0.1,1.8-1.7c1.4-1.2,2.8-2.4,4.1-3.6c4.3-3.7,9.2-7.7,12.9-11
								c1.7-1.5,3.2-3.1,4.8-4.5c2-1.9,3.6-4.4,6.4-6.7c4-3.4,9.2-7,11.3-10.9c3.8-6.8,1.7-10.9-1.4-13.4c-0.5-0.4-1.2-0.8-1.6-1.4
								c1,0.3,0.2-0.2,0.3-0.3c-0.8,0,0.5-0.8,0.4-0.1c0.9-1.8,2.1-3.4,4.3-5.4c4.3-3.8,9.4-7.2,14.5-10.6c3-2,5.8-3.8,8.3-5.6
								c7.5-5.5,14.6-11.6,19.8-17.9c5.6-6.7,9.8-13.8,9.9-21.1c0-3-0.5-5.9-0.4-9c0.1-2.3,0.4-4.6,1.8-7.2c1.1-2,2.6-3.7,5-5.9
								c2.6-2.3,6-4.7,9.2-6.8c2.5-1.6,5-3.1,7.6-4.6c11-6.4,22.6-12.3,33.1-19.4C1076.9,799.1,1078.7,796.9,1079.4,795.9z"/>
							<path id="XMLID_19_" fill="#FDBD6D" d="M1188.7,787c1-1.1-0.4-2-2.4-0.9l0,0c-6,3-12.8,5.8-20,9c-9.3,4-19.2,8.5-28.4,13.4
								c-17.5,9.4-32.2,20.9-35,35.5c-1.5,8,2.6,12.9,3.7,19.6c0.1,0.9,0,1.4-0.9,2.4c-2.9,3.5-7.2,6.9-11.5,9.8
								c-4.1,2.7-8.8,5.3-13.6,7.8c-14.2,7.5-29.6,15.2-38.4,26.9c-1.9,2.6-3.3,5.1-4.1,7.5c-2,5.4-0.6,9.5,3.3,12
								c1.6,1,4.8,2.1,5.7,3.1c0.8,0.9,0.6,1.6,1.1,2.6c0.7,1.3,0.2,0.6,0.1,0.7c-0.5-0.3,1.9-0.8-0.4,0.4
								c-3.1,1.6-8.8,5.4-12.9,7.8c-5.2,3-10.4,6.3-15.4,9.7c-3.2,2.2-6.4,4.5-9.1,6.9c-2.6,2.3-5,4.7-6.8,7.2
								c-6.3,8.8-2.7,13.5-0.8,18.2c0.2,0.5,0.3,1,0.5,1.5c0.5,1-0.7-0.8-0.4,0.3c0.1,0.2,0.1,0.4,0.1,0.7c0,0.4,0.4,2,0,1.4
								c-0.5-0.6-0.7,2.9-0.6,1.1c-0.3,0.8-0.7,1.5-1.2,2.3c0.4-1.5-1,1-1.6,1.6c0.6-1.2-1.4,1.4-2.1,2c-1.9,1.8-3.1,2.7-5.3,4.5
								c-20.3,16.1-44.3,28.2-66.3,42.6c-2,1.3-4.1,2.7-6.1,4.1c-11.4,7.9-22.1,16.4-32.8,24.9c-0.7,0.5-1.3,1-2,1.5
								c-11.2,8.9-22.9,17.3-34.2,25.9c-1.3,1-2.2,2-2.9,2.9c-3.2,4.5,0.1,8.5,6.4,6c12.2-4.8,23-12.6,33.8-20.7
								c10.5-8,20.6-16.4,31.1-24.3c0.8-0.6,1.6-1.2,2.4-1.8c20.2-14.8,42.9-27,63.6-40.7c16.3-10.8,37.2-25.2,41.9-38.5
								c1.4-4.1,1.1-7.3,0.5-10.3c-0.2-1.1-0.6-2.2-0.9-3.3c-0.2-0.6-0.4-1.3-0.5-1.9c0-0.2-0.1-0.5-0.1-0.6
								c-0.6-1.2,0.5,0.2,0.4-0.6c-0.1-0.5,0.1-1.2,0-1.7c-0.1-0.6-0.2,0.5,0.4-0.1c0.1-0.1,0.1-0.6,0.2-0.7c-0.2-0.9,0,1,0.5-0.2
								c0.7-1.5,0,0,0.3-0.1c0.1-0.1,0.6-0.9,0.6-0.9c0.3-0.6-0.8,0.8,0.7-0.7c1.7-1.7-0.3,0,1.8-1.7c1.4-1.2,2.8-2.4,4.2-3.5
								c4.3-3.5,9.5-7.5,13.5-10.7c1.8-1.4,3.5-3,5.3-4.4c2.3-1.9,4.3-4.3,7-6.5c4.2-3.4,9-7.2,11-11.2c3.5-7.2,0.6-11.5-3.6-13.9
								c-0.7-0.4-1.5-0.8-2.1-1.4c1.1,0.4,0.2-0.2,0.2-0.3c-0.9,0,0.4-0.8,0.3,0c0.8-1.9,1.9-3.6,4.2-5.6c4.4-3.9,9.8-7.4,15.1-10.8
								c3.1-2,6.1-3.8,8.7-5.6c7.9-5.4,15.8-11.6,21.6-18c6.3-6.9,10.7-14.3,10.2-21.7c-0.2-3.1-1.2-6-1.4-9.2
								c-0.2-2.4-0.1-4.8,1.3-7.6c1-2.1,2.5-3.9,5-6.2c2.6-2.4,6.1-5,9.4-7.1c2.5-1.7,5.1-3.3,7.8-4.8c11.3-6.7,23.4-12.7,34.1-20.1
								C1185.7,790.4,1187.7,788.2,1188.7,787z"/>
							<path id="XMLID_18_" fill="#FDBD6D" d="M1298.1,778.1c1.2-1.2-0.1-2.3-2.2-1.2l0,0c-6,3-13,6-20.4,9.3
								c-9.4,4.1-19.6,8.7-29,13.7c-17.8,9.6-32.8,21.4-35,36.4c-1.2,8,3.2,12.8,4.4,19.5c0.2,0.9,0,1.4-0.9,2.5
								c-3.1,3.5-7.5,7-12,9.8c-4.2,2.7-9,5.3-14,8c-14.5,7.7-30.3,15.8-38.9,27.9c-1.9,2.7-3.2,5.3-4,7.7c-1.7,5.4-0.2,9.6,4.2,12
								c1.8,1,5.2,2,6.2,2.8c0.9,0.9,0.7,1.5,1.3,2.5c0.8,1.4,0.3,0.6,0.2,0.7c-0.5-0.4,2.2-1-0.3,0.2c-3.2,1.5-9.2,5.5-13.3,7.8
								c-5.4,3.1-10.7,6.4-15.8,9.9c-3.3,2.3-6.5,4.7-9.2,7.1c-2.7,2.4-5,4.9-6.8,7.5c-6.2,9.3-1.4,14,1.4,18.9
								c0.3,0.5,0.5,1,0.8,1.5c0.6,1-0.7-0.9-0.3,0.3c0.1,0.2,0.2,0.4,0.2,0.7c0,0.4,0.6,2.1,0.2,1.5c-0.4-0.7-0.6,3.1-0.4,1.1
								c-0.3,0.8-0.6,1.6-1.1,2.4c0.5-1.6-1,1-1.5,1.6c0.8-1.3-1.4,1.4-2.1,2c-1.9,1.9-3.1,2.8-5.3,4.7
								c-20.6,16.7-45.2,29-67.6,43.7c-2.1,1.4-4.2,2.8-6.2,4.2c-11.7,8-22.5,16.8-33.4,25.5c-0.7,0.5-1.3,1.1-2,1.6
								c-11.4,9.1-23.3,17.7-34.9,26.5c-1.3,1-2.3,2-3,3c-3.2,4.6,0.4,8.6,6.8,6c12.5-5,23.4-12.9,34.3-21.3
								c10.6-8.2,20.9-16.8,31.6-24.8c0.8-0.6,1.6-1.2,2.5-1.8c20.5-15.1,43.7-27.3,64.7-41.4c16.3-10.9,37.5-26,40.9-39.6
								c1.1-4.2,0.2-7.5-1-10.5c-0.5-1.1-1-2.2-1.5-3.2c-0.3-0.6-0.6-1.2-0.9-1.9c-0.1-0.2-0.1-0.4-0.3-0.6
								c-0.8-1.2,0.4,0.4,0.2-0.5c-0.1-0.5-0.1-1.2-0.3-1.7c-0.2-0.7-0.3,0.6,0.3,0c0.1,0,0.1-0.6,0.1-0.7c-0.2-0.9-0.2,1.2,0.4,0
								c0.7-1.6-0.1,0.1,0.2,0c0.1-0.1,0.6-0.9,0.6-0.9c0.2-0.6-0.9,0.9,0.6-0.6c1.8-1.8-0.5,0.2,1.8-1.7c1.4-1.2,2.8-2.4,4.2-3.5
								c4.3-3.4,9.7-7.3,14.1-10.4c2-1.4,3.9-2.9,5.7-4.2c2.6-1.9,4.9-4.2,7.7-6.4c4.3-3.5,8.9-7.3,10.7-11.6
								c3.2-7.7-0.6-12.1-5.8-14.4c-0.9-0.4-1.9-0.7-2.6-1.3c1.1,0.4,0.1-0.2,0.2-0.2c-1.1,0.1,0.4-0.8,0.3,0.1
								c0.7-2,1.8-3.8,4.2-5.9c4.5-4.1,10.1-7.6,15.6-11c3.2-2,6.3-3.8,9.2-5.7c8.3-5.3,16.9-11.6,23.4-18.2
								c6.9-7.1,11.7-14.7,10.6-22.3c-0.5-3.2-1.9-6.2-2.4-9.5c-0.4-2.5-0.5-5,0.7-7.9c1-2.2,2.4-4,4.9-6.5c2.6-2.5,6.2-5.2,9.6-7.5
								c2.6-1.7,5.3-3.4,8-5c11.6-6.9,24.1-13.2,35.2-20.8C1294.5,781.7,1296.7,779.5,1298.1,778.1z"/>
							<path id="XMLID_17_" fill="#FDBD6D" d="M1407.4,769.2c1.5-1.4,0.1-2.6-2-1.5l0,0c-6.1,3.1-13.2,6.2-20.8,9.6
								c-9.6,4.3-20,8.9-29.5,14.1c-18.2,9.9-33.3,21.8-35.1,37.2c-0.9,8,3.9,12.7,5.2,19.5c0.2,0.9,0.1,1.4-1,2.5
								c-3.3,3.6-7.9,7.1-12.4,9.9c-4.4,2.8-9.2,5.4-14.3,8.1c-14.9,8-30.9,16.4-39.5,28.9c-1.9,2.8-3.2,5.4-3.9,7.9
								c-1.5,5.4,0.2,9.7,5.1,11.9c1.9,0.9,5.7,1.8,6.7,2.6c1,0.8,0.8,1.4,1.4,2.4c1,1.5,0.4,0.6,0.3,0.6c-0.5-0.4,2.4-1.1-0.2,0.1
								c-3.2,1.5-9.5,5.5-13.7,7.8c-5.5,3.1-10.9,6.5-16.1,10.1c-3.3,2.3-6.6,4.8-9.4,7.4c-2.7,2.5-5.1,5.1-6.7,7.8
								c-6.1,9.8-0.2,14.6,3.6,19.5c0.4,0.5,0.7,1,1.1,1.6c0.8,1.1-0.7-1-0.2,0.2c0.1,0.2,0.2,0.4,0.3,0.7c0.1,0.4,0.8,2.2,0.4,1.5
								c-0.4-0.8-0.5,3.3-0.2,1c-0.2,0.8-0.6,1.7-1,2.5c0.6-1.8-0.9,1-1.4,1.6c0.9-1.5-1.4,1.5-2,2.1c-1.9,2-3.1,2.9-5.4,4.8
								c-20.8,17.3-46,29.7-69,44.7c-2.1,1.4-4.3,2.8-6.4,4.3c-11.9,8.2-22.9,17.2-34.1,26.2c-0.7,0.5-1.3,1.1-2,1.6
								c-11.6,9.3-23.7,18.1-35.7,27c-1.4,1-2.3,2-3,3.1c-3.1,4.6,0.8,8.7,7.2,6.1c12.7-5.1,23.8-13.3,34.8-21.8
								c10.8-8.4,21.1-17.2,32-25.4c0.8-0.6,1.7-1.2,2.5-1.9c20.9-15.4,44.5-27.5,65.9-42.1c16.3-11,37.8-26.7,40-40.7
								c0.7-4.3-0.7-7.6-2.5-10.6c-0.7-1.1-1.4-2.1-2.2-3.2c-0.4-0.6-0.9-1.2-1.3-1.9c-0.1-0.2-0.2-0.4-0.4-0.6
								c-1-1.2,0.4,0.5,0.1-0.4c-0.2-0.5-0.3-1.1-0.5-1.7c-0.3-0.7-0.4,0.7,0.2,0.1c0,0,0.1-0.7,0.1-0.8c-0.1-1.1-0.3,1.4,0.2,0.1
								c0.7-1.7-0.2,0.2,0,0.1c0,0,0.6-1,0.6-0.9c0.2-0.7-1.1,1.1,0.6-0.5c1.9-1.9-0.6,0.3,1.7-1.7c1.4-1.2,2.8-2.4,4.3-3.5
								c4.3-3.3,10-7.1,14.6-10.1c2.1-1.3,4.2-2.7,6.2-4.1c2.9-1.9,5.5-4.1,8.4-6.3c4.4-3.5,8.8-7.4,10.4-12
								c3-8.1-1.8-12.7-7.9-14.9c-1.1-0.4-2.3-0.7-3.2-1.3c1.2,0.5,0-0.1,0.1-0.2c-1.2,0.1,0.4-0.8,0.2,0.2c0.7-2.1,1.7-3.9,4.2-6.2
								c4.6-4.2,10.4-7.9,16.1-11.3c3.3-2,6.6-3.8,9.6-5.7c8.6-5.3,18.1-11.6,25.2-18.4c7.6-7.3,12.7-15.2,11-22.9
								c-0.7-3.3-2.5-6.4-3.4-9.7c-0.7-2.6-1-5.2,0.2-8.3c0.9-2.3,2.3-4.2,4.9-6.9c2.7-2.6,6.4-5.4,9.8-7.8c2.7-1.8,5.4-3.6,8.2-5.2
								c12-7.2,24.9-13.6,36.2-21.5C1403.3,773,1405.6,770.9,1407.4,769.2z"/>
							<path id="XMLID_16_" fill="#FDBD6D" d="M1516.7,760.3c1.7-1.6,0.3-2.9-1.9-1.8l0,0c-6.1,3.2-13.4,6.4-21.2,9.9
								c-9.8,4.4-20.4,9.1-30.1,14.4c-18.5,10.1-33.9,22.3-35.1,38c-0.6,8,4.5,12.7,6,19.5c0.2,0.9,0.1,1.4-1,2.6
								c-3.5,3.7-8.3,7.2-12.9,10c-4.5,2.8-9.5,5.5-14.6,8.2c-15.3,8.3-31.5,17-40,29.9c-1.9,2.9-3.1,5.6-3.7,8.1
								c-1.3,5.5,0.7,9.7,5.9,11.8c2.1,0.8,6.1,1.7,7.2,2.4c1.1,0.8,0.9,1.2,1.6,2.2c1.1,1.5,0.4,0.6,0.4,0.6
								c-0.5-0.5,2.7-1.3-0.1-0.1c-3.3,1.5-9.9,5.5-14,7.8c-5.7,3.1-11.1,6.6-16.4,10.4c-3.4,2.4-6.7,4.9-9.5,7.6
								c-2.7,2.6-5.1,5.3-6.7,8.2c-5.9,10.3,1,15.1,5.8,20.2c0.5,0.5,0.9,1.1,1.4,1.6c1,1.1-0.7-1.1-0.1,0.2
								c0.1,0.2,0.3,0.5,0.4,0.7c0.1,0.4,0.9,2.3,0.6,1.6c-0.3-0.9-0.4,3.5,0,1c-0.2,0.9-0.5,1.7-0.9,2.7c0.7-2-0.8,1-1.3,1.6
								c1.1-1.6-1.4,1.5-2,2.2c-2,2.1-3.1,3-5.4,5c-21.1,17.9-46.9,30.5-70.4,45.8c-2.2,1.4-4.3,2.9-6.5,4.3
								c-12.2,8.4-23.4,17.6-34.7,26.8c-0.7,0.6-1.4,1.1-2.1,1.7c-11.8,9.6-24.1,18.5-36.4,27.6c-1.4,1-2.4,2.1-3.1,3.1
								c-3,4.7,1.2,8.7,7.6,6.2c13-5.2,24.2-13.6,35.3-22.3c10.9-8.6,21.4-17.6,32.4-26c0.8-0.6,1.7-1.3,2.5-1.9
								c21.2-15.7,45.3-27.8,67-42.8c16.3-11.2,38.1-27.4,39-41.8c0.3-4.5-1.6-7.8-4-10.7c-0.9-1.1-1.9-2.1-2.8-3.2
								c-0.6-0.6-1.1-1.2-1.7-1.8c-0.2-0.2-0.3-0.4-0.5-0.6c-1.2-1.3,0.3,0.6-0.1-0.4c-0.3-0.5-0.5-1.1-0.7-1.7
								c-0.3-0.7-0.5,0.8,0.1,0.1c0,0,0-0.7,0-0.8c-0.3-1.1-0.4,1.6,0.1,0.2c0.7-1.8-0.3,0.3-0.1,0.3c0,0,0.6-1,0.6-0.9
								c0.2-0.7-1.3,1.3,0.5-0.5c2-2-0.8,0.4,1.7-1.6c1.4-1.2,2.8-2.4,4.3-3.5c4.3-3.2,10.2-6.9,15.2-9.8c2.2-1.3,4.5-2.6,6.7-4
								c3.2-1.9,6.2-4,9.1-6.2c4.6-3.5,8.6-7.5,10.1-12.3c2.7-8.6-2.9-13.4-10.1-15.5c-1.2-0.4-2.6-0.6-3.7-1.2c1.3,0.6,0-0.1,0-0.1
								c-1.3,0.1,0.3-0.9,0.1,0.2c0.6-2.2,1.6-4.1,4.2-6.4c4.7-4.3,10.7-8.1,16.7-11.5c3.4-2,6.9-3.8,10-5.7
								c9-5.2,19.3-11.7,26.9-18.6c8.2-7.5,13.6-15.6,11.4-23.6c-1-3.4-3.2-6.5-4.5-9.9c-1-2.6-1.5-5.4-0.4-8.6
								c0.8-2.4,2.2-4.4,4.9-7.2c2.7-2.8,6.5-5.7,10-8.1c2.7-1.9,5.6-3.7,8.4-5.4c12.3-7.5,25.6-14,37.2-22.2
								C1512.2,764.3,1514.6,762.2,1516.7,760.3z"/>
							<path id="XMLID_14_" fill="#FDBD6D" d="M1624.3,749.4c-29,15.4-86.1,32.6-87.4,63.8c-0.3,8,5.1,12.6,6.8,19.5
								c0.2,0.9,0.1,1.4-1.1,2.6c-3.7,3.7-8.7,7.2-13.4,10.1c-18.7,11.3-44.2,21.6-55.4,39.2c-6,9.4-5.1,17.2,3.2,20.1
								c2.2,0.8,6.6,1.5,7.7,2.1c1.2,0.7,1,1.1,1.8,2.1c1.3,1.5,0.5,0.5,0.5,0.5c-0.5-0.6,3-1.5,0-0.2c-3.4,1.4-10.2,5.5-14.4,7.8
								c-5.8,3.2-11.4,6.7-16.8,10.6c-6.6,4.7-13.1,10.3-16.3,16.4c-5.7,10.8,2.3,15.7,8,20.8c0.6,0.5,1.1,1.1,1.7,1.6
								c1.1,1.1-0.8-1.2,0.1,0.1c0.2,0.3,0.4,0.5,0.5,0.7c0.2,0.4,1.1,2.5,0.9,1.6c-0.3-1.1-0.2,3.7,0.2,1c-0.2,0.9-0.4,1.8-0.8,2.8
								c0.9-2.2-0.7,1-1.2,1.7c1.2-1.8-1.4,1.6-2,2.3c-2,2.2-3,3.1-5.5,5.2c-23.3,20.2-52.8,33.6-78.3,51.3
								c-13.2,9.1-25.2,19.2-37.4,29.2c-12,9.8-24.6,18.9-37.2,28.1c-8,5.8-3,12.6,4.9,9.4c13.3-5.3,24.6-14,35.8-22.9
								c11-8.8,21.6-18,32.9-26.6c22.2-16.9,47.7-29.5,70.7-45.4c16.3-11.3,38.4-28.2,38.1-42.9c-0.1-4.6-2.6-7.9-5.5-10.8
								c-1.1-1.1-2.3-2.1-3.5-3.1c-0.7-0.6-1.4-1.2-2-1.8c-0.2-0.2-0.4-0.4-0.6-0.6c-1.4-1.3,0.3,0.6-0.2-0.3
								c-0.3-0.6-0.6-1.1-1-1.7c-0.4-0.7-0.6,0.9,0.1,0.2c0,0,0-0.7-0.1-0.8c-0.5-1-0.6,1.8,0,0.3c0.7-1.9-0.4,0.4-0.3,0.4
								c0,0,0.6-1,0.5-1c0.1-0.7-1.5,1.4,0.4-0.4c2.1-2.1-1,0.5,1.7-1.6c1.4-1.2,2.9-2.3,4.4-3.4c4.2-3.1,10.5-6.7,15.7-9.5
								c11-5.8,24-12.2,26.7-22.6c2.4-9-4.1-14-12.3-16c-1.4-0.3-3-0.6-4.2-1.2c1.4,0.6-0.1-0.1-0.1-0.1c-1.5,0.2,0.3-0.9,0,0.3
								c0.5-2.3,1.5-4.2,4.2-6.7c7.6-7.1,18.6-12.4,27.7-17.4c19.5-10.7,46-27.2,40.4-43c-2.1-6.1-8.7-11.4-6.4-19.1
								c0.7-2.5,2.1-4.6,4.9-7.5c2.7-2.9,6.6-5.9,10.3-8.5c17.5-12.3,38.7-20.7,54.6-34.8C1628,749.7,1626.6,748.2,1624.3,749.4
								L1624.3,749.4z"/>
						</g>
					</g>
				</g>
				<g id="XMLID_5_">
					<defs>
						<path id="XMLID_2_" d="M802,860c-99,3-197,10-297,23c-171.6,21.9-334.2,36.6-505,75.2v41.8c0,0,1400,13.3,1400,0
							c0-6.9,0-64.2,0-117.9c-51.7-5.9-103-10.7-155-15.1C1097,855,950,857,802,860z"/>
					</defs>
					<clipPath id="XMLID_60_">
						<use xlink:href="#XMLID_2_"  overflow="visible"/>
					</clipPath>
					<g id="XMLID_3_" clip-path="url(#XMLID_60_)">
						<g id="XMLID_4_">
							<path id="XMLID_48_" fill="#E9A25A" d="M94.1,876.8c-6.8,3.1-13.4,5.1-20.1,7.6c-7.3,2.8-15.3,6.3-22.7,10.1
								c-13.8,7.1-27.9,16.7-34.6,27.2c-5.2,8.1-3.6,13.4-4.2,19.7c-0.6,6-7.3,12.5-17.9,17.4c-12.8,6-28.8,11.2-38.4,22.3
								c-4.4,5-5.3,9.2-5.3,12.8c0,3.1,1.5,5.8,0,9.5c-3.2,7.8-21.3,17.8-30.7,23.1c-15.5,8.7-31.1,16-46.6,24.1
								c-19.8,10.2-38.7,21.9-57.5,34.5c-10.5,7.1-21,14.2-31.4,21.5c-10.8,7.5-21.9,15.2-30.6,23.8c-3.9,3.9-3.7,7.8,2.4,5.4
								c19.4-7.5,39.5-22.9,57.3-35.3c16.9-11.7,35.1-23.9,52.2-33.7c28.5-16.2,61.2-29.9,87-51c12.8-10.4,17.4-19.5,16.6-27.1
								c-0.2-1.8-1.9-5.2,0.3-7.7c2.7-3.1,10.4-6,14.1-7.6c13.9-6.2,27-12.4,37.6-23.6c8.3-8.8,8.6-15.6,8.3-21.7
								c-0.4-6.9,1.8-13.5,15.2-22.2c8.1-5.3,16.6-9.3,24.9-13.6c8-4.1,16-8.6,23.9-13.1C96.2,878.1,96.8,875.6,94.1,876.8
								L94.1,876.8z"/>
							<path id="XMLID_47_" fill="#E9A25A" d="M203.7,867.7c-1.1,0.5-2.5,0.9-3.9,1.5l0,0c-5.4,2.3-10.9,4.1-16.4,6.2
								c-7.5,2.9-15.7,6.5-23.3,10.4c-14.2,7.3-28.3,17.1-34.7,28.1c-4.8,8.1-3,13.4-3.4,19.7c0,0.7-0.2,1.3-0.4,2
								c-1.2,3.1-3.7,6.2-7.3,9.1c-3,2.4-6.7,4.6-10.9,6.6c-10.9,5.2-24,9.9-33.4,18c-2,1.7-3.8,3.5-5.4,5.5
								c-4.1,5.1-4.8,9.2-4.4,12.7c0.2,1.8,1,3.4,1.2,5.2c0.1,1.2-0.1,2.5-0.5,3.9c-0.1,0.5-0.3,0.9-0.6,1.3c-0.3,0.5-0.6,1-1.2,1.7
								c-2.3,2.4-5.6,5.3-9.3,7.9c-4,2.8-8.3,5.5-12.4,7.9c-2.9,1.7-5.6,3.3-7.9,4.6c-2.4,1.4-4.8,2.8-7.1,4.2
								c-7.4,4.5-13.8,8.4-20.5,12.3c-0.7,0.4-1.3,0.7-2,1.2c-0.5,0.3-1.1,0.5-1.6,0.8c-0.3,0.2-0.5,0.3-0.8,0.5
								c-0.6,0.4-1.3,0.8-1.9,1.1c-0.8,0.3-1.6,1.1-2.4,1.3c-0.7,0.4-1.4,0.8-2.1,1.3c-0.7,0.2-1.6,0.9-2.5,1.3
								c-0.7,0.3-1.6,0.9-2.4,1.3c-1.6,0.9-3.2,1.8-4.9,2.7c-18.3,10.3-36.3,21.2-54.1,33c-1.6,1.1-3.3,2.2-4.9,3.3
								c-9.2,6.2-18.2,12.5-27.2,18.9c-0.6,0.4-1.1,0.8-1.7,1.2c-9.5,6.7-19.2,13.6-27.4,21c-0.8,0.8-1.7,1.5-2.4,2.3
								c-3.9,3.9-3.3,7.8,2.8,5.5c9.7-3.8,19.5-9.5,29.1-15.9c9.3-6.2,18.4-12.9,27.1-19.1c0.7-0.5,1.4-1,2.1-1.5
								c17.2-12,35.9-24.2,53.3-34.4c16.4-9.5,34.6-18.6,50.4-28.6c4.8-3,9.4-6.1,13.9-9.2c1.7-1.2,3.4-2.5,5.1-3.7
								c1-0.7,2-1.5,2.9-2.2c0.3-0.2,0.6-0.5,0.9-0.7c0.5-0.5,1.2-0.8,1.8-1.3c0.7-0.6,1.4-1.1,2.1-1.7c0.4-0.3,0.8-0.5,1.2-0.9
								c0.3-0.2,0.5-0.4,0.8-0.6c0.6-0.5,1.1-0.8,1.7-1.3c0.6-0.6,1.1-0.9,1.7-1.3c0.3-0.2,0.6-0.5,0.9-0.8c0.5-0.5,0.9-0.7,1.5-1.3
								c0.8-0.7,1.3-1.1,2.1-1.9c1.4-1.3,2.6-2.5,3.7-3.7c4.4-4.7,7.2-9.2,8.5-13.3c0.6-2,0.9-3.8,0.9-5.6c0-1.7-1.3-5.1,1-7.6
								c2.9-3.1,10.2-6.1,13.8-8c6-3.2,11.1-6.1,15.9-9.3c0.9-0.6,1.8-1.2,2.6-1.8c0.4-0.2,0.7-0.4,1-0.6c0.3-0.2,0.8-0.5,1.1-0.7
								c1.4-1.1,2.9-2.2,4.4-3.3c3.5-2.7,6.9-5.5,10.2-8.7c2-2,3.6-3.8,4.9-5.6c4.4-6.1,5.3-11.4,5.6-16.3
								c0.4-5.2,1.8-10.2,6.9-16.1c1.9-2.2,4.4-4.5,7.7-7c2-1.5,4.1-3,6.3-4.5c1.7-1.1,3.4-2.2,5.2-3.2c2.4-1.4,4.9-2.7,7.4-4
								c1.9-1,3.9-2,5.8-3c8.4-4.3,16.7-9,25-13.8C205.2,869.2,206,866.8,203.7,867.7z"/>
							<path id="XMLID_46_" fill="#E9A25A" d="M313.2,858.6c-0.9,0.3-2.3,0.6-3.7,1.2l0,0c-5.5,2.3-11.1,4.3-16.8,6.5
								c-7.7,3-16.1,6.7-23.9,10.8c-14.5,7.5-28.6,17.6-34.7,28.9c-4.3,8.1-2.4,13.3-2.6,19.7c0,0.7-0.2,1.3-0.5,2
								c-1.4,3.1-4.1,6.3-7.8,9.2c-3.1,2.4-6.9,4.7-11.2,6.7c-11.3,5.4-24.6,10.5-34,19c-2,1.8-3.7,3.7-5.2,5.7
								c-3.9,5.1-4.3,9.2-3.6,12.7c0.4,1.7,1.4,3.3,1.7,5c0.2,1.2-0.2,2.4-0.3,3.8c-0.1,0.6-0.2,0.9-0.5,1.2
								c-0.3,0.4-0.3,0.8-1.1,1.5c-2.4,2.3-6,5.3-9.7,7.9c-4.1,2.8-8.6,5.6-12.7,8.1c-2.9,1.8-5.7,3.4-8,4.9c-2.4,1.5-4.8,3-7,4.6
								c-7.3,5-12.6,9-18.3,12.9c-0.6,0.4-1.1,0.8-1.7,1.2c-0.3,0.4-1.1,0.3-1.5,0.8c-0.2,0.2-0.4,0.3-0.7,0.5
								c-0.6,0.4-1.1,1-1.7,1.2c-0.8,0.2-1.5,1.3-2.2,1.3c-0.7,0.5-1.3,0.9-2,1.4c-0.6,0.1-1.6,0.9-2.4,1.4
								c-0.5,0.1-1.6,0.9-2.4,1.4c-1.7,1-3.2,1.9-4.9,2.9c-18.5,11-37.2,22-55.4,34.1c-1.7,1.1-3.4,2.2-5,3.4
								c-9.4,6.4-18.6,13-27.8,19.6c-0.6,0.4-1.1,0.8-1.7,1.2c-9.7,6.9-19.6,14-28.1,21.5c-0.9,0.8-1.7,1.6-2.5,2.4
								c-3.8,4-2.9,7.9,3.2,5.5c10-3.9,19.9-9.9,29.6-16.4c9.4-6.4,18.7-13.3,27.6-19.7c0.7-0.5,1.4-1,2.1-1.5
								c17.5-12.3,36.6-24.6,54.5-35.1c16.4-9.7,34.9-19.4,49.5-29.7c4.5-3.2,8.5-6.2,12.4-9.4c1.5-1.2,3-2.4,4.4-3.7
								c0.9-0.7,1.7-1.5,2.5-2.2c0.3-0.2,0.5-0.5,0.8-0.7c0.4-0.6,1.1-0.7,1.6-1.2c0.6-0.6,1.3-1.1,1.8-1.7c0.3-0.4,0.7-0.4,1.1-0.8
								c0.2-0.2,0.5-0.4,0.7-0.7c0.5-0.5,1-0.6,1.6-1.2c0.6-0.7,1-0.8,1.5-1.2c0.3-0.2,0.6-0.6,0.9-0.8c0.5-0.5,0.7-0.6,1.4-1.2
								c0.9-0.9,1.1-1,2-1.9c1.4-1.2,2.6-2.5,3.8-3.7c4.4-4.6,7.4-9,9-13c0.8-1.9,1.1-3.7,1.4-5.5c0.3-1.8-0.7-5,1.6-7.5
								c3-3.2,10.1-6.2,13.5-8.3c5.7-3.6,9.9-6.8,13.7-9.8c0.7-0.6,1.4-1.1,2.1-1.8c0.5-0.1,0.6-0.4,0.9-0.6c0.1-0.2,0.7-0.6,1-0.6
								c1.4-1.2,2.8-2.3,4.4-3.6c3.6-2.8,7.3-5.7,10.7-9c2.1-2,3.9-3.8,5.3-5.6c4.8-6,6.4-11.4,7.4-16.5c1-5.4,2.8-10.7,7.2-16.7
								c1.7-2.3,3.8-4.7,6.7-7.3c1.8-1.6,3.6-3.2,5.8-4.9c1.6-1.2,3.3-2.3,5.2-3.6c2.4-1.5,5.1-3,7.6-4.4c2-1.1,4-2.2,6-3.2
								c8.7-4.6,17.5-9.4,26-14.5C314.3,860.3,315.2,858,313.2,858.6z"/>
							<path id="XMLID_45_" fill="#E9A25A" d="M422.8,849.6c-0.7,0.2-2,0.2-3.6,0.9l0,0c-5.6,2.4-11.3,4.5-17.2,6.8
								c-7.9,3.1-16.5,7-24.4,11.1c-14.9,7.8-29,18-34.7,29.7c-3.9,8.1-1.8,13.3-1.8,19.7c0,0.7-0.2,1.3-0.5,2.1
								c-1.6,3.2-4.5,6.4-8.3,9.2c-3.2,2.4-7.1,4.7-11.5,6.9c-11.7,5.7-25.3,11.1-34.5,20c-2,1.9-3.7,3.9-5.1,5.9
								c-3.6,5.1-3.8,9.2-2.7,12.6c0.5,1.6,1.8,3.2,2.2,4.8c0.3,1.2-0.1,2.3-0.2,3.6c0,0.7-0.2,0.8-0.4,1.2c-0.4,0.3,0,0.6-1,1.4
								c-2.6,2.2-6.3,5.3-10.1,7.8c-4.2,2.8-8.8,5.7-13.1,8.3c-3,1.8-5.8,3.6-8.1,5.1c-2.4,1.6-4.8,3.2-7,4.9
								c-7.2,5.4-11.4,9.5-16.1,13.6c-0.5,0.4-0.9,0.8-1.4,1.2c-0.2,0.5-1.1,0.2-1.3,0.7c-0.2,0.2-0.4,0.3-0.6,0.5
								c-0.5,0.4-0.9,1.1-1.5,1.2c-0.8,0.1-1.4,1.5-2,1.3c-0.6,0.5-1.3,1-1.9,1.5c-0.5-0.1-1.5,0.9-2.3,1.4c-0.4-0.1-1.6,1-2.3,1.5
								c-1.7,1.1-3.2,2-5,3.1c-18.7,11.6-38.1,22.7-56.8,35.1c-1.7,1.1-3.5,2.3-5.2,3.5c-9.7,6.6-19,13.4-28.4,20.2
								c-0.6,0.4-1.1,0.8-1.7,1.3c-9.9,7.2-20,14.4-28.9,22.1c-0.9,0.8-1.8,1.6-2.5,2.4c-3.7,4.1-2.6,8,3.6,5.6
								c10.3-4,20.3-10.2,30.1-17c9.6-6.6,18.9-13.7,28-20.2c0.7-0.5,1.4-1,2.2-1.5c17.9-12.6,37.4-24.9,55.6-35.8
								c16.4-9.8,35.2-20.1,48.5-30.8c4.1-3.3,7.6-6.4,10.9-9.5c1.3-1.2,2.5-2.4,3.8-3.6c0.7-0.7,1.4-1.4,2.2-2.2
								c0.2-0.2,0.5-0.5,0.7-0.7c0.2-0.6,1-0.6,1.5-1.1c0.5-0.6,1.1-1.1,1.6-1.7c0.3-0.4,0.6-0.3,1-0.7c0.2-0.2,0.4-0.5,0.6-0.7
								c0.4-0.6,0.9-0.4,1.5-1.1c0.7-0.8,0.9-0.7,1.4-1.1c0.2-0.2,0.6-0.6,0.8-0.8c0.5-0.5,0.5-0.4,1.3-1.2c1-1,0.9-0.9,2-1.9
								c1.4-1.2,2.6-2.5,3.8-3.7c4.4-4.5,7.7-8.8,9.6-12.7c0.9-1.8,1.4-3.6,1.9-5.4c0.5-1.8-0.1-4.9,2.3-7.4
								c3.1-3.2,10-6.3,13.2-8.7c5.4-4.1,8.7-7.4,11.5-10.3c0.5-0.6,1-1.1,1.6-1.7c0.6,0,0.5-0.4,0.8-0.5c0-0.2,0.7-0.6,0.9-0.5
								c1.3-1.3,2.7-2.5,4.4-3.8c3.7-2.9,7.6-5.9,11.3-9.2c2.2-2,4.1-3.8,5.7-5.6c5.2-6,7.6-11.5,9.2-16.7
								c1.7-5.6,3.8-11.1,7.6-17.3c1.5-2.4,3.2-4.8,5.7-7.5c1.6-1.7,3.2-3.4,5.2-5.2c1.5-1.3,3.2-2.5,5.2-3.9
								c2.4-1.6,5.2-3.2,7.9-4.7c2.1-1.2,4.1-2.3,6.2-3.4c9-4.9,18.2-9.9,27-15.2C423.3,851.5,424.3,849.2,422.8,849.6z"/>
							<path id="XMLID_44_" fill="#E9A25A" d="M532.3,840.5c-0.5,0-1.8-0.1-3.4,0.7l0,0c-5.6,2.5-11.5,4.7-17.6,7.1
								c-8.1,3.3-16.9,7.2-25,11.4c-15.3,8-29.4,18.4-34.8,30.6c-3.6,8.1-1.2,13.2-1.1,19.7c0,0.7-0.1,1.3-0.6,2.1
								c-1.8,3.2-4.8,6.4-8.7,9.3c-3.3,2.5-7.4,4.8-11.8,7c-12,5.9-25.9,11.7-35.1,21c-2,2-3.6,4-5,6.1c-3.4,5.2-3.4,9.3-1.8,12.5
								c0.7,1.5,2.2,3,2.7,4.5c0.3,1.1,0.2,2.2,0,3.5c0.2,0.8-0.2,0.8-0.4,1.1c-0.4,0.2,0.2,0.3-0.9,1.2c-2.6,2-6.7,5.3-10.5,7.8
								c-4.4,2.9-9,5.8-13.4,8.5c-3,1.9-5.9,3.7-8.3,5.4c-2.5,1.7-4.9,3.4-7,5.2c-7.1,5.9-10.1,10.1-13.9,14.3
								c-0.4,0.4-0.8,0.8-1.1,1.3c-0.1,0.5-1,0.1-1.2,0.6c-0.2,0.2-0.3,0.4-0.5,0.5c-0.4,0.4-0.7,1.2-1.3,1.2
								c-0.7,0-1.3,1.7-1.8,1.2c-0.6,0.5-1.2,1.1-1.8,1.6c-0.4-0.3-1.4,0.9-2.2,1.4c-0.2-0.2-1.5,1-2.3,1.5c-1.7,1.2-3.2,2.1-5,3.3
								c-18.9,12.3-39,23.5-58.1,36.2c-1.8,1.2-3.5,2.4-5.3,3.6c-9.9,6.8-19.5,13.8-29.1,20.9c-0.6,0.4-1.2,0.9-1.8,1.3
								c-10.1,7.4-20.4,14.8-29.6,22.6c-1,0.8-1.8,1.7-2.6,2.5c-3.6,4.1-2.2,8.1,4,5.6c10.6-4.1,20.7-10.6,30.6-17.5
								c9.7-6.8,19.2-14.1,28.5-20.8c0.7-0.5,1.5-1.1,2.2-1.6c18.2-12.9,38.2-25.2,56.8-36.5c16.4-10,35.5-20.8,47.6-31.9
								c3.7-3.4,6.7-6.5,9.4-9.6c1.1-1.2,2.1-2.4,3.1-3.6c0.6-0.7,1.2-1.4,1.8-2.1c0.2-0.2,0.4-0.5,0.6-0.7c0.1-0.7,0.9-0.5,1.3-1.1
								c0.4-0.6,1-1.1,1.4-1.7c0.3-0.4,0.5-0.2,1-0.6c0.2-0.1,0.4-0.5,0.6-0.7c0.3-0.6,0.8-0.2,1.3-0.9c0.7-0.9,0.7-0.6,1.2-0.9
								c0.2-0.2,0.6-0.7,0.8-0.8c0.4-0.5,0.3-0.2,1.3-1.1c1.1-1.1,0.8-0.7,2-1.8c1.4-1.2,2.7-2.5,3.9-3.7c4.4-4.3,8-8.6,10.1-12.4
								c1-1.8,1.7-3.5,2.4-5.2c0.7-1.8,0.5-4.8,3-7.2c3.3-3.2,9.8-6.4,12.8-9.1c5.2-4.5,7.5-8,9.4-10.8c0.3-0.5,0.7-1,1.1-1.7
								c0.6,0,0.5-0.3,0.7-0.5c-0.1-0.1,0.7-0.6,0.9-0.5c1.2-1.4,2.6-2.6,4.4-4.1c3.8-3.1,7.9-6.1,11.8-9.4c2.3-2,4.4-3.8,6.2-5.6
								c5.6-5.9,8.8-11.5,11-16.9c2.3-5.7,4.8-11.6,8-17.9c1.2-2.5,2.6-5,4.7-7.8c1.3-1.8,2.7-3.6,4.6-5.5c1.5-1.4,3.1-2.7,5.2-4.2
								c2.5-1.8,5.3-3.5,8.1-5.1c2.1-1.2,4.3-2.4,6.5-3.6c9.3-5.1,18.9-10.3,28-15.9C532.3,842.6,533.5,840.5,532.3,840.5z"/>
							<path id="XMLID_43_" fill="#E9A25A" d="M641.8,831.6c-0.2-0.2-1.5-0.4-3.2,0.4l0,0c-5.7,2.6-11.7,4.9-18,7.4
								c-8.3,3.4-17.3,7.4-25.6,11.8c-15.6,8.2-29.8,18.8-34.8,31.4c-3.2,8-0.6,13.2-0.3,19.7c0,0.8-0.1,1.3-0.6,2.2
								c-2,3.3-5.2,6.5-9.2,9.4c-3.5,2.5-7.6,4.9-12.1,7.1c-12.4,6.2-26.5,12.3-35.6,22c-2,2.1-3.6,4.2-4.8,6.4
								c-3.1,5.2-2.9,9.3-1,12.4c0.9,1.4,2.6,2.9,3.2,4.3c0.4,1.1,0,2.2,0.2,3.4c0.1,0.9-0.1,0.8-0.3,1.1c-0.4,0.2,0.5,0.1-0.8,1.1
								c-2.7,1.9-7,5.4-10.9,7.8c-4.5,2.9-9.3,5.9-13.8,8.7c-3,1.9-6,3.9-8.4,5.6c-2.5,1.8-4.9,3.6-7,5.5c-7,6.4-8.9,10.6-11.7,14.9
								c-0.3,0.4-0.6,0.9-0.9,1.3c0,0.6-1-0.1-1.1,0.6c-0.1,0.2-0.2,0.4-0.4,0.5c-0.4,0.4-0.5,1.3-1.1,1.3c-0.7-0.1-1.2,1.9-1.6,1.2
								c-0.5,0.6-1.1,1.1-1.7,1.7c-0.2-0.5-1.4,0.9-2.1,1.4c-0.1-0.4-1.5,1.1-2.3,1.6c-1.8,1.3-3.2,2.2-5.1,3.5
								c-19.1,12.9-39.9,24.3-59.5,37.3c-1.8,1.2-3.6,2.4-5.4,3.6c-10.2,6.9-19.9,14.2-29.7,21.6c-0.6,0.4-1.2,0.9-1.8,1.3
								c-10.3,7.7-20.8,15.2-30.4,23.2c-1,0.9-1.9,1.7-2.6,2.6c-3.6,4.2-1.8,8.1,4.4,5.7c10.8-4.2,21.1-10.9,31.2-18
								c9.8-7,19.4-14.5,28.9-21.4c0.7-0.5,1.5-1.1,2.2-1.6c18.5-13.2,39-25.5,57.9-37.2c16.4-10.1,35.8-21.5,46.6-33
								c3.3-3.5,5.7-6.7,7.9-9.7c0.8-1.2,1.7-2.3,2.5-3.5c0.5-0.7,0.9-1.4,1.4-2.1c0.2-0.2,0.3-0.5,0.5-0.7c-0.1-0.7,0.8-0.4,1.1-1
								c0.3-0.6,0.8-1.1,1.1-1.7c0.1-0.5,0.4-0.1,0.9-0.6c0.2-0.1,0.3-0.5,0.5-0.7c0.2-0.7,0.6,0,1.2-0.8c0.7-1,0.6-0.5,1.1-0.8
								c0.2-0.2,0.6-0.7,0.8-0.8c0.4-0.5,0.2-0.1,1.2-1c1.2-1.2,0.6-0.6,2-1.8c1.4-1.2,2.7-2.4,3.9-3.6c4.4-4.2,8.2-8.4,10.7-12.1
								c1.2-1.7,2-3.4,2.8-5.1c1-1.8,1.2-4.7,3.7-7.1c3.4-3.3,9.7-6.6,12.5-9.4c4.9-5,6.3-8.5,7.2-11.3c0.2-0.5,0.3-1,0.5-1.6
								c0.7,0.1,0.4-0.3,0.6-0.5c-0.3-0.1,0.6-0.6,0.8-0.4c1.2-1.5,2.5-2.8,4.4-4.4c3.9-3.2,8.2-6.4,12.4-9.7c2.5-2,4.7-3.8,6.6-5.6
								c6-5.8,9.9-11.5,12.7-17.1c3-5.9,5.8-12,8.4-18.6c1-2.6,2-5.2,3.6-8c1.1-1.9,2.2-3.8,4.1-5.9c1.4-1.5,3-2.9,5.1-4.5
								c2.5-1.9,5.5-3.7,8.3-5.4c2.2-1.3,4.4-2.6,6.7-3.8c9.7-5.4,19.7-10.7,29-16.6C641.3,833.9,642.6,831.6,641.8,831.6z"/>
							<path id="XMLID_42_" fill="#E9A25A" d="M751.2,822.6c0.1-0.4-1.3-0.7-3.1,0.1l0,0c-5.7,2.6-11.9,5.1-18.4,7.7
								c-8.5,3.5-17.7,7.6-26.1,12.1c-16,8.5-30.3,19.2-34.9,32.2c-2.8,8,0.1,13.1,0.5,19.6c0.1,0.8-0.1,1.3-0.7,2.2
								c-2.2,3.3-5.6,6.6-9.7,9.5c-3.6,2.5-7.8,5-12.4,7.3c-12.7,6.4-27.1,12.9-36.2,22.9c-2,2.2-3.5,4.4-4.7,6.6
								c-2.9,5.2-2.4,9.3-0.1,12.4c1,1.3,3.1,2.7,3.7,4c0.5,1.1,0.1,2.1,0.4,3.2c0.2,1,0,0.7-0.2,1c-0.4,0.1,0.8-0.1-0.8,0.9
								c-2.8,1.9-7.4,5.4-11.3,7.8c-4.7,2.9-9.5,6-14.1,8.9c-3.1,2-6,4-8.6,5.9c-2.5,1.9-4.9,3.9-6.9,5.9
								c-6.8,6.9-7.7,11.2-9.5,15.6c-0.2,0.4-0.4,0.9-0.6,1.3c0.1,0.6-1-0.2-1,0.5c-0.1,0.2-0.1,0.4-0.3,0.6
								c-0.3,0.4-0.3,1.5-0.9,1.3c-0.6-0.2-1.1,2.1-1.4,1.2c-0.5,0.6-1,1.2-1.6,1.8c-0.1-0.7-1.3,0.9-2,1.5c0.1-0.5-1.5,1.1-2.2,1.7
								c-1.8,1.4-3.1,2.3-5.1,3.7c-19.4,13.6-40.7,25.1-60.9,38.3c-1.9,1.2-3.7,2.5-5.6,3.7c-10.4,7.1-20.3,14.7-30.3,22.2
								c-0.6,0.5-1.2,0.9-1.8,1.4c-10.5,7.9-21.2,15.6-31.1,23.7c-1.1,0.9-2,1.8-2.7,2.7c-3.5,4.3-1.4,8.2,4.8,5.8
								c11.1-4.4,21.5-11.2,31.7-18.6c10-7.2,19.7-14.9,29.3-22c0.8-0.6,1.5-1.1,2.3-1.6c18.9-13.5,39.8-25.8,59-37.9
								c16.4-10.2,36.1-22.3,45.7-34.1c3-3.6,4.8-6.8,6.4-9.8c0.6-1.2,1.2-2.3,1.8-3.5c0.3-0.7,0.7-1.4,1-2.1
								c0.1-0.2,0.2-0.5,0.3-0.7c-0.2-0.8,0.7-0.2,1-0.9c0.2-0.6,0.6-1.1,0.9-1.7c0.1-0.5,0.2,0,0.8-0.5c0.2-0.1,0.3-0.5,0.5-0.7
								c0.2-0.7,0.5,0.2,1.1-0.7c0.7-1.1,0.5-0.4,0.9-0.7c0.2-0.1,0.6-0.7,0.8-0.8c0.4-0.6,0,0.1,1.1-1c1.3-1.3,0.4-0.5,1.9-1.8
								c1.4-1.2,2.7-2.4,4-3.6c4.4-4.1,8.5-8.2,11.3-11.8c1.3-1.7,2.3-3.3,3.3-4.9c1.2-1.8,1.8-4.6,4.3-7c3.6-3.3,9.6-6.7,12.2-9.8
								c4.6-5.4,5.2-9.1,5.1-11.8c0-0.5-0.1-1,0-1.6c0.8,0.1,0.4-0.3,0.6-0.4c-0.4-0.1,0.6-0.7,0.7-0.3c1.1-1.6,2.4-3,4.3-4.6
								c4-3.4,8.5-6.6,12.9-9.9c2.6-2,5-3.8,7-5.6c6.4-5.7,11.1-11.5,14.5-17.3c3.6-6.1,6.8-12.5,8.7-19.2c0.8-2.7,1.4-5.4,2.6-8.2
								c0.9-2,1.8-4,3.5-6.2c1.3-1.6,2.9-3.1,5.1-4.9c2.5-2,5.6-4,8.5-5.8c2.3-1.4,4.6-2.7,6.9-4c10-5.6,20.4-11.1,30.1-17.3
								C750.3,825.2,751.7,822.9,751.2,822.6z"/>
							<path id="XMLID_41_" fill="#E9A25A" d="M860.7,813.7c0.3-0.6-1.1-1-2.9-0.1l0,0c-5.8,2.7-12.2,5.3-18.8,8
								c-8.7,3.6-18.1,7.8-26.7,12.4c-16.4,8.7-30.7,19.6-34.9,33c-2.5,8,0.7,13,1.3,19.6c0.1,0.8-0.1,1.3-0.7,2.3
								c-2.4,3.3-6,6.7-10.1,9.5c-3.7,2.6-8.1,5-12.7,7.4c-13.1,6.7-27.8,13.5-36.7,23.9c-2,2.3-3.4,4.6-4.6,6.8
								c-2.6,5.3-2,9.4,0.7,12.3c1.2,1.3,3.5,2.6,4.2,3.8c0.6,1,0.2,1.9,0.5,3.1c0.3,1.1,0,0.7-0.1,0.9c-0.4,0,1-0.3-0.7,0.8
								c-2.9,1.8-7.7,5.4-11.7,7.8c-4.8,3-9.7,6.1-14.4,9.1c-3.1,2-6.1,4.1-8.7,6.1c-2.6,2-4.9,4.1-6.9,6.2
								c-6.7,7.4-6.4,11.8-7.3,16.2c-0.1,0.5-0.2,0.9-0.3,1.4c0.3,0.7-0.9-0.3-0.8,0.5c-0.1,0.2-0.1,0.4-0.2,0.6
								c-0.2,0.4-0.2,1.6-0.6,1.3c-0.6-0.3-1,2.3-1.2,1.2c-0.5,0.6-0.9,1.3-1.5,2c0-0.9-1.2,1-1.9,1.5c0.2-0.7-1.5,1.2-2.2,1.8
								c-1.8,1.5-3.1,2.4-5.2,3.9c-19.6,14.2-41.6,25.8-62.2,39.4c-1.9,1.3-3.8,2.5-5.7,3.8c-10.7,7.3-20.8,15.1-30.9,22.9
								c-0.6,0.5-1.2,0.9-1.9,1.4c-10.7,8.1-21.6,16-31.9,24.3c-1.1,0.9-2,1.8-2.7,2.7c-3.4,4.3-1.1,8.3,5.2,5.8
								c11.4-4.5,21.9-11.6,32.2-19.1c10.1-7.4,19.9-15.3,29.8-22.5c0.8-0.6,1.5-1.1,2.3-1.7c19.2-13.9,40.5-26.1,60.2-38.6
								c16.3-10.4,36.4-23,44.7-35.2c2.6-3.7,3.9-6.9,4.9-10c0.4-1.2,0.8-2.3,1.1-3.4c0.2-0.7,0.4-1.3,0.6-2
								c0.1-0.2,0.1-0.5,0.2-0.7c-0.4-0.9,0.7-0.1,0.8-0.8c0.1-0.5,0.6-1.1,0.7-1.7c0.1-0.5,0.1,0.1,0.7-0.4
								c0.1-0.1,0.3-0.6,0.4-0.7c0.1-0.8,0.4,0.4,0.9-0.6c0.7-1.2,0.4-0.3,0.8-0.5c0.1-0.1,0.6-0.8,0.7-0.9c0.3-0.6-0.2,0.3,1-0.9
								c1.4-1.4,0.2-0.4,1.9-1.8c1.4-1.2,2.7-2.4,4-3.6c4.4-3.9,8.7-8,11.8-11.5c1.4-1.6,2.6-3.3,3.8-4.8c1.5-1.9,2.4-4.5,5-6.9
								c3.7-3.3,9.5-6.8,11.9-10.1c4.4-5.9,4-9.7,2.9-12.4c-0.2-0.5-0.4-0.9-0.5-1.5c0.9,0.2,0.3-0.3,0.5-0.4
								c-0.5,0,0.5-0.7,0.6-0.2c1-1.6,2.3-3.1,4.3-4.9c4.1-3.5,8.8-6.8,13.4-10.1c2.7-2,5.2-3.8,7.4-5.6
								c6.8-5.6,12.3-11.5,16.3-17.5c4.3-6.3,7.8-12.9,9.1-19.8c0.5-2.8,0.8-5.5,1.6-8.5c0.6-2.1,1.3-4.2,3-6.6
								c1.2-1.8,2.8-3.3,5.1-5.2c2.5-2.1,5.7-4.2,8.7-6.1c2.3-1.5,4.7-2.9,7.1-4.2c10.3-5.9,21.2-11.5,31.1-18
								C859.2,816.5,860.8,814.2,860.7,813.7z"/>
							<path id="XMLID_40_" fill="#E9A25A" d="M970.1,804.8c0.5-0.7-0.8-1.3-2.7-0.4l0,0c-5.8,2.8-12.4,5.5-19.2,8.4
								c-8.9,3.8-18.4,8-27.3,12.8c-16.7,8.9-31.2,20.1-34.9,33.9c-2.2,8,1.3,13,2.1,19.6c0.1,0.8,0,1.3-0.8,2.3
								c-2.6,3.4-6.4,6.8-10.6,9.6c-3.9,2.6-8.3,5.1-13,7.6c-13.5,7-28.4,14-37.3,24.9c-1.9,2.4-3.4,4.7-4.4,7
								c-2.4,5.3-1.5,9.4,1.6,12.2c1.3,1.2,3.9,2.4,4.7,3.6c0.7,1,0.3,1.8,0.7,2.9c0.4,1.2,0.1,0.7,0,0.9c-0.4-0.1,1.3-0.5-0.6,0.7
								c-2.9,1.7-8.1,5.4-12.1,7.8c-5,3-10,6.1-14.8,9.3c-3.2,2.1-6.2,4.3-8.8,6.4c-2.6,2.1-5,4.3-6.9,6.5
								c-6.6,7.8-5.2,12.3-5.2,16.9c0,0.5,0,0.9,0,1.4c0.4,0.8-0.7-0.5-0.7,0.4c0,0.2,0,0.4-0.1,0.6c-0.1,0.4,0,1.7-0.4,1.4
								c-0.6-0.4-0.9,2.5-1,1.1c-0.4,0.7-0.9,1.4-1.4,2.1c0.1-1.1-1.2,1-1.8,1.5c0.3-0.8-1.5,1.2-2.2,1.8c-1.9,1.6-3.1,2.5-5.2,4.1
								c-19.8,14.8-42.5,26.6-63.6,40.5c-2,1.3-3.9,2.6-5.8,3.9c-10.9,7.5-21.2,15.5-31.6,23.5c-0.6,0.5-1.3,1-1.9,1.5
								c-10.8,8.4-22.1,16.5-32.7,24.8c-1.2,0.9-2.1,1.9-2.8,2.8c-3.4,4.4-0.7,8.4,5.6,5.9c11.6-4.6,22.3-11.9,32.7-19.7
								c10.2-7.6,20.2-15.6,30.2-23.1c0.8-0.6,1.6-1.1,2.3-1.7c19.5-14.2,41.3-26.4,61.3-39.3c16.3-10.5,36.7-23.8,43.8-36.3
								c2.2-3.9,2.9-7.1,3.5-10.1c0.2-1.1,0.3-2.3,0.5-3.4c0.1-0.7,0.2-1.3,0.3-2c0-0.2,0.1-0.4,0.1-0.7c-0.5-0.9,0.6,0,0.7-0.7
								c0.1-0.5,0.4-1.1,0.4-1.7c0.1-0.6,0,0.2,0.6-0.3c0.1-0.1,0.2-0.6,0.3-0.7c0-0.8,0.2,0.6,0.8-0.4c0.7-1.3,0.3-0.2,0.6-0.4
								c0.1-0.1,0.6-0.8,0.7-0.9c0.3-0.6-0.4,0.4,0.9-0.8c1.5-1.5,0.1-0.2,1.9-1.7c1.4-1.2,2.7-2.4,4.1-3.6c4.3-3.8,9-7.8,12.4-11.2
								c1.6-1.6,2.9-3.2,4.3-4.7c1.8-1.9,3-4.4,5.7-6.8c3.9-3.4,9.3-6.9,11.6-10.5c4.1-6.3,2.9-10.3,0.7-12.9
								c-0.4-0.4-0.8-0.9-1-1.5c0.9,0.3,0.3-0.2,0.4-0.3c-0.7,0,0.5-0.7,0.5-0.1c0.9-1.7,2.2-3.3,4.3-5.1c4.2-3.6,9.1-7,14-10.3
								c2.8-2,5.5-3.8,7.9-5.6c7.2-5.5,13.4-11.6,18.1-17.7c4.9-6.5,8.8-13.4,9.5-20.4c0.3-2.9,0.1-5.7,0.6-8.7
								c0.4-2.2,0.8-4.4,2.4-6.9c1.2-1.9,2.7-3.5,5-5.5c2.5-2.2,5.8-4.5,8.9-6.4c2.4-1.5,4.9-3,7.3-4.4
								c10.7-6.2,21.9-11.9,32.1-18.7C968.1,807.8,969.8,805.5,970.1,804.8z"/>
							<path id="XMLID_39_" fill="#E9A25A" d="M1079.4,795.9c0.7-0.9-0.6-1.7-2.6-0.7l0,0c-5.9,2.9-12.6,5.7-19.6,8.7
								c-9.1,3.9-18.8,8.3-27.8,13.1c-17.1,9.2-31.7,20.5-35,34.7c-1.8,8,1.9,12.9,2.9,19.6c0.1,0.8,0,1.3-0.8,2.4
								c-2.8,3.4-6.8,6.8-11,9.7c-4,2.7-8.5,5.2-13.3,7.7c-13.8,7.2-29,14.6-37.8,25.9c-1.9,2.5-3.3,4.9-4.3,7.2
								c-2.2,5.3-1.1,9.5,2.5,12.1c1.5,1.1,4.4,2.3,5.2,3.3c0.7,1,0.4,1.7,0.9,2.8c0.5,1.3,0.2,0.7,0,0.8c-0.5-0.2,1.6-0.6-0.5,0.5
								c-3,1.7-8.4,5.4-12.5,7.8c-5.1,3-10.2,6.2-15.1,9.5c-3.2,2.1-6.3,4.4-9,6.6c-2.6,2.2-5,4.5-6.8,6.8c-6.5,8.3-3.9,12.9-3,17.6
								c0.1,0.5,0.1,1,0.3,1.4c0.3,0.9-0.7-0.7-0.6,0.4c0,0.2,0.1,0.4,0,0.6c-0.1,0.4,0.2,1.8-0.2,1.4c-0.5-0.5-0.8,2.7-0.8,1.1
								c-0.4,0.7-0.8,1.4-1.3,2.2c0.2-1.3-1.1,1-1.7,1.5c0.5-1-1.5,1.3-2.1,1.9c-1.9,1.7-3.1,2.6-5.3,4.3
								c-20.1,15.4-43.4,27.4-64.9,41.5c-2,1.3-4,2.6-6,4c-11.2,7.7-21.6,15.9-32.2,24.2c-0.6,0.5-1.3,1-1.9,1.5
								c-11,8.6-22.5,16.9-33.4,25.4c-1.2,0.9-2.2,1.9-2.9,2.9c-3.3,4.4-0.3,8.4,6,5.9c11.9-4.7,22.7-12.3,33.2-20.2
								c10.4-7.8,20.4-16,30.7-23.7c0.8-0.6,1.6-1.2,2.4-1.8c19.9-14.5,42.1-26.7,62.4-40c16.3-10.7,37-24.5,42.8-37.4
								c1.8-4,2-7.2,2-10.2c0-1.1-0.1-2.2-0.2-3.3c0-0.6-0.1-1.3-0.1-2c0-0.2,0-0.4,0-0.7c-0.7-1,0.5,0.1,0.5-0.7
								c0-0.5,0.2-1.2,0.2-1.7c0-0.6-0.1,0.4,0.5-0.2c0.1-0.1,0.2-0.6,0.3-0.7c-0.1-0.8,0.1,0.8,0.7-0.3c0.7-1.4,0.2-0.1,0.5-0.3
								c0.1-0.1,0.6-0.9,0.7-0.9c0.3-0.6-0.6,0.6,0.8-0.8c1.6-1.6-0.1-0.1,1.8-1.7c1.4-1.2,2.8-2.4,4.1-3.6c4.3-3.7,9.2-7.7,12.9-11
								c1.7-1.5,3.2-3.1,4.8-4.5c2-1.9,3.6-4.4,6.4-6.7c4-3.4,9.2-7,11.3-10.9c3.8-6.8,1.7-10.9-1.4-13.4c-0.5-0.4-1.2-0.8-1.6-1.4
								c1,0.3,0.2-0.2,0.3-0.3c-0.8,0,0.5-0.8,0.4-0.1c0.9-1.8,2.1-3.4,4.3-5.4c4.3-3.8,9.4-7.2,14.5-10.6c3-2,5.8-3.8,8.3-5.6
								c7.5-5.5,14.6-11.6,19.8-17.9c5.6-6.7,9.8-13.8,9.9-21.1c0-3-0.5-5.9-0.4-9c0.1-2.3,0.4-4.6,1.8-7.2c1.1-2,2.6-3.7,5-5.9
								c2.6-2.3,6-4.7,9.2-6.8c2.5-1.6,5-3.1,7.6-4.6c11-6.4,22.6-12.3,33.1-19.4C1076.9,799.1,1078.7,796.9,1079.4,795.9z"/>
							<path id="XMLID_38_" fill="#E9A25A" d="M1188.7,787c1-1.1-0.4-2-2.4-0.9l0,0c-6,3-12.8,5.8-20,9c-9.3,4-19.2,8.5-28.4,13.4
								c-17.5,9.4-32.2,20.9-35,35.5c-1.5,8,2.6,12.9,3.7,19.6c0.1,0.9,0,1.4-0.9,2.4c-2.9,3.5-7.2,6.9-11.5,9.8
								c-4.1,2.7-8.8,5.3-13.6,7.8c-14.2,7.5-29.6,15.2-38.4,26.9c-1.9,2.6-3.3,5.1-4.1,7.5c-2,5.4-0.6,9.5,3.3,12
								c1.6,1,4.8,2.1,5.7,3.1c0.8,0.9,0.6,1.6,1.1,2.6c0.7,1.3,0.2,0.6,0.1,0.7c-0.5-0.3,1.9-0.8-0.4,0.4
								c-3.1,1.6-8.8,5.4-12.9,7.8c-5.2,3-10.4,6.3-15.4,9.7c-3.2,2.2-6.4,4.5-9.1,6.9c-2.6,2.3-5,4.7-6.8,7.2
								c-6.3,8.8-2.7,13.5-0.8,18.2c0.2,0.5,0.3,1,0.5,1.5c0.5,1-0.7-0.8-0.4,0.3c0.1,0.2,0.1,0.4,0.1,0.7c0,0.4,0.4,2,0,1.4
								c-0.5-0.6-0.7,2.9-0.6,1.1c-0.3,0.8-0.7,1.5-1.2,2.3c0.4-1.5-1,1-1.6,1.6c0.6-1.2-1.4,1.4-2.1,2c-1.9,1.8-3.1,2.7-5.3,4.5
								c-20.3,16.1-44.3,28.2-66.3,42.6c-2,1.3-4.1,2.7-6.1,4.1c-11.4,7.9-22.1,16.4-32.8,24.9c-0.7,0.5-1.3,1-2,1.5
								c-11.2,8.9-22.9,17.3-34.2,25.9c-1.3,1-2.2,2-2.9,2.9c-3.2,4.5,0.1,8.5,6.4,6c12.2-4.8,23-12.6,33.8-20.7
								c10.5-8,20.6-16.4,31.1-24.3c0.8-0.6,1.6-1.2,2.4-1.8c20.2-14.8,42.9-27,63.6-40.7c16.3-10.8,37.2-25.2,41.9-38.5
								c1.4-4.1,1.1-7.3,0.5-10.3c-0.2-1.1-0.6-2.2-0.9-3.3c-0.2-0.6-0.4-1.3-0.5-1.9c0-0.2-0.1-0.5-0.1-0.6
								c-0.6-1.2,0.5,0.2,0.4-0.6c-0.1-0.5,0.1-1.2,0-1.7c-0.1-0.6-0.2,0.5,0.4-0.1c0.1-0.1,0.1-0.6,0.2-0.7c-0.2-0.9,0,1,0.5-0.2
								c0.7-1.5,0,0,0.3-0.1c0.1-0.1,0.6-0.9,0.6-0.9c0.3-0.6-0.8,0.8,0.7-0.7c1.7-1.7-0.3,0,1.8-1.7c1.4-1.2,2.8-2.4,4.2-3.5
								c4.3-3.5,9.5-7.5,13.5-10.7c1.8-1.4,3.5-3,5.3-4.4c2.3-1.9,4.3-4.3,7-6.5c4.2-3.4,9-7.2,11-11.2c3.5-7.2,0.6-11.5-3.6-13.9
								c-0.7-0.4-1.5-0.8-2.1-1.4c1.1,0.4,0.2-0.2,0.2-0.3c-0.9,0,0.4-0.8,0.3,0c0.8-1.9,1.9-3.6,4.2-5.6c4.4-3.9,9.8-7.4,15.1-10.8
								c3.1-2,6.1-3.8,8.7-5.6c7.9-5.4,15.8-11.6,21.6-18c6.3-6.9,10.7-14.3,10.2-21.7c-0.2-3.1-1.2-6-1.4-9.2
								c-0.2-2.4-0.1-4.8,1.3-7.6c1-2.1,2.5-3.9,5-6.2c2.6-2.4,6.1-5,9.4-7.1c2.5-1.7,5.1-3.3,7.8-4.8c11.3-6.7,23.4-12.7,34.1-20.1
								C1185.7,790.4,1187.7,788.2,1188.7,787z"/>
							<path id="XMLID_37_" fill="#E9A25A" d="M1298.1,778.1c1.2-1.2-0.1-2.3-2.2-1.2l0,0c-6,3-13,6-20.4,9.3
								c-9.4,4.1-19.6,8.7-29,13.7c-17.8,9.6-32.8,21.4-35,36.4c-1.2,8,3.2,12.8,4.4,19.5c0.2,0.9,0,1.4-0.9,2.5
								c-3.1,3.5-7.5,7-12,9.8c-4.2,2.7-9,5.3-14,8c-14.5,7.7-30.3,15.8-38.9,27.9c-1.9,2.7-3.2,5.3-4,7.7c-1.7,5.4-0.2,9.6,4.2,12
								c1.8,1,5.2,2,6.2,2.8c0.9,0.9,0.7,1.5,1.3,2.5c0.8,1.4,0.3,0.6,0.2,0.7c-0.5-0.4,2.2-1-0.3,0.2c-3.2,1.5-9.2,5.5-13.3,7.8
								c-5.4,3.1-10.7,6.4-15.8,9.9c-3.3,2.3-6.5,4.7-9.2,7.1c-2.7,2.4-5,4.9-6.8,7.5c-6.2,9.3-1.4,14,1.4,18.9
								c0.3,0.5,0.5,1,0.8,1.5c0.6,1-0.7-0.9-0.3,0.3c0.1,0.2,0.2,0.4,0.2,0.7c0,0.4,0.6,2.1,0.2,1.5c-0.4-0.7-0.6,3.1-0.4,1.1
								c-0.3,0.8-0.6,1.6-1.1,2.4c0.5-1.6-1,1-1.5,1.6c0.8-1.3-1.4,1.4-2.1,2c-1.9,1.9-3.1,2.8-5.3,4.7
								c-20.6,16.7-45.2,29-67.6,43.7c-2.1,1.4-4.2,2.8-6.2,4.2c-11.7,8-22.5,16.8-33.4,25.5c-0.7,0.5-1.3,1.1-2,1.6
								c-11.4,9.1-23.3,17.7-34.9,26.5c-1.3,1-2.3,2-3,3c-3.2,4.6,0.4,8.6,6.8,6c12.5-5,23.4-12.9,34.3-21.3
								c10.6-8.2,20.9-16.8,31.6-24.8c0.8-0.6,1.6-1.2,2.5-1.8c20.5-15.1,43.7-27.3,64.7-41.4c16.3-10.9,37.5-26,40.9-39.6
								c1.1-4.2,0.2-7.5-1-10.5c-0.5-1.1-1-2.2-1.5-3.2c-0.3-0.6-0.6-1.2-0.9-1.9c-0.1-0.2-0.1-0.4-0.3-0.6
								c-0.8-1.2,0.4,0.4,0.2-0.5c-0.1-0.5-0.1-1.2-0.3-1.7c-0.2-0.7-0.3,0.6,0.3,0c0.1,0,0.1-0.6,0.1-0.7c-0.2-0.9-0.2,1.2,0.4,0
								c0.7-1.6-0.1,0.1,0.2,0c0.1-0.1,0.6-0.9,0.6-0.9c0.2-0.6-0.9,0.9,0.6-0.6c1.8-1.8-0.5,0.2,1.8-1.7c1.4-1.2,2.8-2.4,4.2-3.5
								c4.3-3.4,9.7-7.3,14.1-10.4c2-1.4,3.9-2.9,5.7-4.2c2.6-1.9,4.9-4.2,7.7-6.4c4.3-3.5,8.9-7.3,10.7-11.6
								c3.2-7.7-0.6-12.1-5.8-14.4c-0.9-0.4-1.9-0.7-2.6-1.3c1.1,0.4,0.1-0.2,0.2-0.2c-1.1,0.1,0.4-0.8,0.3,0.1
								c0.7-2,1.8-3.8,4.2-5.9c4.5-4.1,10.1-7.6,15.6-11c3.2-2,6.3-3.8,9.2-5.7c8.3-5.3,16.9-11.6,23.4-18.2
								c6.9-7.1,11.7-14.7,10.6-22.3c-0.5-3.2-1.9-6.2-2.4-9.5c-0.4-2.5-0.5-5,0.7-7.9c1-2.2,2.4-4,4.9-6.5c2.6-2.5,6.2-5.2,9.6-7.5
								c2.6-1.7,5.3-3.4,8-5c11.6-6.9,24.1-13.2,35.2-20.8C1294.5,781.7,1296.7,779.5,1298.1,778.1z"/>
							<path id="XMLID_36_" fill="#E9A25A" d="M1407.4,769.2c1.5-1.4,0.1-2.6-2-1.5l0,0c-6.1,3.1-13.2,6.2-20.8,9.6
								c-9.6,4.3-20,8.9-29.5,14.1c-18.2,9.9-33.3,21.8-35.1,37.2c-0.9,8,3.9,12.7,5.2,19.5c0.2,0.9,0.1,1.4-1,2.5
								c-3.3,3.6-7.9,7.1-12.4,9.9c-4.4,2.8-9.2,5.4-14.3,8.1c-14.9,8-30.9,16.4-39.5,28.9c-1.9,2.8-3.2,5.4-3.9,7.9
								c-1.5,5.4,0.2,9.7,5.1,11.9c1.9,0.9,5.7,1.8,6.7,2.6c1,0.8,0.8,1.4,1.4,2.4c1,1.5,0.4,0.6,0.3,0.6c-0.5-0.4,2.4-1.1-0.2,0.1
								c-3.2,1.5-9.5,5.5-13.7,7.8c-5.5,3.1-10.9,6.5-16.1,10.1c-3.3,2.3-6.6,4.8-9.4,7.4c-2.7,2.5-5.1,5.1-6.7,7.8
								c-6.1,9.8-0.2,14.6,3.6,19.5c0.4,0.5,0.7,1,1.1,1.6c0.8,1.1-0.7-1-0.2,0.2c0.1,0.2,0.2,0.4,0.3,0.7c0.1,0.4,0.8,2.2,0.4,1.5
								c-0.4-0.8-0.5,3.3-0.2,1c-0.2,0.8-0.6,1.7-1,2.5c0.6-1.8-0.9,1-1.4,1.6c0.9-1.5-1.4,1.5-2,2.1c-1.9,2-3.1,2.9-5.4,4.8
								c-20.8,17.3-46,29.7-69,44.7c-2.1,1.4-4.3,2.8-6.4,4.3c-11.9,8.2-22.9,17.2-34.1,26.2c-0.7,0.5-1.3,1.1-2,1.6
								c-11.6,9.3-23.7,18.1-35.7,27c-1.4,1-2.3,2-3,3.1c-3.1,4.6,0.8,8.7,7.2,6.1c12.7-5.1,23.8-13.3,34.8-21.8
								c10.8-8.4,21.1-17.2,32-25.4c0.8-0.6,1.7-1.2,2.5-1.9c20.9-15.4,44.5-27.5,65.9-42.1c16.3-11,37.8-26.7,40-40.7
								c0.7-4.3-0.7-7.6-2.5-10.6c-0.7-1.1-1.4-2.1-2.2-3.2c-0.4-0.6-0.9-1.2-1.3-1.9c-0.1-0.2-0.2-0.4-0.4-0.6
								c-1-1.2,0.4,0.5,0.1-0.4c-0.2-0.5-0.3-1.1-0.5-1.7c-0.3-0.7-0.4,0.7,0.2,0.1c0,0,0.1-0.7,0.1-0.8c-0.1-1.1-0.3,1.4,0.2,0.1
								c0.7-1.7-0.2,0.2,0,0.1c0,0,0.6-1,0.6-0.9c0.2-0.7-1.1,1.1,0.6-0.5c1.9-1.9-0.6,0.3,1.7-1.7c1.4-1.2,2.8-2.4,4.3-3.5
								c4.3-3.3,10-7.1,14.6-10.1c2.1-1.3,4.2-2.7,6.2-4.1c2.9-1.9,5.5-4.1,8.4-6.3c4.4-3.5,8.8-7.4,10.4-12
								c3-8.1-1.8-12.7-7.9-14.9c-1.1-0.4-2.3-0.7-3.2-1.3c1.2,0.5,0-0.1,0.1-0.2c-1.2,0.1,0.4-0.8,0.2,0.2c0.7-2.1,1.7-3.9,4.2-6.2
								c4.6-4.2,10.4-7.9,16.1-11.3c3.3-2,6.6-3.8,9.6-5.7c8.6-5.3,18.1-11.6,25.2-18.4c7.6-7.3,12.7-15.2,11-22.9
								c-0.7-3.3-2.5-6.4-3.4-9.7c-0.7-2.6-1-5.2,0.2-8.3c0.9-2.3,2.3-4.2,4.9-6.9c2.7-2.6,6.4-5.4,9.8-7.8c2.7-1.8,5.4-3.6,8.2-5.2
								c12-7.2,24.9-13.6,36.2-21.5C1403.3,773,1405.6,770.9,1407.4,769.2z"/>
							<path id="XMLID_35_" fill="#E9A25A" d="M1516.7,760.3c1.7-1.6,0.3-2.9-1.9-1.8l0,0c-6.1,3.2-13.4,6.4-21.2,9.9
								c-9.8,4.4-20.4,9.1-30.1,14.4c-18.5,10.1-33.9,22.3-35.1,38c-0.6,8,4.5,12.7,6,19.5c0.2,0.9,0.1,1.4-1,2.6
								c-3.5,3.7-8.3,7.2-12.9,10c-4.5,2.8-9.5,5.5-14.6,8.2c-15.3,8.3-31.5,17-40,29.9c-1.9,2.9-3.1,5.6-3.7,8.1
								c-1.3,5.5,0.7,9.7,5.9,11.8c2.1,0.8,6.1,1.7,7.2,2.4c1.1,0.8,0.9,1.2,1.6,2.2c1.1,1.5,0.4,0.6,0.4,0.6
								c-0.5-0.5,2.7-1.3-0.1-0.1c-3.3,1.5-9.9,5.5-14,7.8c-5.7,3.1-11.1,6.6-16.4,10.4c-3.4,2.4-6.7,4.9-9.5,7.6
								c-2.7,2.6-5.1,5.3-6.7,8.2c-5.9,10.3,1,15.1,5.8,20.2c0.5,0.5,0.9,1.1,1.4,1.6c1,1.1-0.7-1.1-0.1,0.2
								c0.1,0.2,0.3,0.5,0.4,0.7c0.1,0.4,0.9,2.3,0.6,1.6c-0.3-0.9-0.4,3.5,0,1c-0.2,0.9-0.5,1.7-0.9,2.7c0.7-2-0.8,1-1.3,1.6
								c1.1-1.6-1.4,1.5-2,2.2c-2,2.1-3.1,3-5.4,5c-21.1,17.9-46.9,30.5-70.4,45.8c-2.2,1.4-4.3,2.9-6.5,4.3
								c-12.2,8.4-23.4,17.6-34.7,26.8c-0.7,0.6-1.4,1.1-2.1,1.7c-11.8,9.6-24.1,18.5-36.4,27.6c-1.4,1-2.4,2.1-3.1,3.1
								c-3,4.7,1.2,8.7,7.6,6.2c13-5.2,24.2-13.6,35.3-22.3c10.9-8.6,21.4-17.6,32.4-26c0.8-0.6,1.7-1.3,2.5-1.9
								c21.2-15.7,45.3-27.8,67-42.8c16.3-11.2,38.1-27.4,39-41.8c0.3-4.5-1.6-7.8-4-10.7c-0.9-1.1-1.9-2.1-2.8-3.2
								c-0.6-0.6-1.1-1.2-1.7-1.8c-0.2-0.2-0.3-0.4-0.5-0.6c-1.2-1.3,0.3,0.6-0.1-0.4c-0.3-0.5-0.5-1.1-0.7-1.7
								c-0.3-0.7-0.5,0.8,0.1,0.1c0,0,0-0.7,0-0.8c-0.3-1.1-0.4,1.6,0.1,0.2c0.7-1.8-0.3,0.3-0.1,0.3c0,0,0.6-1,0.6-0.9
								c0.2-0.7-1.3,1.3,0.5-0.5c2-2-0.8,0.4,1.7-1.6c1.4-1.2,2.8-2.4,4.3-3.5c4.3-3.2,10.2-6.9,15.2-9.8c2.2-1.3,4.5-2.6,6.7-4
								c3.2-1.9,6.2-4,9.1-6.2c4.6-3.5,8.6-7.5,10.1-12.3c2.7-8.6-2.9-13.4-10.1-15.5c-1.2-0.4-2.6-0.6-3.7-1.2c1.3,0.6,0-0.1,0-0.1
								c-1.3,0.1,0.3-0.9,0.1,0.2c0.6-2.2,1.6-4.1,4.2-6.4c4.7-4.3,10.7-8.1,16.7-11.5c3.4-2,6.9-3.8,10-5.7
								c9-5.2,19.3-11.7,26.9-18.6c8.2-7.5,13.6-15.6,11.4-23.6c-1-3.4-3.2-6.5-4.5-9.9c-1-2.6-1.5-5.4-0.4-8.6
								c0.8-2.4,2.2-4.4,4.9-7.2c2.7-2.8,6.5-5.7,10-8.1c2.7-1.9,5.6-3.7,8.4-5.4c12.3-7.5,25.6-14,37.2-22.2
								C1512.2,764.3,1514.6,762.2,1516.7,760.3z"/>
							<path id="XMLID_34_" fill="#E9A25A" d="M1624.3,749.4c-29,15.4-86.1,32.6-87.4,63.8c-0.3,8,5.1,12.6,6.8,19.5
								c0.2,0.9,0.1,1.4-1.1,2.6c-3.7,3.7-8.7,7.2-13.4,10.1c-18.7,11.3-44.2,21.6-55.4,39.2c-6,9.4-5.1,17.2,3.2,20.1
								c2.2,0.8,6.6,1.5,7.7,2.1c1.2,0.7,1,1.1,1.8,2.1c1.3,1.5,0.5,0.5,0.5,0.5c-0.5-0.6,3-1.5,0-0.2c-3.4,1.4-10.2,5.5-14.4,7.8
								c-5.8,3.2-11.4,6.7-16.8,10.6c-6.6,4.7-13.1,10.3-16.3,16.4c-5.7,10.8,2.3,15.7,8,20.8c0.6,0.5,1.1,1.1,1.7,1.6
								c1.1,1.1-0.8-1.2,0.1,0.1c0.2,0.3,0.4,0.5,0.5,0.7c0.2,0.4,1.1,2.5,0.9,1.6c-0.3-1.1-0.2,3.7,0.2,1c-0.2,0.9-0.4,1.8-0.8,2.8
								c0.9-2.2-0.7,1-1.2,1.7c1.2-1.8-1.4,1.6-2,2.3c-2,2.2-3,3.1-5.5,5.2c-23.3,20.2-52.8,33.6-78.3,51.3
								c-13.2,9.1-25.2,19.2-37.4,29.2c-12,9.8-24.6,18.9-37.2,28.1c-8,5.8-3,12.6,4.9,9.4c13.3-5.3,24.6-14,35.8-22.9
								c11-8.8,21.6-18,32.9-26.6c22.2-16.9,47.7-29.5,70.7-45.4c16.3-11.3,38.4-28.2,38.1-42.9c-0.1-4.6-2.6-7.9-5.5-10.8
								c-1.1-1.1-2.3-2.1-3.5-3.1c-0.7-0.6-1.4-1.2-2-1.8c-0.2-0.2-0.4-0.4-0.6-0.6c-1.4-1.3,0.3,0.6-0.2-0.3
								c-0.3-0.6-0.6-1.1-1-1.7c-0.4-0.7-0.6,0.9,0.1,0.2c0,0,0-0.7-0.1-0.8c-0.5-1-0.6,1.8,0,0.3c0.7-1.9-0.4,0.4-0.3,0.4
								c0,0,0.6-1,0.5-1c0.1-0.7-1.5,1.4,0.4-0.4c2.1-2.1-1,0.5,1.7-1.6c1.4-1.2,2.9-2.3,4.4-3.4c4.2-3.1,10.5-6.7,15.7-9.5
								c11-5.8,24-12.2,26.7-22.6c2.4-9-4.1-14-12.3-16c-1.4-0.3-3-0.6-4.2-1.2c1.4,0.6-0.1-0.1-0.1-0.1c-1.5,0.2,0.3-0.9,0,0.3
								c0.5-2.3,1.5-4.2,4.2-6.7c7.6-7.1,18.6-12.4,27.7-17.4c19.5-10.7,46-27.2,40.4-43c-2.1-6.1-8.7-11.4-6.4-19.1
								c0.7-2.5,2.1-4.6,4.9-7.5c2.7-2.9,6.6-5.9,10.3-8.5c17.5-12.3,38.7-20.7,54.6-34.8C1628,749.7,1626.6,748.2,1624.3,749.4
								L1624.3,749.4z"/>
						</g>
					</g>
				</g>
			</g>
		</g>
	</g>
</g>
</svg>
