<?xml version="1.0" encoding="utf-8"?>
<svg id="master-artboard" viewBox="0 0 1400 800" version="1.1" xmlns="http://www.w3.org/2000/svg" x="0px" y="0px" style="enable-background:new 0 0 1400 800;" width="1400px" height="800px">

<linearGradient id="SVGID_1_" gradientUnits="userSpaceOnUse" x1="700" y1="372.827" x2="700" y2="-33.4138">
		<stop offset="0" style="stop-color:#19CCCC"/>
		<stop offset="0.1741" style="stop-color:#069BA2"/>
		<stop offset="0.3014" style="stop-color:#05979E"/>
		<stop offset="0.4249" style="stop-color:#038B93"/>
		<stop offset="0.5363" style="stop-color:#007A82"/>
		<stop offset="1" style="stop-color:#024244"/>
	</linearGradient><path d="M 0 0 H 1400 V 800 H 0 V 0 Z" class="st0" style="fill: url('#SVGID_1_');" transform="matrix(1, 0, 0, 1, 0, -7.105427357601002e-15)"/><path class="st1" d="M1400,121.3v77.6c-92.9-83.6-261.2-85.9-371,4.1c-119.2,97.8-71.1,131.3-347,35C267.2,93.2,74.5,250.4,0,347.4&#10;&#9;&#9;V140c107.8-67.6,216.9-95.6,469.1-12.9c159.4,52.3,239-61,392.9,65.9C932.3,251,1145-80,1400,121.3z" style="opacity: 0.26; fill: rgb(70, 204, 198);" transform="matrix(1, 0, 0, 1, 0, -7.105427357601002e-15)"/><path class="st1" d="M1400,223.3v98.5c-148.4-133.1-302.7-44-357.9-7.2c-58.5,39-84,108-432-3C347.7,227.9,104,301.9,0,343.4v-94&#10;&#9;&#9;c235.5-89.4,665.2,23.7,752.6,50.2c163.1,49.4,139.8,54.2,325.7-61.3C1209.4,156.9,1335.8,184.7,1400,223.3z" style="opacity: 0.26; fill: rgb(70, 204, 198);" transform="matrix(1, 0, 0, 1, 0, -7.105427357601002e-15)"/><linearGradient id="SVGID_2_" gradientUnits="userSpaceOnUse" x1="700" y1="576.5888" x2="700" y2="211.0518">
		<stop offset="0" style="stop-color:#007A82"/>
		<stop offset="1" style="stop-color:#024244"/>
	</linearGradient><path class="st2" d="M1400,618.8V206.8c-39,14.8-78.9,30.2-94.4,37c-34.3,15-103,57-112.4,63s-171.7,30-234.1,69&#10;&#9;&#9;c-20.7,12.9-65.1,19.4-115.4,22.4c-48.3-3-91.1-9.5-110.9-22.4c-60-39-216-63-225-69s-75-48-108-63c-33-15-180-72-180-72s18,0-45-6&#10;&#9;&#9;s-159-18-159-18L0,159.5v459.3H1400z" style="fill: url('#SVGID_2_');" transform="matrix(1, 0, 0, 1, 0, -7.105427357601002e-15)"/><path class="st3" d="M545.5,584.9c71,15.2,144.6,40.5,219.5,79.1c266.3,136.9,464.6,76.2,635,11.1v-96.9&#10;&#9;&#9;c-71.1-23.9-152.5-69.2-199.1-70.4c-114-3-51.9-0.8,26.1-45.8c72.7-42,11.2-73.8-278-70c-141.5,1.9-264.2,55.8-102.2,58.8&#10;&#9;&#9;C972.9,453.2,681.1,544.5,545.5,584.9z" style="fill: rgb(6, 155, 162);" transform="matrix(1, 0, 0, 1, 0, -7.105427357601002e-15)"/><path class="st4" d="M652.2,612l-1.6,2.6c37.7,13.3,75.8,29.6,114.4,49.4c212.8,109.3,382,92.6,528.4,48.3&#10;&#9;&#9;c-7.8-1.7-21.9-6-35.4-10.3c-259.1-81,359.7-69.7-50.9-80.3c-100.9-2.6-69-9.3,41.4-30.7c111-21.5-10-23.8-84-28.5&#10;&#9;&#9;c-74-4.7-11.4-12.6,46.5-21.5c72-11-48.7-18.7-96-18.7s-46.1-26.8,43.3-50c90-23.3,38-24-14-24.7c-52-0.7-20-13.3,15.3-19.3&#10;&#9;&#9;c35.3-6,90.7-15.4,2-17.3c-93.2-2-119.1,3.8-79.2,7c80.5,6.5-25.5,12-95.5,10s-28.5-15.2,26-15c48,0.2,6-10-72.2-9.8&#10;&#9;&#9;c-57,0.2-45.8,10.8-15.8,10.8s11.8,18.8-80.8,16.8c-51.5-1.1-5.2,13,144.8,27.2c58.4,5.6,5,15-60,20s1,14,65,18s11,20-119,24&#10;&#9;&#9;s-38.7,15.3,84,28c108.5,11.2-22.4,18-187.3,13.7c-164.9-4.4,35.2,23.4,110,38C963.7,615.7,652.2,612,652.2,612z" style="fill: rgb(23, 188, 188);" transform="matrix(1, 0, 0, 1, 0, -7.105427357601002e-15)"/><path d="M 736.0999755859375 61.099998474121094 L 738.4000244140625 82.80000305175781 L 760.0999755859375 85.0999984741211 L 738.4000244140625 87.5 L 736.0999755859375 109.0999984741211 L 733.7000122070312 87.5 L 712.0999755859375 85.0999984741211 L 733.7000122070312 82.80000305175781 Z" class="st5" style="fill: rgb(255, 255, 255);" transform="matrix(1, 0, 0, 1, 0, -7.105427357601002e-15)"/><path d="M 382.3999938964844 161.39999389648438 L 384.29998779296875 178.6999969482422 L 401.6000061035156 180.60000610351562 L 384.29998779296875 182.5 L 382.3999938964844 199.8000030517578 L 380.6000061035156 182.5 L 363.29998779296875 180.60000610351562 L 380.6000061035156 178.6999969482422 Z" class="st5" style="fill: rgb(255, 255, 255);" transform="matrix(1, 0, 0, 1, 0, -7.105427357601002e-15)"/><path d="M 1232.199951171875 154.8000030517578 L 1234.0999755859375 172.10000610351562 L 1251.4000244140625 174 L 1234.0999755859375 175.89999389648438 L 1232.199951171875 193.10000610351562 L 1230.300048828125 175.89999389648438 L 1213 174 L 1230.300048828125 172.10000610351562 Z" class="st5" style="fill: rgb(255, 255, 255);" transform="matrix(1, 0, 0, 1, 0, -7.105427357601002e-15)"/><path d="M 1164.199951171875 98.5999984741211 L 1165.5 110.19999694824219 L 1177.0999755859375 111.5 L 1165.5 112.69999694824219 L 1164.199951171875 124.30000305175781 L 1163 112.69999694824219 L 1151.4000244140625 111.5 L 1163 110.19999694824219 Z" class="st5" style="fill: rgb(255, 255, 255);" transform="matrix(1, 0, 0, 1, 0, -7.105427357601002e-15)"/><path d="M 920.7000122070312 41.5 L 921.7999877929688 51.599998474121094 L 932 52.70000076293945 L 921.7999877929688 53.79999923706055 L 920.7000122070312 64 L 919.5999755859375 53.79999923706055 L 909.5 52.70000076293945 L 919.5999755859375 51.599998474121094 Z" class="st5" style="fill: rgb(255, 255, 255);" transform="matrix(1, 0, 0, 1, 0, -7.105427357601002e-15)"/><path d="M 1299.800048828125 36 L 1301.5999755859375 52.400001525878906 L 1318 54.20000076293945 L 1301.5999755859375 56 L 1299.800048828125 72.4000015258789 L 1298 56 L 1281.5999755859375 54.20000076293945 L 1298 52.400001525878906 Z" class="st5" style="fill: rgb(255, 255, 255);" transform="matrix(1, 0, 0, 1, 0, -7.105427357601002e-15)"/><path d="M 1073.199951171875 275.3999938964844 L 1074 282.5 L 1081 283.20001220703125 L 1074 284 L 1073.199951171875 291 L 1072.5 284 L 1065.4000244140625 283.20001220703125 L 1072.5 282.5 Z" class="st5" style="fill: rgb(255, 255, 255);" transform="matrix(1, 0, 0, 1, 0, -7.105427357601002e-15)"/><path d="M 1295.199951171875 183.6999969482422 L 1295.5999755859375 187.10000610351562 L 1299 187.5 L 1295.5999755859375 187.8000030517578 L 1295.199951171875 191.1999969482422 L 1294.9000244140625 187.8000030517578 L 1291.4000244140625 187.5 L 1294.9000244140625 187.10000610351562 Z" class="st5" style="fill: rgb(255, 255, 255);" transform="matrix(1, 0, 0, 1, 0, -7.105427357601002e-15)"/><path d="M 996.2000122070312 172.10000610351562 L 997.5999755859375 185 L 1010.5999755859375 186.39999389648438 L 997.5999755859375 187.89999389648438 L 996.2000122070312 200.8000030517578 L 994.7999877929688 187.89999389648438 L 981.9000244140625 186.39999389648438 L 994.7999877929688 185 Z" class="st5" style="fill: rgb(255, 255, 255);" transform="matrix(1, 0, 0, 1, 0, -7.105427357601002e-15)"/><path d="M 604.4000244140625 264 L 605.0999755859375 270.8999938964844 L 612 271.6000061035156 L 605.0999755859375 272.29998779296875 L 604.4000244140625 279.20001220703125 L 603.7000122070312 272.29998779296875 L 596.7999877929688 271.6000061035156 L 603.7000122070312 270.8999938964844 Z" class="st5" style="fill: rgb(255, 255, 255);" transform="matrix(1, 0, 0, 1, 0, -7.105427357601002e-15)"/><path d="M 905.5999755859375 343 L 906.7000122070312 353.29998779296875 L 917 354.3999938964844 L 906.7000122070312 355.5 L 905.5999755859375 365.79998779296875 L 904.5 355.5 L 894.2000122070312 354.3999938964844 L 904.5 353.29998779296875 Z" class="st5" style="fill: rgb(255, 255, 255);" transform="matrix(1, 0, 0, 1, 0, -7.105427357601002e-15)"/><path d="M 1022.4000244140625 280.29998779296875 L 1024.0999755859375 295.8999938964844 L 1039.699951171875 297.6000061035156 L 1024.0999755859375 299.29998779296875 L 1022.4000244140625 314.8999938964844 L 1020.7000122070312 299.29998779296875 L 1005.0999755859375 297.6000061035156 L 1020.7000122070312 295.8999938964844 Z" class="st5" style="fill: rgb(255, 255, 255);" transform="matrix(1, 0, 0, 1, 0, -7.105427357601002e-15)"/><path d="M 867.4000244140625 224.39999389648438 L 868.7000122070312 236.6999969482422 L 881 238 L 868.7000122070312 239.39999389648438 L 867.4000244140625 251.6999969482422 L 866 239.39999389648438 L 853.7000122070312 238 L 866 236.6999969482422 Z" class="st5" style="fill: rgb(255, 255, 255);" transform="matrix(1, 0, 0, 1, 0, -7.105427357601002e-15)"/><path d="M 203.39999389648438 65.80000305175781 L 204.8000030517578 78.80000305175781 L 217.6999969482422 80.19999694824219 L 204.8000030517578 81.5999984741211 L 203.39999389648438 94.5 L 202 81.5999984741211 L 189 80.19999694824219 L 202 78.80000305175781 Z" class="st5" style="fill: rgb(255, 255, 255);" transform="matrix(1, 0, 0, 1, 0, -7.105427357601002e-15)"/><path d="M 745 258.29998779296875 L 746.4000244140625 271.29998779296875 L 759.2999877929688 272.70001220703125 L 746.4000244140625 274.1000061035156 L 745 287 L 743.5999755859375 274.1000061035156 L 730.5999755859375 272.70001220703125 L 743.5999755859375 271.29998779296875 Z" class="st5" style="fill: rgb(255, 255, 255);" transform="matrix(1, 0, 0, 1, 0, -7.105427357601002e-15)"/><path d="M 506.5 157.10000610351562 L 507.70001220703125 168 L 518.5999755859375 169.1999969482422 L 507.70001220703125 170.39999389648438 L 506.5 181.3000030517578 L 505.29998779296875 170.39999389648438 L 494.3999938964844 169.1999969482422 L 505.29998779296875 168 Z" class="st5" style="fill: rgb(255, 255, 255);" transform="matrix(1, 0, 0, 1, 0, -7.105427357601002e-15)"/><path d="M 857 299.5 A 4.5 4.5 0 0 1 852.5 304 A 4.5 4.5 0 0 1 848 299.5 A 4.5 4.5 0 0 1 852.5 295 A 4.5 4.5 0 0 1 857 299.5 Z" class="st5" style="fill: rgb(255, 255, 255);" transform="matrix(1, 0, 0, 1, 0, -7.105427357601002e-15)"/><path d="M 933 305.5 A 3.5 3.5 0 0 1 929.5 309 A 3.5 3.5 0 0 1 926 305.5 A 3.5 3.5 0 0 1 929.5 302 A 3.5 3.5 0 0 1 933 305.5 Z" class="st5" style="fill: rgb(255, 255, 255);" transform="matrix(1, 0, 0, 1, 0, -7.105427357601002e-15)"/><path d="M 918 237.5 A 4.5 4.5 0 0 1 913.5 242 A 4.5 4.5 0 0 1 909 237.5 A 4.5 4.5 0 0 1 913.5 233 A 4.5 4.5 0 0 1 918 237.5 Z" class="st5" style="fill: rgb(255, 255, 255);" transform="matrix(1, 0, 0, 1, 0, -7.105427357601002e-15)"/><path d="M 793 351.5 A 1.5 1.5 0 0 1 791.5 353 A 1.5 1.5 0 0 1 790 351.5 A 1.5 1.5 0 0 1 791.5 350 A 1.5 1.5 0 0 1 793 351.5 Z" class="st5" style="fill: rgb(255, 255, 255);" transform="matrix(1, 0, 0, 1, 0, -7.105427357601002e-15)"/><path d="M 811 289 A 3 3 0 0 1 808 292 A 3 3 0 0 1 805 289 A 3 3 0 0 1 808 286 A 3 3 0 0 1 811 289 Z" class="st5" style="fill: rgb(255, 255, 255);" transform="matrix(1, 0, 0, 1, 0, -7.105427357601002e-15)"/><path d="M 809 217 A 2 2 0 0 1 807 219 A 2 2 0 0 1 805 217 A 2 2 0 0 1 807 215 A 2 2 0 0 1 809 217 Z" class="st5" style="fill: rgb(255, 255, 255);" transform="matrix(1, 0, 0, 1, 0, -7.105427357601002e-15)"/><path d="M 761.700012 187 A 2.5 2.5 0 0 1 759.200012 189.5 A 2.5 2.5 0 0 1 756.700012 187 A 2.5 2.5 0 0 1 759.200012 184.5 A 2.5 2.5 0 0 1 761.700012 187 Z" class="st5" style="fill: rgb(255, 255, 255);" transform="matrix(1, 0, 0, 1, 0, -7.105427357601002e-15)"/><path d="M 723 199 A 3 3 0 0 1 720 202 A 3 3 0 0 1 717 199 A 3 3 0 0 1 720 196 A 3 3 0 0 1 723 199 Z" class="st5" style="fill: rgb(255, 255, 255);" transform="matrix(1, 0, 0, 1, 0, -7.105427357601002e-15)"/><path d="M 670 225 A 3 3 0 0 1 667 228 A 3 3 0 0 1 664 225 A 3 3 0 0 1 667 222 A 3 3 0 0 1 670 225 Z" class="st5" style="fill: rgb(255, 255, 255);" transform="matrix(1, 0, 0, 1, 0, -7.105427357601002e-15)"/><path d="M 543 234 A 3 3 0 0 1 540 237 A 3 3 0 0 1 537 234 A 3 3 0 0 1 540 231 A 3 3 0 0 1 543 234 Z" class="st5" style="fill: rgb(255, 255, 255);" transform="matrix(1, 0, 0, 1, 0, -7.105427357601002e-15)"/><path class="st5" d="M881,185c0,0-0.4,0-1,0s-1,0-1,0s0.4,0,1,0S881,185,881,185z" style="fill: rgb(255, 255, 255);" transform="matrix(1, 0, 0, 1, 0, -7.105427357601002e-15)"/><path d="M 996 251 A 4 4 0 0 1 992 255 A 4 4 0 0 1 988 251 A 4 4 0 0 1 992 247 A 4 4 0 0 1 996 251 Z" class="st5" style="fill: rgb(255, 255, 255);" transform="matrix(1, 0, 0, 1, 0, -7.105427357601002e-15)"/><path d="M 977 313.5 A 2.5 2.5 0 0 1 974.5 316 A 2.5 2.5 0 0 1 972 313.5 A 2.5 2.5 0 0 1 974.5 311 A 2.5 2.5 0 0 1 977 313.5 Z" class="st5" style="fill: rgb(255, 255, 255);" transform="matrix(1, 0, 0, 1, 0, -7.105427357601002e-15)"/><path d="M 878 137.5 A 4.5 4.5 0 0 1 873.5 142 A 4.5 4.5 0 0 1 869 137.5 A 4.5 4.5 0 0 1 873.5 133 A 4.5 4.5 0 0 1 878 137.5 Z" class="st5" style="fill: rgb(255, 255, 255);" transform="matrix(1, 0, 0, 1, 0, -7.105427357601002e-15)"/><path d="M 1100.599976 92.599998 A 3 3 0 0 1 1097.599976 95.599998 A 3 3 0 0 1 1094.599976 92.599998 A 3 3 0 0 1 1097.599976 89.599998 A 3 3 0 0 1 1100.599976 92.599998 Z" class="st5" style="fill: rgb(255, 255, 255);" transform="matrix(1, 0, 0, 1, 0, -7.105427357601002e-15)"/><path d="M 1157.599976 47.599998 A 3 3 0 0 1 1154.599976 50.599998 A 3 3 0 0 1 1151.599976 47.599998 A 3 3 0 0 1 1154.599976 44.599998 A 3 3 0 0 1 1157.599976 47.599998 Z" class="st5" style="fill: rgb(255, 255, 255);" transform="matrix(1, 0, 0, 1, 0, -7.105427357601002e-15)"/><path d="M 1102.099976 142.100006 A 3 3 0 0 1 1099.099976 145.100006 A 3 3 0 0 1 1096.099976 142.100006 A 3 3 0 0 1 1099.099976 139.100006 A 3 3 0 0 1 1102.099976 142.100006 Z" class="st5" style="fill: rgb(255, 255, 255);" transform="matrix(1, 0, 0, 1, 0, -7.105427357601002e-15)"/><path d="M 862.400012 376.799988 A 5.2 5.2 0 0 1 857.200012 381.999988 A 5.2 5.2 0 0 1 852.000012 376.799988 A 5.2 5.2 0 0 1 857.200012 371.599988 A 5.2 5.2 0 0 1 862.400012 376.799988 Z" class="st5" style="fill: rgb(255, 255, 255);" transform="matrix(1, 0, 0, 1, 0, -7.105427357601002e-15)"/><path d="M 866.699988 342.5 A 2.9 2.9 0 0 1 863.799988 345.4 A 2.9 2.9 0 0 1 860.899988 342.5 A 2.9 2.9 0 0 1 863.799988 339.6 A 2.9 2.9 0 0 1 866.699988 342.5 Z" class="st5" style="fill: rgb(255, 255, 255);" transform="matrix(1, 0, 0, 1, 0, -7.105427357601002e-15)"/><path d="M 1304.500049 121.900002 A 2.2 2.2 0 0 1 1302.300049 124.100002 A 2.2 2.2 0 0 1 1300.100049 121.900002 A 2.2 2.2 0 0 1 1302.300049 119.700001 A 2.2 2.2 0 0 1 1304.500049 121.900002 Z" class="st5" style="fill: rgb(255, 255, 255);" transform="matrix(1, 0, 0, 1, 0, -7.105427357601002e-15)"/><path d="M 1165.099976 199.100006 A 3 3 0 0 1 1162.099976 202.100006 A 3 3 0 0 1 1159.099976 199.100006 A 3 3 0 0 1 1162.099976 196.100006 A 3 3 0 0 1 1165.099976 199.100006 Z" class="st5" style="fill: rgb(255, 255, 255);" transform="matrix(1, 0, 0, 1, 0, -7.105427357601002e-15)"/><path d="M 1100.599976 227.600006 A 1.5 1.5 0 0 1 1099.099976 229.100006 A 1.5 1.5 0 0 1 1097.599976 227.600006 A 1.5 1.5 0 0 1 1099.099976 226.100006 A 1.5 1.5 0 0 1 1100.599976 227.600006 Z" class="st5" style="fill: rgb(255, 255, 255);" transform="matrix(1, 0, 0, 1, 0, -7.105427357601002e-15)"/><path d="M 440.600006 104.599998 A 4.5 4.5 0 0 1 436.100006 109.099998 A 4.5 4.5 0 0 1 431.600006 104.599998 A 4.5 4.5 0 0 1 436.100006 100.099998 A 4.5 4.5 0 0 1 440.600006 104.599998 Z" class="st5" style="fill: rgb(255, 255, 255);" transform="matrix(1, 0, 0, 1, 0, -7.105427357601002e-15)"/><path d="M 505.7 86.900002 A 6.2 6.2 0 0 1 499.5 93.100001 A 6.2 6.2 0 0 1 493.3 86.900002 A 6.2 6.2 0 0 1 499.5 80.700002 A 6.2 6.2 0 0 1 505.7 86.900002 Z" class="st5" style="fill: rgb(255, 255, 255);" transform="matrix(1, 0, 0, 1, 0, -7.105427357601002e-15)"/><path d="M 380 65 A 3.5 3.5 0 0 1 376.5 68.5 A 3.5 3.5 0 0 1 373 65 A 3.5 3.5 0 0 1 376.5 61.5 A 3.5 3.5 0 0 1 380 65 Z" class="st5" style="fill: rgb(255, 255, 255);" transform="matrix(1, 0, 0, 1, 0, -7.105427357601002e-15)"/><path d="M 259.099994 117.400002 A 3.7 3.7 0 0 1 255.399994 121.100002 A 3.7 3.7 0 0 1 251.699994 117.400002 A 3.7 3.7 0 0 1 255.399994 113.700001 A 3.7 3.7 0 0 1 259.099994 117.400002 Z" class="st5" style="fill: rgb(255, 255, 255);" transform="matrix(1, 0, 0, 1, 0, -7.105427357601002e-15)"/><path d="M 109.099998 68.599998 A 4.5 4.5 0 0 1 104.599998 73.099998 A 4.5 4.5 0 0 1 100.099998 68.599998 A 4.5 4.5 0 0 1 104.599998 64.099998 A 4.5 4.5 0 0 1 109.099998 68.599998 Z" class="st5" style="fill: rgb(255, 255, 255);" transform="matrix(1, 0, 0, 1, 0, -7.105427357601002e-15)"/><path class="st5" d="M406.1,215.6c0,1.7,0,3,0,3S406.1,217.3,406.1,215.6s0-3,0-3S406.1,213.9,406.1,215.6z" style="fill: rgb(255, 255, 255);" transform="matrix(1, 0, 0, 1, 0, -7.105427357601002e-15)"/><path d="M 626.599976 89.599998 A 1.5 1.5 0 0 1 625.099976 91.099998 A 1.5 1.5 0 0 1 623.599976 89.599998 A 1.5 1.5 0 0 1 625.099976 88.099998 A 1.5 1.5 0 0 1 626.599976 89.599998 Z" class="st5" style="fill: rgb(255, 255, 255);" transform="matrix(1, 0, 0, 1, 0, -7.105427357601002e-15)"/><path d="M 665.599976 295.100006 A 1.5 1.5 0 0 1 664.099976 296.600006 A 1.5 1.5 0 0 1 662.599976 295.100006 A 1.5 1.5 0 0 1 664.099976 293.600006 A 1.5 1.5 0 0 1 665.599976 295.100006 Z" class="st5" style="fill: rgb(255, 255, 255);" transform="matrix(1, 0, 0, 1, 0, -7.105427357601002e-15)"/><path d="M 857.499988 189.399994 A 2.2 2.2 0 0 1 855.299988 191.599994 A 2.2 2.2 0 0 1 853.099988 189.399994 A 2.2 2.2 0 0 1 855.299988 187.199994 A 2.2 2.2 0 0 1 857.499988 189.399994 Z" class="st5" style="fill: rgb(255, 255, 255);" transform="matrix(1, 0, 0, 1, 0, -7.105427357601002e-15)"/><path d="M 1014 83 A 2 2 0 0 1 1012 85 A 2 2 0 0 1 1010 83 A 2 2 0 0 1 1012 81 A 2 2 0 0 1 1014 83 Z" class="st6" style="fill: none; stroke: rgb(230, 230, 230); stroke-miterlimit: 10;" transform="matrix(1, 0, 0, 1, 0, -7.105427357601002e-15)"/><path d="M 800 34 A 2 2 0 0 1 798 36 A 2 2 0 0 1 796 34 A 2 2 0 0 1 798 32 A 2 2 0 0 1 800 34 Z" class="st6" style="fill: none; stroke: rgb(230, 230, 230); stroke-miterlimit: 10;" transform="matrix(1, 0, 0, 1, 0, -7.105427357601002e-15)"/><path d="M 683 136.5 A 2.5 2.5 0 0 1 680.5 139 A 2.5 2.5 0 0 1 678 136.5 A 2.5 2.5 0 0 1 680.5 134 A 2.5 2.5 0 0 1 683 136.5 Z" class="st6" style="fill: none; stroke: rgb(230, 230, 230); stroke-miterlimit: 10;" transform="matrix(1, 0, 0, 1, 0, -7.105427357601002e-15)"/><path d="M 552 47 A 3 3 0 0 1 549 50 A 3 3 0 0 1 546 47 A 3 3 0 0 1 549 44 A 3 3 0 0 1 552 47 Z" class="st6" style="fill: none; stroke: rgb(230, 230, 230); stroke-miterlimit: 10;" transform="matrix(1, 0, 0, 1, 0, -7.105427357601002e-15)"/><path d="M 1366.000049 45.400002 A 2.2 2.2 0 0 1 1363.800049 47.600002 A 2.2 2.2 0 0 1 1361.600049 45.400002 A 2.2 2.2 0 0 1 1363.800049 43.200001 A 2.2 2.2 0 0 1 1366.000049 45.400002 Z" class="st6" style="fill: none; stroke: rgb(230, 230, 230); stroke-miterlimit: 10;" transform="matrix(1, 0, 0, 1, 0, -7.105427357601002e-15)"/><path d="M 1130.500049 295.799988 A 2.2 2.2 0 0 1 1128.300049 297.999988 A 2.2 2.2 0 0 1 1126.100049 295.799988 A 2.2 2.2 0 0 1 1128.300049 293.599988 A 2.2 2.2 0 0 1 1130.500049 295.799988 Z" class="st6" style="fill: none; stroke: rgb(230, 230, 230); stroke-miterlimit: 10;" transform="matrix(1, 0, 0, 1, 0, -7.105427357601002e-15)"/><path d="M 720.999988 333.299988 A 2.2 2.2 0 0 1 718.799988 335.499988 A 2.2 2.2 0 0 1 716.599988 333.299988 A 2.2 2.2 0 0 1 718.799988 331.099988 A 2.2 2.2 0 0 1 720.999988 333.299988 Z" class="st6" style="fill: none; stroke: rgb(230, 230, 230); stroke-miterlimit: 10;" transform="matrix(1, 0, 0, 1, 0, -7.105427357601002e-15)"/><path d="M 944.999988 178.800003 A 1.2 1.2 0 0 1 943.799988 180.000003 A 1.2 1.2 0 0 1 942.599988 178.800003 A 1.2 1.2 0 0 1 943.799988 177.600003 A 1.2 1.2 0 0 1 944.999988 178.800003 Z" class="st6" style="fill: none; stroke: rgb(230, 230, 230); stroke-miterlimit: 10;" transform="matrix(1, 0, 0, 1, 0, -7.105427357601002e-15)"/><path d="M 969.999988 147.800003 A 1.2 1.2 0 0 1 968.799988 149.000003 A 1.2 1.2 0 0 1 967.599988 147.800003 A 1.2 1.2 0 0 1 968.799988 146.600003 A 1.2 1.2 0 0 1 969.999988 147.800003 Z" class="st6" style="fill: none; stroke: rgb(230, 230, 230); stroke-miterlimit: 10;" transform="matrix(1, 0, 0, 1, 0, -7.105427357601002e-15)"/><path class="st7" d="M1395.3,407.5c-3.8-4.1-9.2-15.2-9.5-16c0.3,1.5,9.4,45.4,3.9,46.2c-5.6,0.8-22-3.1-22-3.1s19.1,31.3,14.5,29&#10;&#9;&#9;&#9;c-4.6-2.3-15.5-6.1-15.5-6.1s17.8,16,12.8,16c-4.9,0-22.4,1.1-22.4,1.1s25.3,22.2,17.8,19.5c-7.6-2.7-29.3-6.5-29.3-6.5&#10;&#9;&#9;&#9;s40.5,40.9,29.3,37.8c-10.8-3-19.5-6.3-20-6.5c0.8,0.7,23.9,21.4,17.1,20.2c-4.3-0.7-12.2-1.1-17.6-1.3&#10;&#9;&#9;&#9;c-5.3-4.3-15.5-12.2-18.6-14.2c-4.4-2.8,17.6-14.2,11.2-13c-6.4,1.2-21,4.3-19.3,2c1.7-2.4,10.8-29.1,7.8-27.5&#10;&#9;&#9;&#9;c-3,1.6-7.1,2.4-11.2,5.5s-3.1-28.3-5.8-26.4c-2.7,2-9.5,3.5-9.5,3.5s-5.8-37-8.5-41.5c0,0-2.5,45.7-5.6,42.5&#10;&#9;&#9;&#9;c-3.1-3.2-7.4-12.4-7.4-12.4s7.4,35.1,3.1,35.7c-4.3,0.6-17-2.4-17-2.4s14.7,24.2,11.2,22.4c-3.6-1.8-11.9-4.7-11.9-4.7&#10;&#9;&#9;&#9;s13.7,12.4,9.9,12.4c-3.8,0-17.3,0.9-17.3,0.9s19.6,17.1,13.7,15c-5.8-2.1-22.6-5-22.6-5s31.3,31.6,22.6,29.2&#10;&#9;&#9;&#9;c-8.6-2.4-15.5-5-15.5-5s18.6,16.5,13.2,15.6c-5.3-0.9-17.8-1.2-17.8-1.2s15.4,15.8,15.8,17.4c0.1,0.2-0.2,0.2-0.8-0.3&#10;&#9;&#9;&#9;c-3.6-2.5-20.8-7.7-28.6-8.2v5.5c2.4,2.1,5.4,4.5,8.6,7c-1.9,0.8-4.3,1.4-6.7,3.1c-2.7,2-2-17.6-3.8-16.4&#10;&#9;&#9;&#9;c-1.8,1.2-6.3,2.2-6.3,2.2s-3.8-23-5.7-25.8c0,0-1.7,28.5-3.7,26.5c-2-2-4.9-7.7-4.9-7.7s4.9,21.9,2,22.2&#10;&#9;&#9;&#9;c-2.9,0.4-11.4-1.5-11.4-1.5s9.8,15.1,7.5,14s-8-2.9-8-2.9s9.2,7.7,6.6,7.7s-11.5,0.6-11.5,0.6s13.1,10.7,9.2,9.4&#10;&#9;&#9;&#9;c-3.9-1.3-15.1-3.1-15.1-3.1s20.9,19.7,15.1,18.2s-10.4-3.1-10.4-3.1s12.4,10.3,8.8,9.7c-3.6-0.6-11.9-0.7-11.9-0.7&#10;&#9;&#9;&#9;s10.3,9.8,10.6,10.8c0,0.1-0.1,0.1-0.5-0.2c-2.1-1.4-11.6-4.1-17.3-4.9c0.3-1.7,0.5-3.2,0.4-4.3c2.9,0.3,7.3,0.3,7.3,0.3&#10;&#9;&#9;&#9;s-11.9-9.5-14.8-11.4c-3-1.8,11.9-9.5,7.5-8.7c-4.3,0.8-14.1,2.9-13,1.3c1.1-1.6,7.3-19.6,5.2-18.5c-2.1,1.1-4.8,1.6-7.5,3.7&#10;&#9;&#9;&#9;s-2-19.1-3.9-17.7c-1.8,1.3-6.4,2.4-6.4,2.4s-3.9-24.9-5.7-27.9c0,0-1.7,30.8-3.8,28.6c-2-2.1-4.8-8-4.9-8.3&#10;&#9;&#9;&#9;c0.2,0.8,4.9,23.6,2,24c-2.9,0.4-11.5-1.6-11.5-1.6s9.9,16.3,7.5,15.1c-2.4-1.2-8-3.2-8-3.2s9.2,8.3,6.7,8.3s-11.6,0.6-11.6,0.6&#10;&#9;&#9;&#9;s13.2,11.5,9.2,10.1c-3.8-1.4-14.8-3.3-15.2-3.4c0.6,0.6,21,21.2,15.2,19.7c-5.5-1.5-10-3.2-10.4-3.4c0.6,0.6,12.4,11.1,8.9,10.5&#10;&#9;&#9;&#9;c-3.6-0.6-12-0.8-12-0.8s10.3,10.6,10.6,11.7c0,0.2-0.1,0.1-0.6-0.2c-2.4-1.7-14-5.2-19.3-5.5v3.7c6.1,5.4,19.5,14.7,14.9,13.5&#10;&#9;&#9;&#9;c-1.5-0.4-13.5-3.2-13.5-3.2s1.2,1.4,2.8,3.4c0,0,14,19.2,10.7,18.6c-1.2-0.2-3.6-1.1-6.3-2c0.1-0.1-7.2-2.5-8.7-2.9&#10;&#9;&#9;&#9;c0,0,11.7,13.4,10.1,13.4c-1.7,0-6.9,0.1-10.1,0.2v2c0.2,0.2,0.5,0.3,0.7,0.5c-26.6,2-54,2.5-82.3,0.9c0-2.8,0.1-5.2,0.1-6&#10;&#9;&#9;&#9;c0.1-2.1,1.4-17.2,1.9-22.3c2.1-2.1,4-4.2,4.1-5.6c0.3-3.2-1.2-6.9,0.9-9.4c1.6-1.8,2.6-13.6,3-21.3c1.3-2.1,1.7-5,1.9-5.4&#10;&#9;&#9;&#9;c0.3-0.7,2.5-0.9,2.6-1.5c0.1-0.6,1.1-1.1,1.1-1.1c5.3,0.2,5.5-3.9,5.9-4.9c0.4-1-0.5-2.4-0.5-2.4c-5.8-0.2-7.2,3.5-7.6,4.1&#10;&#9;&#9;&#9;c-0.4,0.7-1.7,0.3-1.7,0.3c0.1-2.3,6.4-5,8.3-5.5c1.3-0.4,1.3-1.8,1.1-2.8l4.4,0.1l6.9-7.6l-0.4-0.8c0,0-3,2.4-5.3,4.2l0.2-2.8&#10;&#9;&#9;&#9;l-1,0l-0.8,4c-0.3,0.3-0.6,0.5-0.7,0.6c-0.7,0.6-2.5,0.5-3.7,0.5c-0.8-4.5,3.5-6.1,5.3-7.3c0,0,0.1-0.1,0.1-0.1l2.3-0.3l0.1-1.1&#10;&#9;&#9;&#9;l-1.6,0.1c0.2-1.1-0.5-2.2-0.4-1.5c0.1,0.7-1.1,1.3-2,1.7l-0.6-1.9h-1v2.6c-1.5,0.7-2.6,1.6-3.3,2.6c-0.9-0.6-2.2-1.7-2.2-2.9&#10;&#9;&#9;&#9;c0-0.7,0.1-2.3,0.3-3.9l2.2-2.6l-0.4-0.5l-1.5,0.9c0.2-1.7,0.3-3,0.3-3l-1,0.2c0,0-0.8,3.1-1.3,6l-1.9-1.3l-1.1,0.6l2.7,2.3&#10;&#9;&#9;&#9;c-0.2,1.5-0.3,2.7-0.1,3.1c0.4,0.8,1.8,2.2,2.9,3.3c-0.8,2.5-0.2,4.7-0.2,4.7c-6.1,1.2-10.5,6.3-11.5,7.5&#10;&#9;&#9;&#9;c-0.4-0.2-0.8-0.2-1.3-0.2c-0.5,0-1,0.1-1.4,0.3c-0.9-1.1-5.3-6.3-11.5-7.5c0,0,0.5-1.9,0-4c1.1-1.1,2.6-2.5,3-3.3&#10;&#9;&#9;&#9;c0.2-0.4,0.1-1.6-0.1-3.1l2.7-2.3l-1.1-0.6l-1.9,1.3c-0.5-2.9-1.3-6-1.3-6l-1-0.2c0,0,0.2,1.4,0.3,3l-1.5-0.9l-0.4,0.5l2.2,2.6&#10;&#9;&#9;&#9;c0.2,1.6,0.3,3.1,0.3,3.9c0,1.1-1.1,2.1-2,2.8c-0.7-1.1-1.8-2.2-3.4-3v-2h-1l-0.5,1.4c-0.8-0.3-2.5-1.5-3.5-5.4l-0.9,0.2&#10;&#9;&#9;&#9;c-0.3,1.2,0,3.9,1.5,5.6l-1.3-0.1l0.1,1.1l3.4,0.4c2.1,1.2,5.1,3.1,3.9,7.2c-1.2,0-2.7,0-3.3-0.5c-0.1-0.1-0.4-0.3-0.7-0.6l-0.8-4&#10;&#9;&#9;&#9;l-1,0l0.2,2.8c-2.3-1.8-5.3-4.2-5.3-4.2l-0.4,0.8l6.9,7.6l4.1-0.1c0,0.8,0.2,1.8,1.2,2.1c2,0.5,8.2,3.2,8.3,5.5&#10;&#9;&#9;&#9;c0,0-1.3,0.4-1.7-0.3c-0.4-0.7-1.8-4.4-7.6-4.1c0,0-0.9,1.4-0.5,2.4s0.6,5.1,5.9,4.9c0,0,1,0.5,1.1,1.1s2.3,0.8,2.6,1.5&#10;&#9;&#9;&#9;c0.1,0.3,0.3,1.4,0.7,2.6c-0.6,3.3-1.5,7.9-1.9,10.4c0,0-0.7,3.8-3.3,3.3c-2.6-0.6-13.9-7.9-27.3,0.2c-9.6,5.9-21.3-2.9-29.1,9.8&#10;&#9;&#9;&#9;c-7.7,12.6-2,23.3-3.1,24.5s2.8-1.5,2.9-3.2c0.2-1.7,0.8-7.6,0.8-7.6s3.9,5.2,0.2,17.9c-0.2,0.2-0.4,5.1-0.4,5.1l0,0.5&#10;&#9;&#9;&#9;c-39.2-6.2-80-16.5-122.6-31.9v-2.7c-2.1-0.5-4.1-1.1-5.7-1.8c-4.6-2-10-4.5-13.3-6.5c3.8-1.3,8.2-3.9,9.7-5.3c0.3,0,0.7,0,1-0.1&#10;&#9;&#9;&#9;v-2c-0.9,0.4-1.8,0.8-2.5,1.1c-5.4,0.5-19.4,2.4-15.2,0.4c2.8-1.4,6.2-8.1,7.9-13l0.2-0.5c1.1-3.3,1.5-5.7,0.3-4.8&#10;&#9;&#9;&#9;c-3,2.1-8.6,7.7-7.7,5.6c0.9-2.1,11.6-25.4,9.5-24c-2.2,1.4-13.1,15.6-12.5,10.9c0.6-4.7,7.3-16.3,4.9-14.7&#10;&#9;&#9;&#9;c-2.4,1.6-7.7,9.5-8.2,7c-0.3-2,4.1-13.3,3.6-17c2.8,0.3,6.9,0.3,6.9,0.3s-11.2-8.4-14-10c-2.8-1.6,11.2-8.4,7.1-7.7&#10;&#9;&#9;&#9;c-4.1,0.7-13.3,2.6-12.3,1.2c1.1-1.4,6.9-17.2,4.9-16.3c-1.9,0.9-4.5,1.4-7.1,3.3c-2.6,1.9-1.9-16.8-3.7-15.6&#10;&#9;&#9;&#9;c-1.7,1.2-6,2.1-6,2.1s-3.7-21.9-5.4-24.6c0,0-1.6,27.1-3.6,25.2c-1.9-1.9-4.7-7.3-4.7-7.3s4.7,20.8,1.9,21.1&#10;&#9;&#9;&#9;c-2.7,0.3-10.8-1.4-10.8-1.4s9.4,14.3,7.1,13.3c-2.3-1-7.6-2.8-7.6-2.8s8.7,7.3,6.3,7.3c-2.4,0-11,0.5-11,0.5s12.4,10.1,8.7,8.9&#10;&#9;&#9;&#9;c-3.7-1.2-14.4-3-14.4-3s19.9,18.7,14.4,17.3c-5.5-1.4-9.8-3-9.8-3s11.8,9.8,8.4,9.3c-3.4-0.5-11.3-0.7-11.3-0.7s9.8,9.4,10,10.3&#10;&#9;&#9;&#9;c0,0.1-0.1,0.1-0.5-0.2c-2.3-1.5-13.2-4.5-18.2-4.8v3.3c1.5,1.3,3.5,2.7,5.6,4.2c-3.7-1.9-7.5-3.7-11.3-5.7&#10;&#9;&#9;&#9;c-14.3-7.4-28.6-14.2-42.8-20.7v-4.7c-1.1-0.3-2.3-0.5-3.7-0.9c2.3,0.3,3.7-0.6,2.7-1.1c-1.5-0.8-13.3-9.3-10.2-8.2&#10;&#9;&#9;&#9;c3.1,1.1,7.1,0.2,7.1,0.2s-1-0.7-2.6-1.8c2.7-0.3,5.4-0.5,6.6-0.4v-3.2c-1.8-0.5-3.5-1-4.8-1.6c-3.9-1.8-8.4-4.1-11.2-5.9&#10;&#9;&#9;&#9;c3.2-1.1,6.9-3.5,8.2-4.8c0.3,0,0.6,0,0.9-0.1v-1.8c-0.7,0.4-1.5,0.7-2.1,1c-4.5,0.4-16.3,2.2-12.8,0.3c2.3-1.2,5.2-7.3,6.7-11.8&#10;&#9;&#9;&#9;l0.2-0.5c1-3,1.2-5.1,0.2-4.4c-2.5,1.9-7.3,7-6.5,5.1c0.7-1.9,9.8-23,8-21.7c-1.8,1.3-11.1,14.1-10.5,9.9&#10;&#9;&#9;&#9;c0.5-4.2,6.2-14.8,4.2-13.3c-2,1.5-6.5,8.6-6.9,6.3c-0.3-1.9,3.5-12,3.1-15.4c2.3,0.2,5.8,0.2,5.8,0.2s-9.4-7.6-11.8-9.1&#10;&#9;&#9;&#9;c-2.4-1.5,9.4-7.6,6-7c-3.5,0.6-11.3,2.3-10.4,1.1c0.9-1.3,5.8-15.6,4.2-14.8c-1.6,0.8-3.8,1.3-6,3c-2.2,1.7-1.6-15.2-3.1-14.1&#10;&#9;&#9;&#9;c-1.5,1.1-5.1,1.9-5.1,1.9s-3.1-19.8-4.5-22.3c0,0-1.4,24.5-3,22.8c-1.6-1.7-4-6.6-4-6.6s4,18.8,1.6,19.1&#10;&#9;&#9;&#9;c-2.3,0.3-9.1-1.3-9.1-1.3s7.9,13,6,12c-1.9-0.9-6.4-2.5-6.4-2.5s7.4,6.6,5.3,6.6s-9.3,0.5-9.3,0.5s10.5,9.2,7.4,8.1&#10;&#9;&#9;&#9;s-12.1-2.7-12.1-2.7s16.8,16.9,12.1,15.7c-4.6-1.3-8.3-2.7-8.3-2.7s9.9,8.9,7.1,8.4s-9.5-0.6-9.5-0.6s8.2,8.5,8.5,9.3&#10;&#9;&#9;&#9;c0,0.1-0.1,0.1-0.4-0.2c-1.9-1.3-11.1-4.1-15.3-4.4v3c4.9,4.3,15.5,11.7,11.9,10.8c-1.2-0.3-2.6-0.6-3.9-1&#10;&#9;&#9;&#9;c1.6-0.8,2.6-1.2,2.6-1.2l-3.3,1.1c-3.2-0.8-6.1-1.4-6.1-1.4s0.9,1.1,2.2,2.7l-3.4,1.1v1.6c1.3-0.7,2.7-1.3,4-2&#10;&#9;&#9;&#9;c3.1,3.9,7.5,9.5,6.8,9.4c-0.1,0-0.2,0-0.1,0.2c-1.1,0.6-2.8,1.5-5.1,2.4c-2-0.7-4.1-1.4-5.5-1.8v1.8c0.4,0.3,0.8,0.7,1.2,1.1&#10;&#9;&#9;&#9;c-22.4-7.7-44.5-14.3-66.5-20v-1.9c-1.2-0.3-2.6-0.6-4.1-1c2.5,0.3,4.1-0.6,3-1.3c-1.6-0.9-14.7-10.3-11.3-9.1&#10;&#9;&#9;&#9;c3.4,1.2,7.8,0.2,7.8,0.2s-1.1-0.8-2.8-2c3-0.3,6-0.6,7.3-0.4v-3.6c-2-0.5-3.9-1.1-5.3-1.8c-4.3-2-9.3-4.5-12.4-6.5&#10;&#9;&#9;&#9;c3.6-1.3,7.7-3.9,9-5.3c0.3,0,0.6,0,1-0.1v-2c-0.8,0.4-1.6,0.8-2.4,1.1c-5,0.5-18.1,2.4-14.2,0.4c2.6-1.4,5.8-8.1,7.4-13l0.2-0.5&#10;&#9;&#9;&#9;c1.1-3.3,1.4-5.7,0.3-4.8c-2.8,2.1-8,7.7-7.2,5.6c0.8-2.1,10.9-25.4,8.8-24c-2,1.4-12.3,15.6-11.7,11c0.6-4.7,6.8-16.3,4.6-14.7&#10;&#9;&#9;&#9;c-2.2,1.6-7.2,9.6-7.6,7c-0.3-2,3.8-13.3,3.4-17.1c2.6,0.3,6.5,0.3,6.5,0.3s-10.5-8.4-13.1-10c-2.6-1.6,10.5-8.4,6.6-7.7&#10;&#9;&#9;&#9;c-3.8,0.7-12.5,2.6-11.5,1.2c1-1.4,6.4-17.3,4.6-16.3c-1.8,0.9-4.2,1.4-6.6,3.3c-2.4,1.9-1.8-16.8-3.4-15.6&#10;&#9;&#9;&#9;c-1.6,1.2-5.6,2.1-5.6,2.1s-3.4-21.9-5-24.6c0,0-1.5,27.1-3.3,25.2c-1.8-1.9-4.4-7.4-4.4-7.4s4.4,20.8,1.8,21.2&#10;&#9;&#9;&#9;c-2.6,0.4-10.1-1.4-10.1-1.4s8.7,14.4,6.6,13.3c-2.1-1.1-7.1-2.8-7.1-2.8s8.1,7.4,5.9,7.4s-10.3,0.5-10.3,0.5s11.6,10.2,8.1,8.9&#10;&#9;&#9;&#9;c-3.5-1.2-13.4-3-13.4-3s18.5,18.7,13.4,17.3c-5.1-1.4-9.2-3-9.2-3s11,9.8,7.8,9.3c-3.2-0.5-10.6-0.7-10.6-0.7s2.4,2.4,4.7,4.9&#10;&#9;&#9;&#9;c-2.3,0.2-5.6,0.6-8.8,1c-1.5-0.3-2.9-0.5-4-0.6v1c-4.1,0.3-6.7,0.3-4.3-1c3.2-1.6,7.1-9.7,9.2-15.8l0.2-0.7&#10;&#9;&#9;&#9;c1.3-4,1.7-6.9,0.3-5.8c-3.5,2.5-10,9.3-9,6.8c1-2.5,13.5-30.7,11-29c-2.5,1.7-15.2,18.9-14.5,13.2c0.7-5.6,8.5-19.7,5.7-17.8&#10;&#9;&#9;&#9;c-2.7,2-9,11.6-9.5,8.5c-0.4-2.5,4.8-16.1,4.2-20.6c3.2,0.3,8,0.3,8,0.3s-13-10.1-16.2-12.1c-3.2-2,13-10.1,8.2-9.3&#10;&#9;&#9;&#9;c-4.7,0.8-15.4,3.1-14.2,1.4c1.2-1.7,8-20.9,5.7-19.7c-2.2,1.1-5.2,1.7-8.2,3.9c-3,2.3-2.2-20.3-4.2-18.9c-2,1.4-7,2.5-7,2.5&#10;&#9;&#9;&#9;S454,365.3,452,362c0,0-1.9,32.8-4.1,30.4c-2.2-2.3-5.4-8.9-5.4-8.9s5.4,25.2,2.2,25.6c-3.2,0.4-12.5-1.7-12.5-1.7&#10;&#9;&#9;&#9;s10.8,17.3,8.2,16.1c-2.6-1.3-8.8-3.4-8.8-3.4s10.1,8.9,7.3,8.9s-12.7,0.6-12.7,0.6s14.4,12.3,10.1,10.8&#10;&#9;&#9;&#9;c-3.3-1.1-11.1-2.6-14.7-3.3c0.3-1.1,0.2-1.6-0.2-1.3c-0.3,0.2-0.7,0.6-1.2,1.1c-0.3-0.1-0.5-0.1-0.5-0.1s0.1,0.1,0.3,0.3&#10;&#9;&#9;&#9;c-4.7,4.9-16.5,20.4-15.7,14.4c0.9-6.7,10-23.4,6.8-21c-3.2,2.3-10.6,13.7-11.2,10c-0.5-2.9,5.6-19,5-24.4&#10;&#9;&#9;&#9;c3.8,0.4,9.5,0.4,9.5,0.4s-15.4-12-19.2-14.4c-3.8-2.3,15.4-12,9.7-11c-5.6,1-18.3,3.7-16.8,1.7c1.5-2,9.5-24.7,6.8-23.4&#10;&#9;&#9;&#9;c-2.7,1.3-6.2,2-9.7,4.7c-3.5,2.7-2.7-24-5-22.4c-2.4,1.7-8.3,3-8.3,3s-5-31.4-7.4-35.2c0,0-2.2,38.8-4.9,36.1&#10;&#9;&#9;&#9;c-2.7-2.8-6.4-10.5-6.4-10.5s6.4,29.8,2.7,30.3c-3.8,0.5-14.8-2-14.8-2s12.8,20.5,9.7,19c-3.1-1.5-10.4-4-10.4-4s12,10.5,8.6,10.5&#10;&#9;&#9;&#9;s-15.1,0.8-15.1,0.8s17.1,14.5,12,12.8c-5.1-1.8-19.7-4.3-19.7-4.3s27.2,26.8,19.7,24.8c-7.5-2-13.5-4.3-13.5-4.3s1.1,0.9,2.6,2.3&#10;&#9;&#9;&#9;c-7.3,1.1-20.6,3.2-19,1.4c1.8-1.9,11.4-23.9,8.2-22.6c-3.2,1.3-7.5,1.9-11.8,4.5c-4.3,2.6-3.2-23.2-6.1-21.6&#10;&#9;&#9;&#9;c-2.9,1.6-10,2.9-10,2.9s-6.1-30.3-8.9-34c0,0-2.7,37.5-5.9,34.8c-3.2-2.7-7.8-10.2-7.8-10.2s7.8,28.8,3.2,29.3&#10;&#9;&#9;&#9;c-4.5,0.5-17.9-1.9-17.9-1.9s15.5,19.8,11.8,18.4c-3.7-1.5-12.6-3.9-12.6-3.9s14.4,10.2,10.4,10.2c-1.8,0-5.5,0.1-9.2,0.3&#10;&#9;&#9;&#9;c-3.6-4.1-9.4-10.5-11.3-12.2c-2.9-2.6,11.6-13.2,7.3-12.1c-4.2,1.1-13.8,4-12.7,1.8c1.1-2.2,7.1-27.2,5.1-25.7&#10;&#9;&#9;&#9;c-2,1.5-4.7,2.2-7.3,5.1c-2.7,2.9-2-26.4-3.8-24.6c-1.8,1.8-6.2,3.3-6.2,3.3s-3.8-34.5-5.6-38.7c0,0-1.7,42.7-3.7,39.7&#10;&#9;&#9;&#9;c-2-3-4.8-11.6-4.8-11.6s4.8,32.8,2,33.3c-2.8,0.6-11.2-2.2-11.2-2.2s0.5,1.1,1.1,2.7c-5.2-4.4-11.2-9.3-13.6-10.9&#10;&#9;&#9;&#9;c-4.4-3,17.7-15.2,11.2-13.9c-6.5,1.3-21.1,4.6-19.4,2.1c1.7-2.5,10.9-31.2,7.8-29.5c-3.1,1.7-7.1,2.5-11.2,5.9&#10;&#9;&#9;&#9;c-4.1,3.4-3.1-30.4-5.8-28.3c-2.7,2.1-9.5,3.8-9.5,3.8s-5.8-39.7-8.5-44.5c0,0-2.6,49.1-5.6,45.6c-3.1-3.5-7.4-13.3-7.4-13.3&#10;&#9;&#9;&#9;s7.4,37.7,3.1,38.3c-4.3,0.6-17.1-2.5-17.1-2.5s14.8,26,11.2,24.1c-3.6-1.9-12-5.1-12-5.1s13.8,13.3,10,13.3s-17.3,0.9-17.3,0.9&#10;&#9;&#9;&#9;s19.6,18.4,13.8,16.1c-3.8-1.4-12.2-3.3-17.6-4.4c-0.6-6.7-0.9-14.6-2.1-13.6c-2.2,1.7-7.6,3-7.6,3s-4.6-31.8-6.8-35.6&#10;&#9;&#9;&#9;c0,0-2,39.3-4.5,36.5c-2.5-2.8-5.9-10.6-5.9-10.6s5.9,30.2,2.5,30.7c-3.5,0.5-13.7-2-13.7-2s6.5,11.5,8.7,16.8&#10;&#9;&#9;&#9;c-4.6-3.9-21.8-18.6-26.6-21.8c-5.6-3.7,22.2-19.1,14.1-17.5c-8.1,1.6-26.5,5.8-24.3,2.7c2.1-3.2,13.7-39.2,9.8-37.1&#10;&#9;&#9;&#9;c-3.8,2.1-9,3.2-14.1,7.4c-5.1,4.2-3.8-38.1-7.2-35.5c-3.4,2.7-12,4.8-12,4.8s-7.3-49.8-10.7-55.9c0,0-3.2,61.6-7,57.2&#10;&#9;&#9;&#9;c-3.8-4.2-9-16.1-9.3-16.7c0.2,1.1,9.2,47.3,3.8,48c-1.7,0.2-4.5,0-7.5-0.4v24.1c1,2.5,1.2,3.9,0.2,3.4c-0.1,0-0.1-0.1-0.2-0.1&#10;&#9;&#9;&#9;v233.4V669v131h1400v-61.2v-90.8V386C1398.7,398.6,1397.1,409.4,1395.3,407.5z M717.4,612.8c-0.1,0-0.4,0.2-0.8,0.4&#10;&#9;&#9;&#9;c-0.1-0.1-0.1-0.2-0.2-0.3C717.2,612.8,717.6,612.7,717.4,612.8z M714.9,609.4c0.6,0.4,1.3,0.7,1.9,0.9c-0.8-0.2-1.7-0.4-2.6-0.6&#10;&#9;&#9;&#9;C713.9,609.1,714,608.9,714.9,609.4z M701.8,589.2c0.8,0.4,2,0.3,3.3,0c1.7,2.6,5.1,6.9,7.5,7.8c1,0.4,1.2,0.8,0.8,1.3&#10;&#9;&#9;&#9;C707.6,594.1,699.2,588,701.8,589.2z M655,582.5c0.5,1.1,3.8,4.9,1.2,4.4c-1-0.2-2.9-0.9-5-1.6C652.7,584.1,654.1,583.1,655,582.5&#10;&#9;&#9;&#9;z M721.6,615.6c0,0-0.1,0.1-0.4,0.3c-0.1,0-0.1,0-0.2-0.1C721.4,615.7,721.6,615.6,721.6,615.6z M417.1,497c1.3-0.4,2.6-1,3.9-1.6&#10;&#9;&#9;&#9;c2,2.6,3.9,5,4.9,6.4C422.5,500.1,419.4,498.5,417.1,497z M424.8,508.4c-0.8-0.3-1.6-0.5-2.5-0.8c-0.3-0.2-0.6-0.5-1-0.7&#10;&#9;&#9;&#9;c0.3-0.2,0.6-0.4,1-0.7C423.1,507,424,507.8,424.8,508.4z M421.6,505.5c-0.4,0.2-0.9,0.4-1.4,0.6c-7.2-5.1-13.3-9.7-10.3-8.4&#10;&#9;&#9;&#9;c1.3,0.6,3.2,0.5,5.3-0.1C416.7,499.8,419.1,502.9,421.6,505.5z M570.8,561.4c0.7,0.5,1.4,0.8,2.1,1c-0.9-0.2-1.9-0.5-2.9-0.7&#10;&#9;&#9;&#9;C569.8,561,569.9,560.8,570.8,561.4z M556.4,539c0.9,0.4,2.2,0.3,3.6-0.1c1.8,2.8,5.7,7.6,8.3,8.6c1.1,0.4,1.3,0.9,0.9,1.5&#10;&#9;&#9;&#9;C562.8,544.5,553.5,537.8,556.4,539z M507.1,506c1.7,1.8,3,3.4,3.1,3.7c0,0.1-0.1,0.1-0.5-0.2c-0.8-0.5-2.6-1.3-4.8-2&#10;&#9;&#9;&#9;C505.8,507,506.5,506.5,507.1,506z M503.1,528.7C503.1,528.7,503.2,528.7,503.1,528.7c0.8,1,1.3,1.7,1.5,2.2&#10;&#9;&#9;&#9;C502.6,529.2,501.6,528.2,503.1,528.7z M497.1,511.6c0.9,0.8,1.9,1.5,2.9,2.3c-1.3-0.7-2.5-1.4-3.5-2&#10;&#9;&#9;&#9;C496.7,511.7,496.9,511.7,497.1,511.6z M490.4,512.4c1.1,0.5,2.7,0.4,4.5-0.1c1.2,1.7,3,4.1,4.9,6.1c-1.1-0.3-2.2-0.5-3.1-0.7&#10;&#9;&#9;&#9;C491.8,514.2,488.2,511.4,490.4,512.4z M408.4,470.3c0.9-2.4,10.6-24.2,12.9-31.9c5.1,5.1,20.4,20.8,15.1,19.4&#10;&#9;&#9;&#9;c-6.4-1.7-11.4-3.6-11.4-3.6s13.6,11.8,9.7,11.2s-13.1-0.8-13.1-0.8s11.3,11.3,11.6,12.5c0,0.2-0.1,0.1-0.6-0.2&#10;&#9;&#9;&#9;c-1.9-1.3-9-3.6-14.9-4.9c0.2-0.7,0.5-1.3,0.7-2l0.3-0.8c1.6-4.7,2-8.1,0.4-6.9C414.9,465.2,407.2,473.3,408.4,470.3z&#10;&#9;&#9;&#9; M407.5,488.6c2.5-1.3,5.3-5.8,7.7-10.8c4.9,3.8,10.9,8.2,13,10.3c-1,0.1-2.2,0.2-3.5,0.4c-0.7-0.2-1.5-0.3-2.2-0.5&#10;&#9;&#9;&#9;c2.2-1,3.6-1.7,3.6-1.7l-4.5,1.4c-4.4-1-8.4-1.9-8.4-1.9s1.2,1.5,3,3.6C409.6,490.1,404,490.4,407.5,488.6z M336,432&#10;&#9;&#9;&#9;c4.5,4.1,10.9,10.4,7.8,9.9c-4.7-0.8-15.5-1-15.5-1s2.9,2.9,6,6.1c-4.1-2.5-8-4.8-9.8-5.7C321.1,439.8,332,434.5,336,432z&#10;&#9;&#9;&#9; M342,455.7c0.1,0.2-0.2,0.1-0.7-0.2c-0.2-0.1-0.4-0.2-0.6-0.3c0.3,0,0.6,0,0.9,0C341.9,455.4,342,455.6,342,455.7z M335.7,470.3&#10;&#9;&#9;&#9;c-1-0.2-2.1-0.5-3.2-0.8c0.3-0.9,0.6-1.8,0.9-2.6c0.1,0,0.1-0.1,0.1-0.1l-0.1,0c0-0.1,0-0.1,0.1-0.2&#10;&#9;&#9;&#9;C336.7,469.2,338.1,470.8,335.7,470.3z M335.9,490.4c-0.3,0-0.5-0.3-0.5-0.8C335.6,489.9,335.8,490.1,335.9,490.4z M255.5,442.5&#10;&#9;&#9;&#9;c5.6,4,13.5,9.9,9.4,8.8c-2.3-0.6-6.1-1.3-10-2C255.3,446.6,255.5,444.2,255.5,442.5z M257.6,469.5c0.7-2.4,1.4-4.7,1.9-6.7&#10;&#9;&#9;&#9;c2.2,2,4.1,3.9,5.4,5.4c-0.5,0.8-1,1.7-1.6,2.7C261.3,470.3,259.4,469.9,257.6,469.5z M260.3,475.9c-0.8,1.3-1.6,2.5-2.3,3.5&#10;&#9;&#9;&#9;c-0.9-0.1-1.8-0.1-2.8-0.2c0.3-1.8,0.8-4,1.4-6.3C258,473.9,259.2,475,260.3,475.9z M253.4,457.3c1.5,1.3,2.9,2.5,4.4,3.8&#10;&#9;&#9;&#9;c-1.5,2.5-3.2,5.7-4.4,7.2c-0.6-0.2-1.2-0.3-1.7-0.5C251.8,466,252.6,461.8,253.4,457.3z M206,404.2c1.6,0.2,3.5,0.3,5.3,0.3&#10;&#9;&#9;&#9;c2.3,5.9,4.6,12,3.3,11.1c-2.3-1.7-7.8-4.4-7.8-4.4s6.5,8.4,6.9,10.9c-0.1,0-0.3,0.1-0.5,0.3c-0.2,0.1-0.3,0.3-0.5,0.4&#10;&#9;&#9;&#9;c-2.6,0.1-8.3,0.6-10.2,0.8C204.4,416.4,206.5,408.1,206,404.2z M211,437.7c-0.5-0.3-1.2-0.5-1.9-0.8c0.3-0.8,0.6-1.7,1-2.5&#10;&#9;&#9;&#9;C211.6,436.7,212.4,438.4,211,437.7z M202.4,424.2c0.8,1,2.6,3.3,4.5,5.8c-1.5,1.9-2.9,3.7-4.1,4.8c-0.9-0.3-1.7-0.5-2.5-0.7&#10;&#9;&#9;&#9;C200.4,432.1,201.3,428.4,202.4,424.2z M207.3,450c-1.3,1-2.1,0.9-1.8-1.1c0.1-0.5,0.1-1,0.3-1.5&#10;&#9;&#9;&#9;C206.2,448.3,206.8,449.2,207.3,450z M139.4,424c0.4,1.2,0.1,1.8-1.3,1.4c-0.1,0-0.2-0.1-0.3-0.1&#10;&#9;&#9;&#9;C138.3,424.9,138.9,424.4,139.4,424z M130,410.8c3.5,4.2,6.7,8.3,8.3,11.1c-2.2,0.5-4.8,1-7.1,1.4c-1.9-0.6-3.5-1.2-4.8-1.7&#10;&#9;&#9;&#9;C127.3,419.3,128.8,415,130,410.8z M136.6,435.8c-1.9-1.5-3.4-2.7-4.3-3.3c-0.7-0.5-0.5-1.3,0.2-2.3&#10;&#9;&#9;&#9;C134.5,432.5,136.1,434.6,136.6,435.8z M125.7,423.1c0.2,0.2,0.4,0.4,0.6,0.6C125.8,423.6,125.5,423.4,125.7,423.1z M123.8,403.5&#10;&#9;&#9;&#9;c-0.3,0.2-0.5,0.4-0.8,0.6c-0.9,0.8-1.6-0.9-2-3.7C121.9,401.3,122.8,402.4,123.8,403.5z M91.4,421c0.4,1.2,0.5,1.8-0.1,1.5&#10;&#9;&#9;&#9;c-0.9-0.5-2.1-1-3.4-1.6C89.4,421,90.6,421,91.4,421z M78.4,420.5c1.7,0.2,3.7,0.3,5.6,0.4c3.1,3.1,7.8,8.3,5.6,8.3&#10;&#9;&#9;&#9;c-2.3,0-8.9,0.4-12.1,0.6C78.3,426,78.7,422.7,78.4,420.5z M81.9,462.1c0.7-1.9,1.4-3.8,2.1-5.6c3.4,4.5,5.3,7.8,2.7,7.1&#10;&#9;&#9;&#9;C85.1,463.1,83.4,462.6,81.9,462.1z M85.7,472.1c-0.2,0.2-0.4,0.4-0.6,0.7c-0.1,0-0.1,0-0.2,0c-1.6-0.3-4-0.5-6.3-0.6&#10;&#9;&#9;&#9;c0.5-2,1.3-4.2,2-6.4C83.1,468.3,85.3,470.9,85.7,472.1z M77.2,431.3c3.8,3.6,13.3,12.9,9.5,11.5c-2.5-0.9-7.4-2.1-11.5-3&#10;&#9;&#9;&#9;C76,437,76.7,434.1,77.2,431.3z M74.1,444.6c1.9,2.2,4.1,4.7,6.2,7.2c-4.3,5.6-8.5,11-9,7.4C71,457.2,72.4,451.3,74.1,444.6z&#10;&#9;&#9;&#9; M1041.7,710.2l0.5-6.6l1.4,6.7l-0.2,7.8c-0.8-0.1-1.7-0.1-2.5-0.2L1041.7,710.2z M1003.9,696.9c5,0.5,25.4,0.7,30.7-1.3&#10;&#9;&#9;&#9;c0,0,0.6,13.3,1.8,15.1c0.5,0.7,0.6,3.7,0.6,7.1c-13.6-1-27.4-2.5-41.4-4.5l-0.1-0.6L1003.9,696.9z M989.9,711.6&#10;&#9;&#9;&#9;c-0.1-0.2,0.2-0.9,0.7-2l-0.3,1.4l0.4,1.6c-0.3,0-0.5-0.1-0.8-0.1C990,712,989.9,711.7,989.9,711.6z M838.8,669.4&#10;&#9;&#9;&#9;c1,0.4,2.3,0.3,3.9-0.1c0.8,1.2,2,2.7,3.4,4.2c-1.7-0.7-3.4-1.3-5.1-2C838.6,669.9,837.4,668.9,838.8,669.4z M1346.9,540.2&#10;&#9;&#9;&#9;c1.4,0.1,3.1,0.2,4.7,0.3c5.4,5.7,17.4,18.2,17.8,19.8c0.1,0.3-0.2,0.2-1.1-0.4c-3-2.1-13.5-5.7-23.2-8.1&#10;&#9;&#9;&#9;C1346.3,547.2,1347.2,542.7,1346.9,540.2z M1360,618.6c-0.9-0.2-2.1-0.5-3.6-1c1-1.9,2-3.9,2.9-6&#10;&#9;&#9;&#9;C1361.7,615.2,1364.5,619.5,1360,618.6z M1359.9,582.4c0.3-0.6,0.5-1.3,0.8-1.9c1.6,1.7,1.7,2.5-0.6,1.9&#10;&#9;&#9;&#9;C1360,582.4,1359.9,582.4,1359.9,582.4z M1351,604c0.2-0.6,0.8-2.1,1.7-4.2c0.6,0.8,1.2,1.7,1.8,2.4&#10;&#9;&#9;&#9;C1352,604.4,1350.4,605.7,1351,604z M1350.5,580.2c0.4-0.2,0.8-0.4,1.2-0.6c-0.2,0.2-0.5,0.5-0.7,0.7&#10;&#9;&#9;&#9;C1350.9,580.2,1350.7,580.2,1350.5,580.2z M1352.7,578.5l-3.8,1.2c-0.7-0.2-1.4-0.3-2.1-0.5c0.6-2.4,1.7-5.2,2.8-8&#10;&#9;&#9;&#9;c2,1.6,3.9,3.1,5.6,4.4C1354.3,576.7,1353.5,577.6,1352.7,578.5z M1341.7,565c1.1,0.8,2.1,1.7,3.2,2.5c-1.9,2.1-3.5,3.2-3.7,1.5&#10;&#9;&#9;&#9;C1341.1,568.3,1341.3,566.8,1341.7,565z M1255,614.6c-1.1-0.6,0.3-2,2.2-3.5c3.2,4.1,6.4,8.3,7.8,10.5&#10;&#9;&#9;&#9;C1261.4,619,1256.7,615.6,1255,614.6z M1260.3,642.7c-0.9,0.8-1.5,1-1.7,0.2c-0.1-0.4,0-1.1,0.2-1.9&#10;&#9;&#9;&#9;C1259.5,641.6,1259.9,642.2,1260.3,642.7z M1262.8,624.9c-0.1,0.1-0.2,0.1-0.4,0.2c0-0.1,0-0.2,0-0.2&#10;&#9;&#9;&#9;C1262.6,624.9,1262.7,624.9,1262.8,624.9z M1262.5,625.9c0.4-0.3,0.9-0.6,1.3-0.9c0.8,0,1.6,0.1,2.4,0.1c1.8,2.8,5.5,7.7,1.5,6.8&#10;&#9;&#9;&#9;c-1.2-0.3-3.4-0.9-5.9-1.8C1262.2,628.5,1262.4,627.1,1262.5,625.9z M1255.1,591.8c8.7,6.8,17.3,13.4,12.5,12.2&#10;&#9;&#9;&#9;c-2.2-0.6-4.8-1.2-7.3-1.8c3-1.4,4.9-2.3,4.9-2.3l-6.1,2c-2.3-0.5-4.6-1.1-6.4-1.5C1253.8,597.1,1254.9,593.6,1255.1,591.8z&#10;&#9;&#9;&#9; M1251.4,603.9c0.1,0.2,0.2,0.3,0.4,0.5l-0.7,0.2C1251.2,604.3,1251.3,604.1,1251.4,603.9z M1249.6,607.8c0.1-0.1,0.2-0.3,0.3-0.6&#10;&#9;&#9;&#9;c1-0.5,2-1,3-1.4c0.6,0.7,1.1,1.4,1.7,2.2C1251.5,608.4,1249,608.6,1249.6,607.8z M1196.5,672.7c0.2-1.6,1-4,2-6.5&#10;&#9;&#9;&#9;c0.4-0.2,0.8-0.4,1.2-0.5c0.8,1,1.7,2,2.6,3.1C1199.1,672.5,1196.2,675.4,1196.5,672.7z M1202.2,686.2c-1.7,1.6-3,2.5-2.5,1.4&#10;&#9;&#9;&#9;c0.1-0.4,0.5-1.3,1.1-2.7C1201.3,685.3,1201.8,685.8,1202.2,686.2z M1199,702.1c1.2-0.7,2.6-2.4,3.9-4.6c2.3,1.7,4.3,3.2,4.8,3.9&#10;&#9;&#9;&#9;C1204.7,701.8,1201.8,702,1199,702.1C1199,702.1,1199,702.1,1199,702.1z M1207.5,681.5c-1.2-0.4-2.7-0.8-4.2-1.4&#10;&#9;&#9;&#9;c1.9-1.3,3.6-2.4,4.7-3.2c0.6,1.3,4.7,5.7,1.5,5.1c-0.2,0-0.5-0.1-0.8-0.2c0-0.8-0.2-1.1-0.8-0.6&#10;&#9;&#9;&#9;C1207.8,681.3,1207.7,681.4,1207.5,681.5z M1209.4,663.2c1.3,1.1,1.5,1.7,0.2,1.4c-0.2,0-0.4-0.1-0.6-0.1&#10;&#9;&#9;&#9;C1209.1,664,1209.2,663.6,1209.4,663.2z M1208.2,676.6c-0.2,0-0.2,0-0.2,0.2c-1.1,0.6-2.7,1.4-4.7,2.1c0.8-1.9,1.6-4,2.4-6&#10;&#9;&#9;&#9;C1207.5,675.1,1208.6,676.7,1208.2,676.6z M1208,662.1c-0.5,0.5-1,1.2-1.6,1.8c-0.6-0.1-1.2-0.3-1.8-0.4&#10;&#9;&#9;&#9;C1206.6,662.6,1207.9,662.1,1208,662.1l-4.2,1.2c-1.3-0.3-2.6-0.6-3.8-0.8c0.8-1.9,1.5-3.7,1.9-4.9&#10;&#9;&#9;&#9;C1204.2,659.2,1206.4,660.8,1208,662.1z M1195.6,652.9c1.5,1.2,3.4,2.6,5.3,4c-1.2,1.2-2.8,3.3-4.2,5c-0.3-0.1-0.5-0.1-0.5-0.1&#10;&#9;&#9;&#9;s0.1,0.1,0.3,0.3c-1.7,2-3.1,3.4-3.4,2C1192.9,662.6,1194.4,657.6,1195.6,652.9z" style="fill: rgb(2, 45, 44);" transform="matrix(1, 0, 0, 1, 0, -1.4210854715202004e-14)"/>
</svg>